<?xml version="1.0" encoding="utf-8"?>
<!-- Generator: Adobe Illustrator 26.3.1, SVG Export Plug-In . SVG Version: 6.00 Build 0)  -->
<svg version="1.1" id="Layer_1" xmlns="http://www.w3.org/2000/svg" xmlns:xlink="http://www.w3.org/1999/xlink" x="0px" y="0px"
	 viewBox="0 0 200 200" style="enable-background:new 0 0 200 200;" xml:space="preserve">
<style type="text/css">
	.st0{fill:#F9B02C;}
	.st1{fill:#FDFDFD;}
	.st2{fill:#232323;}
</style>
<g>
	<g>
		<path class="st0" d="M102.7,55.8C102.8,55.8,102.8,55.9,102.7,55.8c0,0.1,0,0.1,0,0.1c0,0,0,0,0,0c0,0,0,0.1,0,0.1c0,0,0,0,0,0
			c0,0,0,0.1,0,0.1c0,0,0,0,0,0c0,0,0,0.1,0,0.1c0,0,0,0,0,0c0,0,0,0.1,0,0.1c0,0,0,0,0,0c0,0,0,0.1,0,0.1c0,0,0,0,0,0
			c0,0,0,0.1,0,0.1c0,0,0,0,0,0c0,0,0,0.1,0.1,0.1c0,0,0,0,0,0c0,0,0,0.1,0.1,0.1c0,0,0,0,0,0c0,0,0,0.1,0,0.1c0,0,0,0,0,0
			c0,0,0,0.1,0,0.1c0,0,0,0,0,0c0,0,0,0.1,0,0.1c0,0,0,0,0,0c0,0,0,0.1,0.1,0.1c0.5,0.8,1.2,1.6,2,2.3c0.7,0.6,1.6,1.1,2.5,1.5
			c0,0,0,0,0,0c0,0,0,0,0,0c0,0,0-0.1,0-0.1c0,0,0,0,0,0c0,0,0-0.1,0-0.1c0,0,0,0,0,0c0,0,0-0.1,0-0.1c0,0,0,0,0,0
			c0,0,0-0.1,0.1-0.1c0,0,0,0,0,0c0,0,0-0.1,0-0.1c0,0,0,0,0,0c0,0,0-0.1,0-0.1c0,0,0,0,0,0c0,0,0-0.1,0-0.1c0,0,0,0,0,0
			c0,0,0-0.1,0.1-0.1c0,0,0,0,0,0c0,0,0-0.1,0.1-0.1c0,0,0,0,0,0c0,0,0-0.1,0.1-0.1c0,0,0,0,0,0c0,0,0-0.1,0.1-0.1c0,0,0,0,0,0
			c0,0,0-0.1,0.1-0.1c0,0,0,0,0,0c0,0,0-0.1,0.1-0.1c0,0,0,0,0,0c0,0,0,0,0,0c-0.9-1.1-2.1-2-3.4-2.7
			C104.8,56.4,103.8,56,102.7,55.8C102.7,55.8,102.7,55.8,102.7,55.8z"/>
		<path class="st0" d="M110.8,68.1c0.1-0.4,0.1-3.3,0.1-3.7c0-0.7-0.1-1.4-0.3-2c-0.2-0.9-0.6-1.7-1.2-2.4c0,0,0,0,0,0c0,0,0,0,0,0
			c0,0,0,0.1-0.1,0.1c0,0,0,0,0,0c0,0,0,0.1-0.1,0.1c0,0,0,0,0,0c0,0,0,0.1-0.1,0.1c0,0,0,0,0,0c0,0,0,0.1-0.1,0.1c0,0,0,0,0,0
			c0,0,0,0.1,0,0.1c0,0,0,0,0,0c0,0,0,0.1,0,0.1c0,0,0,0,0,0c0,0,0,0.1,0,0.1c0,0,0,0,0,0c0,0,0,0.1-0.1,0.1c0,0,0,0,0,0
			c0,0,0,0.1,0,0.1c0,0,0,0,0,0c0,0,0,0.1,0,0.1c0,0,0,0,0,0c0,0,0,0.1,0,0.1c0,0,0,0,0,0c0,0,0,0.1,0,0.1c0,0,0,0,0,0
			c0,0,0,0.1,0,0.1c-0.4,0.9-0.5,1.8-0.5,2.8c0,0.2,0,2.9,0,3.1C109.4,67.7,110.3,67.9,110.8,68.1z"/>
		<path class="st0" d="M90.4,62.2C90.4,62.2,90.4,62.2,90.4,62.2c-0.1,0-0.1,0-0.2,0c0,0,0,0-0.1,0c0,0-0.1,0-0.1,0c0,0,0,0-0.1,0
			c0,0-0.1,0-0.1,0c0,0,0,0,0,0c-0.1,0-0.1,0-0.2,0c0,0,0,0,0,0c0,0-0.1,0-0.1,0c0,0,0,0-0.1,0c0,0-0.1,0-0.1,0c0,0,0,0-0.1,0
			c0,0-0.1,0-0.1,0c0,0,0,0-0.1,0c0,0-0.1,0-0.1,0c0,0,0,0,0,0c0,0,0,0,0,0c-0.2,0.6-0.2,1.2-0.2,1.9c0,0.4,0,3.1,0.1,3.6
			c0.7-0.3,1.6-0.5,2.8-0.7c0-1.3,0.1-2.8,0.1-3c0-0.5-0.1-1-0.2-1.5c0,0-0.1,0.1-0.2,0.2c-0.1-0.1-0.2-0.2-0.2-0.3
			c0,0,0.2-0.2,0.2-0.1c0.1,0,0.2,0.1,0.2,0.2c-0.1-0.3-0.2-0.7-0.3-1c0,0,0,0,0,0c0,0,0,0-0.1,0c0,0-0.1,0-0.1,0c0,0,0,0-0.1,0
			c0,0-0.1,0-0.1,0c0,0,0,0-0.1,0c0,0-0.1,0-0.1,0c0,0,0,0,0,0c0,0-0.1,0-0.1,0c0,0,0,0-0.1,0c0,0,0,0,0,0c0,0,0,0,0,0
			C90.5,62.2,90.5,62.2,90.4,62.2z M90,66.2C90,66.2,89.9,66.2,90,66.2c-0.1-0.1,0-0.1,0-0.1c0,0,0.1,0,0.1,0.1
			C90.1,66.2,90,66.2,90,66.2z M90.1,65l0.1-0.4c0,0,0.2,0.1,0.1,0.2C90.4,64.8,90.2,64.9,90.1,65z M90.3,63.3c0,0,0.1-0.1,0.1-0.1
			c0,0.1,0.1,0.2,0.1,0.2c0,0-0.1,0.1-0.1,0.1C90.4,63.4,90.3,63.4,90.3,63.3z M91.2,64.1c0.1,0,0.1,0.1,0.3,0.2
			c-0.1,0.1-0.2,0.2-0.3,0.1c-0.1,0-0.1-0.1-0.2-0.2C91.1,64.2,91.1,64.1,91.2,64.1z M91,65.4c0.1,0,0.2,0.1,0.2,0.2
			c0,0.1-0.1,0.2-0.3,0.3c-0.1-0.2-0.2-0.3-0.2-0.3C90.8,65.5,90.9,65.4,91,65.4z M90.8,66.6c0.1,0.2,0.2,0.3,0.2,0.4
			c-0.1,0.1-0.2,0.2-0.3,0.1c-0.1,0-0.2-0.2-0.2-0.2C90.5,66.8,90.6,66.8,90.8,66.6z"/>
		<path class="st0" d="M90.5,59.7c-0.6,0.7-1,1.6-1.3,2.4c0,0,0,0,0,0c0,0,0,0,0.1,0c0,0,0.1,0,0.1,0c0,0,0,0,0.1,0c0,0,0.1,0,0.1,0
			c0,0,0,0,0,0c0,0,0.1,0,0.1,0c0,0,0,0,0,0c0,0,0.1,0,0.1,0c0,0,0,0,0.1,0c0,0,0.1,0,0.1,0c0,0,0,0,0.1,0c0,0,0.1,0,0.1,0
			c0,0,0,0,0.1,0c0,0,0.1,0,0.1,0c0,0,0,0,0,0c0,0,0.1,0,0.1,0c0,0,0,0,0,0c0,0,0.1,0,0.1,0c0,0,0,0,0,0c0,0,0.1,0,0.1,0
			c0,0,0,0,0.1,0c0,0,0.1,0,0.1,0c0,0,0,0,0.1,0c0,0,0.1,0,0.1,0c0,0,0,0,0,0c0,0,0.1,0,0.1-0.1c1-0.4,2-1,2.8-1.6
			c0.7-0.6,1.4-1.3,1.9-2c0,0,0,0,0,0c0,0,0,0-0.1,0c0,0-0.1,0-0.1,0c0,0,0,0-0.1,0c0,0-0.1,0-0.1,0c0,0,0,0-0.1,0c0,0-0.1,0-0.1,0
			c0,0,0,0,0,0c-0.1,0-0.1,0-0.2-0.1c0,0,0,0,0,0c0,0-0.1,0-0.1,0c0,0,0,0-0.1,0c0,0-0.1,0-0.1,0c0,0,0,0-0.1,0c0,0-0.1,0-0.1,0
			c0,0,0,0-0.1,0c0,0-0.1,0-0.1,0c0,0,0,0,0,0c0,0-0.1,0-0.1-0.1c0,0,0,0,0,0c0,0-0.1,0-0.1,0c0,0,0,0-0.1,0c0,0-0.1,0-0.1,0
			c0,0,0,0-0.1,0c0,0-0.1,0-0.1,0c0,0,0,0,0,0c0,0-0.1,0-0.1-0.1c0,0,0,0,0,0c0,0,0,0,0,0C92.5,57.6,91.3,58.6,90.5,59.7z
			 M90.8,60.8c0,0-0.1-0.1-0.1-0.1c0,0,0.1-0.1,0.1-0.1c0,0,0,0.1,0.1,0.1C90.9,60.7,90.8,60.7,90.8,60.8z"/>
		<path class="st0" d="M94.5,56.7C94.5,56.7,94.5,56.7,94.5,56.7c0.1,0,0.1,0.1,0.1,0.1c0,0,0.1,0,0.1,0c0,0,0,0,0,0
			c0,0,0.1,0,0.1,0.1c0,0,0,0,0,0c0,0,0.1,0,0.1,0c0,0,0,0,0.1,0c0,0,0.1,0,0.1,0c0,0,0,0,0.1,0c0,0,0.1,0,0.1,0c0,0,0,0,0.1,0
			c0,0,0.1,0,0.1,0c0,0,0,0,0,0c0,0,0.1,0,0.1,0c0,0,0,0,0,0c0,0,0.1,0,0.1,0c0,0,0,0,0.1,0c0,0,0.1,0,0.1,0c0,0,0,0,0.1,0
			c0,0,0.1,0,0.1,0c0,0,0,0,0.1,0c0,0,0.1,0,0.1,0c0,0,0,0,0,0c0,0,0.1,0,0.1,0c1.1,0.3,2.2,0.4,3.4,0.4c1.1,0,2.1-0.1,3.1-0.4
			c0,0,0,0,0,0c0,0,0,0,0,0c0,0,0-0.1,0-0.1c0,0,0,0,0,0c0,0,0-0.1,0-0.1c0,0,0,0,0,0c0,0,0-0.1,0-0.1c0,0,0,0,0,0
			c0,0,0-0.1-0.1-0.1c0,0,0,0,0,0c0,0,0-0.1,0-0.1c0,0,0,0,0,0c0,0,0-0.1,0-0.1c0,0,0,0,0,0c0,0,0-0.1,0-0.1c0,0,0,0,0,0
			c0,0,0-0.1,0-0.1c0,0,0,0,0,0c0,0,0-0.1-0.1-0.1c0,0,0,0,0,0c0,0,0-0.1,0-0.1c0,0,0,0,0,0c0,0,0-0.1,0-0.1c0,0,0,0,0,0
			c0,0,0-0.1,0-0.1c0,0,0,0,0,0c0,0,0-0.1,0-0.1c0,0,0,0,0,0c0,0,0,0,0,0c-0.8-0.1-1.5-0.2-2.3-0.2c-0.8,0-1.7,0.1-2.5,0.2
			C96.3,55.9,95.3,56.2,94.5,56.7C94.4,56.7,94.4,56.7,94.5,56.7C94.4,56.7,94.4,56.7,94.5,56.7z"/>
		<path class="st0" d="M93.4,76.6c0.1-0.1,0.2-0.1,0.3-0.2c0,0,0,0,0.1,0.1c0,0-0.1,0.1-0.1,0.1c0.4,0.1,0.8,0.1,1.3,0.2
			c0.1-0.1,0.1-0.1,0.2-0.2c0,0,0.2,0.1,0.2,0.1c0,0,0,0,0,0.1c1.4,0.1,3,0.2,4.8,0.2c0.6,0,1.1,0,1.6,0c-0.1-0.1-0.2-0.2-0.2-0.2
			c0-0.1,0.1-0.2,0.2-0.2c0.1,0,0.2,0.1,0.2,0.2c0,0.1,0,0.1-0.1,0.2c0.5,0,1,0,1.5-0.1c-0.1-0.1-0.1-0.1-0.1-0.2
			c0-0.1,0.1-0.1,0.2-0.2c0.1,0.1,0.2,0.1,0.2,0.2c0,0.1,0,0.1-0.1,0.2c0.5,0,1.1-0.1,1.5-0.1c0,0,0,0,0,0c0-0.1,0.1-0.1,0.1-0.2
			c0.1,0.1,0.1,0.1,0.1,0.2c0,0,0,0,0,0c0.5-0.1,1-0.1,1.5-0.2c0,0,0.1-0.1,0.1-0.2c0,0,0,0.1,0.1,0.1c1.4-0.2,2.5-0.5,3.2-0.9
			c0.2-1.7,0.4-3.3,0.6-4.6c-0.9,0.3-2,0.6-3.4,0.9c0.2,0.2,0.3,0.3,0.3,0.4c0,0.1-0.1,0.2-0.2,0.2c-0.1,0-0.2-0.1-0.2-0.2
			c0-0.1,0.1-0.2,0.1-0.3c-0.5,0.1-1,0.1-1.5,0.2c0.1,0,0.1,0.1,0.1,0.1c0,0.1-0.1,0.1-0.2,0.3c-0.1-0.1-0.2-0.2-0.2-0.3
			c0,0,0-0.1,0.1-0.1c-1.2,0.1-2.5,0.2-3.8,0.3c0.1,0.1,0.2,0.2,0.2,0.3c0,0.1-0.1,0.2-0.2,0.2c-0.1,0-0.2-0.1-0.2-0.2
			c0-0.1,0.1-0.2,0.2-0.3c-0.5,0-1.1,0-1.6,0c-2.7,0-5.3-0.2-7.4-0.5c0,0,0,0,0,0c-0.1,0-0.1,0.1-0.2,0.1c0,0-0.1-0.1-0.1-0.1
			c0,0,0,0,0.1-0.1c-1.2-0.2-2.3-0.5-3.1-0.8l0.6,4.6C90.7,76,91.9,76.3,93.4,76.6z M106.8,75.6c-0.1,0-0.1-0.1-0.2-0.2
			c0.1-0.1,0.2-0.1,0.2-0.1c0.1,0,0.1,0.1,0.3,0.2C106.9,75.5,106.8,75.6,106.8,75.6z M106.6,74c0,0,0.1-0.1,0.1-0.1
			c0,0.1,0.1,0.1,0.1,0.2c0,0-0.1,0.1-0.1,0.1C106.7,74.1,106.6,74,106.6,74z M108.9,73.9c-0.1-0.1-0.2-0.2-0.2-0.2
			c0-0.1,0.1-0.1,0.2-0.2c0.1,0.1,0.2,0.1,0.2,0.2C109.1,73.7,109,73.8,108.9,73.9z M109,72.1c0.1,0.1,0.2,0.1,0.2,0.2
			c0,0.1-0.1,0.2-0.2,0.3c-0.1-0.1-0.2-0.2-0.2-0.2C108.8,72.2,108.9,72.2,109,72.1z M108.2,72.8c0,0,0.1,0.1,0.2,0.2
			c-0.2,0.1-0.3,0.1-0.4,0.1c0,0-0.1-0.1-0.1-0.2C108,72.9,108.1,72.8,108.2,72.8z M108.2,74.2c0.1,0,0.1,0.1,0.2,0.1
			c-0.2,0.1-0.2,0.2-0.3,0.2c-0.1,0-0.1-0.1-0.2-0.2C108,74.3,108.1,74.2,108.2,74.2z M107.6,76.2c-0.1,0-0.2-0.1-0.2-0.2
			c0.1-0.1,0.1-0.1,0.2-0.2c0.1,0.1,0.2,0.2,0.2,0.2C107.8,76.1,107.6,76.3,107.6,76.2z M107.8,74.7c0,0-0.1,0.2-0.2,0.1
			c-0.1,0-0.2-0.1-0.2-0.2c0,0,0.1-0.1,0.2-0.2C107.7,74.6,107.8,74.7,107.8,74.7z M107.2,73.4c0.2,0,0.3,0.2,0.4,0.4
			c0,0.1-0.2,0.2-0.4,0.4c-0.2-0.2-0.3-0.4-0.4-0.6C106.9,73.6,107.1,73.4,107.2,73.4z M106.8,72.4c0.1,0,0.1,0.1,0.2,0.2
			c-0.1,0.1-0.1,0.1-0.3,0.3c-0.1-0.1-0.2-0.2-0.1-0.3C106.6,72.5,106.7,72.4,106.8,72.4z M106.5,72.8c0,0,0.1,0,0.2,0.1
			c-0.1,0.1-0.2,0.1-0.2,0.1c0,0-0.1,0-0.1-0.1C106.4,72.9,106.5,72.9,106.5,72.8z M106.4,74.3c0,0,0.1,0.1,0.1,0.2
			c-0.1,0-0.1,0.1-0.1,0.1c0-0.1-0.1-0.1-0.1-0.2C106.3,74.3,106.4,74.3,106.4,74.3z M106,76.4c-0.1-0.1-0.2-0.2-0.2-0.3
			c0,0,0.1-0.1,0.2-0.2c0.1,0.1,0.2,0.1,0.2,0.2C106.2,76.2,106.1,76.3,106,76.4z M105.9,73.2c0.1,0.1,0.1,0.1,0.2,0.2
			c0,0-0.1,0.1-0.1,0.1c-0.1,0-0.1-0.1-0.2-0.1C105.8,73.3,105.8,73.2,105.9,73.2z M105.5,73.5c0.1,0,0.2,0.1,0.3,0.2
			c-0.2,0.1-0.2,0.2-0.3,0.2c-0.1,0-0.1-0.1-0.2-0.2C105.4,73.6,105.5,73.5,105.5,73.5z M105.1,72.5c0.1,0,0.1,0.1,0.2,0.2
			c-0.1,0.1-0.2,0.1-0.3,0.1c0,0-0.1-0.1-0.1-0.1C104.9,72.6,105,72.5,105.1,72.5z M104.3,73.1c0.1,0,0.1,0.1,0.3,0.2
			c-0.1,0.1-0.2,0.2-0.3,0.2c-0.1,0-0.1-0.1-0.2-0.1C104.1,73.2,104.2,73.1,104.3,73.1z M104.2,75.9c0.1,0.1,0.2,0.2,0.2,0.3
			c-0.1,0.1-0.2,0.2-0.2,0.2c-0.1,0-0.2-0.1-0.2-0.2C104,76.1,104.1,76,104.2,75.9z M102.5,75.9c0.1,0,0.1,0.1,0.2,0.1
			c-0.1,0.1-0.1,0.2-0.2,0.3c-0.1-0.1-0.2-0.2-0.2-0.2C102.4,76,102.5,75.9,102.5,75.9z M101.6,75c0.2,0.2,0.3,0.3,0.3,0.4
			c0,0.1-0.2,0.2-0.2,0.2c-0.1,0-0.2-0.1-0.2-0.2C101.4,75.3,101.5,75.2,101.6,75z M101.3,75.6c0.1,0,0.2,0.1,0.3,0.2
			c-0.2,0.1-0.3,0.2-0.3,0.1c-0.1,0-0.1-0.1-0.2-0.2C101.2,75.7,101.3,75.6,101.3,75.6z M100.4,76.3c0.1,0,0.2,0.1,0.3,0.2
			c-0.2,0.1-0.2,0.2-0.3,0.2c-0.1,0-0.2-0.1-0.2-0.2C100.3,76.4,100.3,76.3,100.4,76.3z M93.3,75.6c-0.1,0-0.2-0.1-0.2-0.2
			c0-0.1,0.1-0.1,0.2-0.3c0.1,0.1,0.2,0.2,0.2,0.3C93.5,75.4,93.4,75.5,93.3,75.6z M95.1,75.6c-0.1-0.1-0.2-0.1-0.2-0.2
			c0-0.1,0.1-0.2,0.2-0.3c0.1,0.1,0.2,0.2,0.2,0.2C95.2,75.4,95.1,75.5,95.1,75.6z M98.8,75c0.1,0,0.1,0,0.3,0.1
			c-0.1,0.1-0.2,0.1-0.2,0.1c-0.1,0-0.1-0.1-0.2-0.1C98.7,75,98.7,75,98.8,75z M98.8,76.3c0.1,0,0.1,0.1,0.3,0.2
			c-0.1,0.1-0.2,0.2-0.3,0.1c-0.1,0-0.2-0.1-0.2-0.2C98.6,76.4,98.7,76.3,98.8,76.3z M97.9,75.6c0,0,0.1,0.1,0.2,0.2
			c-0.1,0-0.1,0.1-0.1,0.1C97.9,75.8,97.8,75.8,97.9,75.6C97.8,75.7,97.9,75.6,97.9,75.6z M97.1,74.9c0.1,0.1,0.1,0.1,0.1,0.1
			c-0.1,0-0.1,0.1-0.2,0.1c0,0-0.1-0.1-0.1-0.1C97,75,97,75,97.1,74.9z M97.1,76.2c0.1,0.1,0.2,0.2,0.2,0.3
			c-0.1,0.1-0.2,0.1-0.3,0.2c0,0-0.2-0.1-0.2-0.2C96.9,76.4,97,76.4,97.1,76.2z M96.4,75.5c0,0,0.1,0.1,0.2,0.2
			c-0.1,0.1-0.2,0.2-0.3,0.2c0,0-0.1-0.1-0.1-0.2C96.2,75.6,96.3,75.6,96.4,75.5z M95.4,76.7c-0.1,0-0.2-0.1-0.2-0.2
			c0,0,0.1-0.1,0.3-0.3c0.1,0.1,0.1,0.2,0.1,0.3C95.6,76.5,95.5,76.7,95.4,76.7z M95.6,75.1c-0.1,0-0.2,0-0.3,0c0,0,0-0.1,0-0.1
			c0.1,0,0.2,0,0.3,0C95.6,75,95.6,75.1,95.6,75.1z M95,72.5c0.1,0,0.1,0.1,0.3,0.2c-0.2,0.1-0.3,0.2-0.3,0.1
			c-0.1,0-0.1-0.1-0.2-0.2C94.9,72.6,95,72.5,95,72.5z M94.2,74.5c0.1,0.1,0.1,0.2,0.1,0.2c0,0.1-0.1,0.1-0.1,0.1
			c0,0-0.1-0.1-0.1-0.2C94,74.7,94.1,74.6,94.2,74.5z M93.4,72.5c0.1,0,0.2,0.1,0.3,0.2c-0.1,0.1-0.3,0.2-0.3,0.2
			c-0.1,0-0.1-0.1-0.2-0.2C93.2,72.6,93.3,72.5,93.4,72.5z M93.3,73.8c0.1,0,0.2,0.1,0.5,0.3c-0.2,0.1-0.4,0.3-0.5,0.3
			c-0.1,0-0.3-0.2-0.3-0.2C93.1,74,93.2,73.8,93.3,73.8z M92.5,76.2c0-0.1-0.1-0.1-0.1-0.2c0,0,0.1-0.1,0.1-0.1
			c0.1,0.1,0.1,0.1,0.1,0.2C92.7,76.2,92.6,76.2,92.5,76.2z M92.6,73.1c0,0,0.1,0.1,0.1,0.1c0,0.1,0,0.1-0.1,0.2
			c-0.1-0.1-0.2-0.1-0.1-0.2C92.4,73.2,92.5,73.2,92.6,73.1z M92.4,74.6c0.1,0,0.1,0,0.3,0.1c-0.1,0.1-0.2,0.2-0.2,0.2
			c-0.1,0-0.1-0.1-0.2-0.1C92.3,74.6,92.4,74.6,92.4,74.6z M91.7,72.4c0.1,0.1,0.2,0.2,0.2,0.3c0,0.1-0.1,0.2-0.2,0.2
			c-0.1,0-0.2-0.1-0.2-0.2C91.5,72.6,91.6,72.5,91.7,72.4z M90.9,71.8c0,0.1,0.1,0.1,0.1,0.2c0,0-0.1,0.1-0.1,0.1
			c0-0.1-0.1-0.2-0.1-0.2C90.8,71.8,90.9,71.8,90.9,71.8z"/>
		<path class="st0" d="M110,76.1c-1.3,0.6-3.4,0.9-5.7,1.2c0.1,0.1,0.2,0.2,0.1,0.2c0,0.1-0.1,0.2-0.2,0.2c-0.1,0-0.2-0.1-0.2-0.2
			c0-0.1,0.1-0.1,0.1-0.2c-0.5,0-0.9,0.1-1.4,0.1c0,0,0,0,0,0c0,0.1-0.1,0.2-0.2,0.2c0,0-0.2-0.1-0.2-0.1c0,0,0,0,0-0.1
			c-0.8,0-1.6,0.1-2.4,0.1c-3.9,0-7.9-0.5-10-1.3l0.6,4.6c0.3,0.1,0.6,0.2,0.9,0.3c0,0,0,0,0,0c0.1-0.1,0.2-0.1,0.2-0.2
			c0,0,0.1,0.1,0.2,0.1c-0.1,0-0.1,0.1-0.2,0.1c1.9,0.5,4.8,0.8,8.2,0.8c1.5,0,2.9-0.1,4.1-0.2c0,0,0,0,0-0.1c0.1,0,0.2,0,0.3-0.1
			c0,0,0,0.1,0,0.1c0.5,0,1-0.1,1.5-0.2c0,0,0.1-0.1,0.1-0.1c0,0,0.1,0,0.1,0c1.4-0.2,2.5-0.5,3.4-0.7
			C109.6,79.4,109.8,77.8,110,76.1z M91.1,80.4c0,0-0.2-0.1-0.3-0.2c0.3-0.2,0.7-0.4,1-0.6c0,0,0,0,0,0c0,0,0,0,0,0
			c-0.1-0.1,0,0,0,0c0,0,0,0,0,0c0,0,0,0-0.1,0C91.6,79.9,91.3,80.1,91.1,80.4z M92.5,77.3c0.1,0.1,0.1,0.1,0.1,0.1
			c0,0.1-0.1,0.1-0.1,0.2c0,0-0.1-0.1-0.1-0.1C92.4,77.4,92.5,77.4,92.5,77.3z M92.5,80.4c0-0.1-0.1-0.1-0.1-0.1
			c0-0.1,0.1-0.1,0.1-0.1c0,0,0.1,0.1,0.1,0.1C92.6,80.2,92.6,80.3,92.5,80.4z M92.4,79.1c0,0-0.2-0.1-0.2-0.2
			c0-0.1,0.1-0.2,0.2-0.3c0.1,0.1,0.2,0.2,0.2,0.2C92.6,78.9,92.5,79,92.4,79.1z M93.3,78.3c-0.1,0-0.1-0.1-0.2-0.1
			c0.1,0,0.1-0.1,0.2-0.1c0.1,0,0.1,0.1,0.3,0.1C93.5,78.2,93.4,78.3,93.3,78.3z M94.2,77.6c0-0.1-0.1-0.1-0.1-0.2
			c0-0.1,0.1-0.1,0.2-0.2c0.1,0.1,0.2,0.2,0.1,0.2C94.3,77.5,94.2,77.6,94.2,77.6z M95,78.3c0,0-0.2-0.1-0.1-0.1
			c0-0.1,0.1-0.1,0.2-0.2c0.1,0.1,0.1,0.2,0.2,0.2C95.1,78.2,95,78.3,95,78.3z M97.8,80.1c-0.1,0-0.1-0.1-0.2-0.1
			c0.1-0.1,0.2-0.1,0.3-0.2c0,0,0.1,0.1,0.2,0.2C98,80,97.9,80.1,97.8,80.1z M101.7,78c0.1,0.1,0.1,0.1,0.1,0.2
			c-0.1,0-0.1,0.1-0.2,0.1c0,0-0.1-0.1-0.1-0.1C101.6,78.1,101.6,78.1,101.7,78z M101.6,81.2c-0.1,0-0.2-0.1-0.3-0.2
			c0.1-0.1,0.2-0.2,0.3-0.2c0.1,0,0.2,0.1,0.3,0.2C101.8,81,101.7,81.1,101.6,81.2z M102.6,81.7c-0.1,0-0.2-0.1-0.2-0.2
			c0,0,0.1-0.2,0.2-0.2c0.1,0,0.2,0.1,0.3,0.2C102.7,81.7,102.6,81.8,102.6,81.7z M103.3,78c0.1,0.1,0.1,0.1,0.2,0.2
			c0,0-0.1,0.1-0.1,0.1c-0.1,0-0.1-0.1-0.2-0.1C103.2,78.1,103.2,78.1,103.3,78z M103.4,81.1c0-0.1-0.1-0.1-0.1-0.2
			c0,0,0.1-0.1,0.1-0.1c0,0.1,0.1,0.1,0.1,0.2C103.5,81,103.5,81,103.4,81.1z M105.9,77.2c0.1,0.1,0.2,0.2,0.2,0.3
			c0,0.1-0.1,0.2-0.2,0.2c-0.1,0-0.2-0.1-0.2-0.2C105.7,77.4,105.8,77.3,105.9,77.2z M105.1,78.1C105.1,78.1,105.1,78.1,105.1,78.1
			c0,0.1,0,0.1,0,0.1C105,78.2,105,78.2,105.1,78.1C105,78.1,105,78.1,105.1,78.1z M104.2,80.4c-0.1,0-0.1-0.1-0.2-0.2
			c0.1-0.1,0.1-0.2,0.2-0.2c0.1,0,0.2,0.1,0.3,0.2C104.4,80.3,104.3,80.4,104.2,80.4z M105.1,81.1c-0.1-0.1-0.1-0.1-0.1-0.1
			c0-0.1,0.1-0.1,0.1-0.2c0,0,0.1,0.1,0.1,0.1C105.2,81,105.1,81,105.1,81.1z M105,79.7c-0.1,0-0.2-0.1-0.2-0.2c0,0,0.1-0.1,0.2-0.2
			c0.1,0.1,0.2,0.2,0.3,0.2C105.2,79.6,105.1,79.8,105,79.7z M105.9,78.6c0.1,0.1,0.2,0.2,0.2,0.2c-0.1,0.1-0.2,0.2-0.3,0.2
			c-0.1,0-0.2-0.1-0.2-0.2C105.6,78.8,105.8,78.7,105.9,78.6z M105.8,80.4c-0.1,0-0.1-0.1-0.2-0.2c0.1-0.1,0.2-0.2,0.3-0.2
			c0.1,0,0.2,0.1,0.3,0.2C106,80.3,105.9,80.4,105.8,80.4z M106.7,79.9c-0.1-0.1-0.2-0.2-0.2-0.3c0-0.1,0.1-0.2,0.2-0.2
			c0,0,0.2,0.1,0.2,0.2C106.9,79.7,106.8,79.7,106.7,79.9z M106.8,78.3c0,0-0.1,0-0.2-0.1c0,0,0.1-0.1,0.1-0.1c0,0,0.1,0,0.2,0.1
			C106.9,78.2,106.9,78.3,106.8,78.3z M107.7,79c0,0-0.1-0.1-0.1-0.1c0,0,0.1-0.1,0.1-0.2c0.1,0.1,0.1,0.1,0.1,0.2
			C107.8,78.9,107.7,78.9,107.7,79z M107.7,77.7c-0.1-0.1-0.1-0.1-0.1-0.1c0-0.1,0.1-0.1,0.1-0.2c0,0,0.1,0.1,0.1,0.1
			C107.8,77.5,107.7,77.6,107.7,77.7z"/>
		<path class="st0" d="M105.8,84.5C105.8,84.4,105.8,84.4,105.8,84.5c0-0.1,0.1-0.2,0.1-0.2c0.1,0,0.2,0.1,0.3,0.2
			c1.4-0.2,2.5-0.5,2.8-0.7h0v0c0,0,0.2-1,0.3-2.5c-1.5,0.5-3.6,0.8-6,1c0.1,0.1,0.1,0.1,0.1,0.2c0,0.1-0.1,0.2-0.2,0.2
			c-0.1,0-0.2-0.1-0.2-0.2c0,0,0-0.1,0.1-0.1c-0.4,0-0.9,0.1-1.4,0.1c0,0,0,0.1,0,0.1c0,0.1-0.1,0.2-0.2,0.2c0,0-0.2-0.1-0.2-0.2
			c0,0,0,0,0-0.1c-0.5,0-1,0-1.5,0c-2.6,0-5.3-0.2-7.4-0.6c0,0,0,0,0,0.1c0,0-0.1-0.1-0.1-0.1c-0.7-0.1-1.3-0.3-1.8-0.5l0,0.3
			c0.1,0,0.1-0.1,0.2-0.1c0,0,0.2,0.1,0.1,0.2c0,0.1-0.1,0.1-0.2,0.2c0,0,0,0-0.1,0l0.2,1.6l0.1,0.3c0,0,0,0,0,0l0,0h0c0,0,0,0,0,0
			c0.7,0.5,5.5,1.3,9.1,1.3C102,85,104.1,84.8,105.8,84.5z M106.8,83.5c0.1,0,0.2,0.1,0.3,0.2c-0.1,0.1-0.2,0.2-0.3,0.2
			c-0.1,0-0.1-0.1-0.2-0.2C106.6,83.7,106.7,83.5,106.8,83.5z M106,82.9c0,0,0.1,0.1,0.1,0.1c-0.1,0-0.1,0.1-0.2,0.1
			c-0.1-0.1-0.1-0.1-0.1-0.1C105.8,83,105.9,82.9,106,82.9z M103.3,83.5c0.1,0.1,0.2,0.2,0.2,0.2c0,0.1-0.1,0.2-0.2,0.2
			c0,0-0.2-0.1-0.2-0.1C103.1,83.7,103.2,83.6,103.3,83.5z M102.5,84.6c0,0-0.2-0.1-0.2-0.2c0-0.1,0.1-0.2,0.2-0.2
			c0.1,0,0.2,0.1,0.3,0.1C102.7,84.5,102.6,84.6,102.5,84.6z M102.5,82.9c0.1,0,0.2,0.1,0.3,0.2c-0.2,0.1-0.2,0.2-0.3,0.2
			c-0.1,0-0.1-0.1-0.2-0.2C102.4,83,102.4,82.9,102.5,82.9z M91.7,83.8c-0.1,0-0.2-0.1-0.2-0.2c0.1-0.1,0.1-0.2,0.2-0.2
			c0.1,0,0.2,0.1,0.3,0.2C91.9,83.8,91.8,83.9,91.7,83.8z M92.5,83.1C92.5,83.1,92.5,83,92.5,83.1c0-0.1,0-0.1,0-0.2
			c0,0.1,0.1,0.1,0.1,0.1C92.6,83,92.5,83.1,92.5,83.1z M93.3,83.9c-0.1,0-0.2-0.1-0.2-0.2c0.1-0.1,0.1-0.2,0.2-0.3
			c0.1,0.1,0.2,0.2,0.2,0.3C93.5,83.8,93.4,83.9,93.3,83.9z M94.3,83.4c-0.1-0.1-0.2-0.2-0.2-0.3c0-0.1,0.1-0.1,0.2-0.2
			c0.1,0.1,0.2,0.1,0.2,0.2C94.5,83.1,94.4,83.2,94.3,83.4z M95,83.9c-0.1,0-0.2-0.1-0.2-0.2c0.1-0.1,0.2-0.2,0.3-0.3
			c0.1,0.1,0.2,0.2,0.2,0.2C95.2,83.8,95.1,83.9,95,83.9z"/>
		<path class="st0" d="M91.4,68.4c0.1-0.1,0.1-0.2,0.2-0.2c0,0,0,0,0.1,0c0-0.2,0.1-0.4,0.1-0.5c-0.9,0.2-2.2,0.5-2.8,0.7
			c0.1,0.3,0.1,0.8,0.2,2.1c2.2,0.8,6.3,1.4,10.7,1.4c4.5,0,8.6-0.5,10.7-1.4c0.1-0.7,0.1-1.2,0.2-1.6l0-0.2c-0.5-0.2-2-0.6-2.9-0.7
			l0.3,1.4c-0.9,0.1-2,0.3-3.2,0.3c0,0,0,0,0.1,0.1c0,0-0.1,0.2-0.1,0.2c-0.1-0.1-0.2-0.1-0.2-0.2c0,0,0,0,0,0
			c-0.4,0-0.9,0.1-1.4,0.1c0,0-0.1,0-0.1,0.1c0,0-0.1,0-0.1,0c-0.5,0-1.1,0-1.6,0c0,0,0,0-0.1,0c0,0,0,0,0,0c-0.5,0-1.1,0-1.6,0
			c-1.7,0-3.3-0.1-4.8-0.1c0,0,0,0,0,0c-0.1,0-0.1,0.1-0.2,0.1c-0.1,0-0.1-0.1-0.2-0.1c0,0,0,0,0.1,0c-0.5,0-0.9-0.1-1.4-0.1
			c0,0,0,0.1,0,0.1c0,0.1-0.1,0.1-0.2,0.1c0,0-0.1-0.1-0.1-0.1c0,0,0-0.1,0-0.1c-0.6-0.1-1.2-0.1-1.7-0.2c0,0,0.1-0.4,0.2-0.9
			C91.6,68.6,91.5,68.5,91.4,68.4z M109.8,70.1c0.1,0,0.1,0.1,0.2,0.1c-0.1,0-0.1,0.1-0.2,0.1c-0.1,0-0.1-0.1-0.2-0.1
			C109.7,70.2,109.8,70.1,109.8,70.1z M108.9,69.4c0.1,0,0.2,0.1,0.3,0.2c-0.2,0.1-0.2,0.2-0.3,0.2c-0.1,0-0.1-0.1-0.2-0.2
			C108.7,69.5,108.8,69.4,108.9,69.4z M108.9,70.7c0.1,0,0.2,0.1,0.3,0.2c-0.1,0.1-0.2,0.2-0.3,0.2c-0.1,0-0.2-0.1-0.2-0.2
			C108.7,70.8,108.8,70.7,108.9,70.7z M108.1,70c0.1,0,0.2,0.1,0.3,0.2c-0.1,0.1-0.2,0.2-0.3,0.1c-0.1,0-0.2-0.1-0.2-0.2
			C108,70.1,108,70,108.1,70z M107.5,70.9c-0.2,0.1-0.2,0.2-0.3,0.2c-0.1,0-0.2-0.1-0.2-0.2c0.1-0.1,0.2-0.1,0.2-0.2
			C107.3,70.7,107.4,70.8,107.5,70.9z M106.8,69.7c0,0,0.1,0.1,0.2,0.1c-0.1,0-0.2,0.1-0.2,0.1c0,0-0.1-0.1-0.1-0.1
			C106.7,69.8,106.8,69.7,106.8,69.7z M106.8,71c0.1,0.1,0.2,0.2,0.2,0.2c0,0.1-0.1,0.1-0.2,0.2c0,0-0.2-0.1-0.1-0.2
			C106.6,71.2,106.7,71.1,106.8,71z M105.6,70.7c0.1,0,0.2,0.1,0.3,0.2c-0.1,0.1-0.2,0.2-0.3,0.2c-0.1,0-0.2-0.1-0.2-0.2
			C105.4,70.8,105.5,70.7,105.6,70.7z M105,71.1c0.1,0,0.2,0.1,0.3,0.2c-0.1,0.1-0.2,0.2-0.2,0.2c-0.1,0-0.2-0.1-0.2-0.2
			C104.9,71.2,104.9,71.1,105,71.1z M104.3,70.3c0,0,0.2,0.1,0.2,0.2c0,0.1-0.1,0.2-0.2,0.3c-0.1-0.1-0.2-0.2-0.2-0.2
			C104.1,70.4,104.2,70.4,104.3,70.3z M102.6,70.4c0.1,0,0.2,0.1,0.3,0.2c-0.1,0.1-0.2,0.2-0.3,0.1c-0.1,0-0.1-0.1-0.2-0.2
			C102.4,70.5,102.5,70.3,102.6,70.4z M101.7,71.1c0.1,0,0.2,0.1,0.3,0.2c-0.1,0.1-0.2,0.2-0.3,0.2c-0.1,0-0.2-0.1-0.3-0.2
			C101.6,71.2,101.6,71.1,101.7,71.1z M95,71.1c0.1,0,0.2,0.1,0.2,0.2c0,0-0.1,0.1-0.1,0.2c-0.1-0.1-0.2-0.2-0.2-0.3
			C94.9,71.2,95,71.1,95,71.1z M94.2,70.4c0.1,0,0.2,0.1,0.3,0.2c-0.2,0.1-0.3,0.2-0.3,0.1c-0.1,0-0.2-0.1-0.2-0.2
			C94.1,70.5,94.2,70.4,94.2,70.4z M93.3,71.1c0,0,0.1,0,0.2,0.1c-0.1,0.1-0.1,0.1-0.2,0.1c-0.1,0-0.1,0-0.2-0.1
			C93.3,71.2,93.3,71.1,93.3,71.1z M92.5,70.3c0.1,0.1,0.2,0.2,0.2,0.3c0,0.1-0.1,0.2-0.2,0.2c0,0-0.2-0.1-0.2-0.2
			C92.3,70.5,92.4,70.4,92.5,70.3z M91.7,69.7c0.1,0.1,0.1,0.2,0.2,0.2c-0.1,0.1-0.2,0.1-0.2,0.2c0,0-0.2-0.1-0.2-0.2
			C91.5,69.8,91.6,69.8,91.7,69.7z"/>
	</g>
	<path class="st1" d="M32.8,84.2c1.8,0.9,3.9,0.3,4.8-1.6c0.4-0.9,0.6-1.7,0.5-2.1l-1.2-0.6c0,0.5-0.1,1.2-0.5,2
		c-0.6,1.2-1.9,1.6-3,1c-1.1-0.6-1.6-1.8-1-3c0.4-0.8,0.9-1.2,1.3-1.5l-1.2-0.6c-0.3,0.2-0.9,0.7-1.3,1.6
		C30.2,81.2,31,83.3,32.8,84.2z"/>
	<path class="st1" d="M36.6,76.8c1.7,1.1,3.8,0.7,5-1c1.2-1.7,0.7-3.9-1-5c-1.7-1.1-3.8-0.7-5,1C34.5,73.6,34.9,75.7,36.6,76.8z
		 M36.8,72.6c0.7-1,2-1.2,3-0.5c1,0.7,1.4,2,0.7,3c-0.7,1-2,1.2-3,0.5C36.4,74.9,36.1,73.6,36.8,72.6z"/>
	<polygon class="st1" points="46.1,69.6 43.1,67 43.7,66.9 49,66.5 49,66.4 43.7,61.8 42.8,62.9 45.7,65.5 45.1,65.6 39.9,66 
		39.8,66.1 45.1,70.7 	"/>
	<polygon class="st1" points="48.2,59.2 52,63.4 53.1,62.4 49.3,58.2 50.8,56.9 49.9,56 46,59.5 46.8,60.5 	"/>
	<polygon class="st1" points="60.2,56.9 59.4,55.9 56.9,57.7 55.9,56.4 58,54.9 57.3,53.9 55.2,55.4 54.3,54.1 56.7,52.4 56,51.4 
		52.4,54 56.5,59.6 	"/>
	<polygon class="st1" points="63.6,54.7 61.7,51.3 62.3,51.4 67.4,52.7 67.4,52.7 64,46.6 62.7,47.3 64.6,50.7 64,50.6 59,49.3 
		58.9,49.3 62.4,55.4 	"/>
	<polygon class="st1" points="69.1,45.6 71.3,50.8 72.7,50.2 70.4,45 72.2,44.2 71.7,43.1 66.8,45.2 67.3,46.3 	"/>
	<path class="st1" d="M82.1,47.1c2.3-0.6,3.3-2.3,2.8-4.3c-0.5-2-2.3-3-4.6-2.4L78.2,41l1.7,6.7L82.1,47.1z M80.7,41.6
		c1.5-0.4,2.5,0.3,2.9,1.6c0.3,1.2-0.3,2.4-1.7,2.7l-0.7,0.2L80,41.8L80.7,41.6z"/>
	<polygon class="st1" points="92.9,45.2 92.8,44 89.7,44.4 89.5,42.7 92,42.4 91.8,41.2 89.3,41.5 89.1,40 92.1,39.6 91.9,38.4 
		87.5,38.9 88.4,45.8 	"/>
	<path class="st1" d="M97,42.1c1,0.3,1.4,0.6,1.4,1c0,0.3-0.3,0.5-0.8,0.6c-0.2,0-0.4,0.1-0.6,0.1c-0.6,0-1.3-0.2-1.8-0.5l0,1.4
		c0.5,0.2,1.3,0.4,2.1,0.3c1.6,0,2.6-0.8,2.5-2.1c0-1.2-0.8-1.7-2-2.1c-0.9-0.3-1.3-0.6-1.3-1c0-0.4,0.4-0.7,1.2-0.7
		c0.6,0,1.3,0.2,1.7,0.4l0-1.4c-0.4-0.2-1.1-0.3-1.8-0.3C96,38,95,38.8,95,40C95.1,41.2,95.8,41.7,97,42.1z"/>
	
		<rect x="100" y="40.9" transform="matrix(5.848976e-02 -0.9983 0.9983 5.848976e-02 55.7823 142.471)" class="st1" width="6.9" height="1.5"/>
	<path class="st1" d="M110.3,46c0.8,0.1,1.8,0.1,2.4-0.2l0.4-2.8l-1.4-0.2l-0.3,1.8c-0.2,0-0.6,0-1,0c-1.3-0.2-2.1-1.3-1.9-2.6
		c0.2-1.2,1.2-2.1,2.6-1.9c0.9,0.1,1.6,0.5,2,0.8l0.2-1.3c-0.4-0.2-1.1-0.6-2.1-0.8c-2.1-0.3-3.9,1-4.2,3
		C106.8,43.9,108.1,45.7,110.3,46z"/>
	<polygon class="st1" points="117.7,43.5 118.1,44 120.7,48.5 120.8,48.5 122.7,41.8 121.3,41.4 120.2,45.2 119.9,44.7 117.2,40.1 
		117.2,40.1 115.3,46.9 116.7,47.3 	"/>
	<polygon class="st1" points="129.3,48.8 131.4,49.8 131.9,48.7 129.8,47.7 130.5,46.2 133,47.4 133.5,46.3 129.7,44.5 126.8,50.8 
		128.1,51.4 	"/>
	<path class="st1" d="M133.1,53.9l1.1-0.8l2.2,1.3l-0.1,1.3l1.3,0.8l0.7-7.8l0,0l-6.5,4.3L133.1,53.9z M136.9,51.1
		c-0.1,0.6-0.2,1.4-0.3,2.2l-1.5-0.9C135.7,52.1,136.5,51.4,136.9,51.1z"/>
	<path class="st1" d="M141.6,59.8c0.8,0.6,1.6,0.9,2,0.9l0.8-1.1c-0.5-0.1-1.2-0.3-1.9-0.8c-1.1-0.8-1.2-2.2-0.4-3.1
		c0.7-1,2.1-1.2,3.2-0.4c0.7,0.5,1,1.1,1.2,1.5l0.8-1.1c-0.2-0.4-0.5-1-1.3-1.6c-1.7-1.3-3.9-1-5.1,0.6
		C139.7,56.3,140,58.5,141.6,59.8z"/>
	<polygon class="st1" points="146.3,63.5 147.3,64.5 151.2,60.4 152.6,61.8 153.5,60.9 149.6,57.2 148.8,58.1 150.2,59.4 	"/>
	<path class="st1" d="M152.3,70.1c1.3,1.6,3.5,1.8,5.1,0.5c1.5-1.3,1.8-3.5,0.4-5.1c-1.3-1.6-3.6-1.8-5.1-0.5
		C151.2,66.3,151,68.5,152.3,70.1z M153.7,66.2c0.9-0.8,2.3-0.8,3.1,0.2c0.8,1,0.6,2.3-0.4,3.1c-1,0.8-2.3,0.8-3.1-0.2
		C152.6,68.3,152.8,67,153.7,66.2z"/>
	<path class="st1" d="M157,76.2l2-1.3l0.5,0.8l-1.4,2.3l0.8,1.3l1.5-2.7c0.7,0.5,1.5,0.6,2.4,0c1.2-0.8,1.3-2.1,0.5-3.5l-1.3-2.1
		l-5.8,3.7L157,76.2z M161.8,73.2l0.5,0.9c0.4,0.6,0.3,1.2-0.3,1.5c-0.6,0.4-1.1,0.2-1.5-0.4l-0.6-0.9L161.8,73.2z"/>
	<polygon class="st1" points="161,83.1 161.6,84.4 164,83.2 168.9,83.6 168.2,82.1 165,81.9 166.8,79.3 166.1,77.8 163.4,81.9 	"/>
	<path class="st1" d="M38.4,150.5C38.4,150.5,38.4,150.4,38.4,150.5c0-0.1,0-0.1,0-0.2c0.1-0.6,0.1-1.2,0.1-1.9c0,0,0,0,0,0.1
		c-0.1-0.1-0.2-0.2-0.2-0.3c0,0,0.1-0.1,0.1-0.2c0,0,0.1,0.1,0.1,0.1c0-0.6,0-1.2-0.1-1.7c-0.1-0.1-0.2-0.2-0.1-0.2
		c0,0,0.1-0.1,0.1-0.1c-0.9-6.4-6-10.8-13.7-11.1c-0.1,0-0.1,0.1-0.2,0.1c0,0-0.1,0-0.1-0.1c-0.2,0-0.4,0-0.5,0H22
		c0,0.1-0.1,0.1-0.1,0.2c-0.1-0.1-0.1-0.1-0.2-0.2h-2.3c0,0,0,0,0,0c0,0,0,0,0,0h-2.4c0,0,0,0,0,0c0,0,0,0,0,0h-1.6v5
		c0.1-0.1,0.2-0.2,0.3-0.2c0.1,0,0.2,0.1,0.4,0.3c-0.2,0.1-0.3,0.2-0.5,0.2c-0.1,0-0.1-0.1-0.2-0.2v2c0.1-0.1,0.2-0.2,0.4-0.2
		c0.1,0,0.2,0.1,0.4,0.3c-0.2,0.1-0.4,0.2-0.5,0.2c-0.1,0-0.2-0.2-0.3-0.3v2c0.1-0.1,0.2-0.2,0.3-0.2c0.1,0,0.2,0.1,0.5,0.3
		c-0.2,0.1-0.4,0.3-0.5,0.3c-0.1,0-0.2-0.1-0.3-0.2v2c0-0.1,0.2-0.3,0.2-0.2c0.1,0.1,0.3,0.2,0.4,0.3c0,0-0.1,0.2-0.3,0.3
		c-0.2-0.1-0.3-0.2-0.4-0.3v6.2c0.1-0.1,0.2-0.2,0.3-0.2c0.1,0,0.2,0.1,0.4,0.3c-0.2,0.1-0.3,0.3-0.5,0.3c-0.1,0-0.1-0.1-0.2-0.2v9
		h8.6C32,161.6,37.4,157.1,38.4,150.5z M37.1,153.8c-0.1,0-0.3-0.2-0.3-0.2c0-0.1,0.2-0.2,0.3-0.4c0.2,0.2,0.3,0.3,0.3,0.4
		C37.3,153.7,37.2,153.8,37.1,153.8z M37.3,151.7c-0.1,0-0.2-0.2-0.4-0.2c0.1-0.1,0.2-0.3,0.3-0.3c0.1,0,0.3,0.1,0.5,0.2
		C37.5,151.6,37.4,151.7,37.3,151.7z M37.1,147.6c-0.1,0-0.2-0.2-0.2-0.3c0.1-0.1,0.2-0.2,0.4-0.2c0.1,0,0.2,0.1,0.4,0.2
		C37.4,147.5,37.2,147.6,37.1,147.6z M37.5,145.3C37.5,145.3,37.5,145.3,37.5,145.3C37.5,145.3,37.4,145.3,37.5,145.3
		c-0.4,0.5-0.8,0.9-1.2,1.3c0,0-0.3-0.2-0.4-0.3C36.4,145.9,36.9,145.6,37.5,145.3C37.4,145.3,37.4,145.3,37.5,145.3
		C37.5,145.3,37.5,145.3,37.5,145.3C37.3,145.1,37.5,145.2,37.5,145.3z M36,148c0,0,0.2,0.2,0.2,0.2c-0.1,0.1-0.2,0.2-0.3,0.3
		c-0.1,0-0.2-0.1-0.4-0.2C35.7,148.2,35.8,148.1,36,148z M15.6,135.7c0.1,0,0.2,0.1,0.2,0.2c0,0.1-0.1,0.2-0.2,0.4
		c-0.2-0.2-0.3-0.3-0.3-0.3C15.4,135.8,15.5,135.7,15.6,135.7z M15.6,138.1c-0.1,0-0.1-0.1-0.2-0.1c0.1-0.1,0.1-0.1,0.3-0.2
		c0.1,0.1,0.1,0.1,0.2,0.2C15.7,138,15.7,138,15.6,138.1z M15.6,150.6c-0.1-0.1-0.2-0.1-0.2-0.2c0.1-0.1,0.2-0.1,0.3-0.2
		c0,0,0.1,0.1,0.2,0.1C15.7,150.5,15.7,150.5,15.6,150.6z M15.5,148.9c-0.1-0.2-0.2-0.4-0.2-0.6c0-0.1,0.2-0.2,0.2-0.2
		c0.2,0.1,0.3,0.2,0.4,0.3C15.9,148.4,15.8,148.5,15.5,148.9z M24.5,136.7c0.1,0,0.3,0.1,0.5,0.3c-0.2,0.1-0.4,0.3-0.5,0.3
		c-0.1,0-0.2-0.2-0.3-0.3C24.2,136.8,24.3,136.7,24.5,136.7z M24.8,139c0,0.1-0.1,0.3-0.2,0.5c-0.3-0.4-0.4-0.5-0.4-0.6
		c0-0.1,0.2-0.3,0.3-0.2C24.6,138.7,24.8,138.9,24.8,139z M23.1,137.6c0.1,0.2,0.3,0.3,0.3,0.4c0,0.1-0.2,0.2-0.3,0.3
		c-0.1-0.1-0.3-0.2-0.3-0.3C22.8,137.9,23,137.8,23.1,137.6z M22,136.6c0.1,0,0.3,0.1,0.5,0.3c-0.2,0.1-0.4,0.3-0.5,0.3
		c-0.1,0-0.2-0.2-0.3-0.3C21.8,136.8,21.9,136.6,22,136.6z M21.8,138.8c0.2,0,0.3,0.1,0.6,0.3c-0.2,0.1-0.4,0.2-0.5,0.2
		c-0.1,0-0.2-0.2-0.4-0.3C21.7,138.9,21.8,138.7,21.8,138.8z M20.6,135.7c0.1,0,0.2,0.1,0.2,0.2c-0.1,0-0.1,0.1-0.2,0.2
		c-0.1-0.1-0.2-0.2-0.2-0.3C20.5,135.8,20.5,135.7,20.6,135.7z M20.9,137.9c-0.2,0.1-0.3,0.1-0.4,0.1c0,0-0.1-0.1-0.2-0.1
		c0.1-0.1,0.2-0.1,0.3-0.1C20.7,137.8,20.8,137.8,20.9,137.9z M19.8,143.2c-0.2,0.1-0.3,0.1-0.4,0.1c0,0-0.1-0.1-0.2-0.1
		c0.1-0.1,0.2-0.1,0.3-0.2C19.6,143,19.6,143.1,19.8,143.2z M19.4,141.6c-0.1-0.3-0.2-0.4-0.2-0.5c0-0.1,0.2-0.3,0.2-0.3
		c0.1,0.1,0.3,0.2,0.4,0.3C19.8,141.1,19.6,141.3,19.4,141.6z M19.4,136.7c0,0,0.1,0.1,0.3,0.2c-0.2,0.1-0.3,0.1-0.4,0.2
		c0,0-0.2-0.1-0.1-0.1C19.2,136.9,19.3,136.8,19.4,136.7z M18.1,135.7c0.1,0,0.2,0.1,0.2,0.1c0,0.1-0.1,0.2-0.1,0.3
		c-0.2-0.2-0.3-0.2-0.3-0.3C17.9,135.8,18,135.8,18.1,135.7z M18.3,137.9c0,0.1-0.1,0.1-0.2,0.2c-0.1-0.1-0.2-0.1-0.3-0.2
		c0.1-0.1,0.1-0.2,0.2-0.1C18.2,137.8,18.2,137.9,18.3,137.9z M18.1,139.8c0.1,0,0.2,0.1,0.4,0.2c-0.2,0.1-0.3,0.3-0.5,0.3
		c-0.1,0-0.2-0.2-0.3-0.2C17.9,140,18,139.9,18.1,139.8z M18.1,141.7c0.2,0.2,0.3,0.3,0.3,0.4c0,0.1-0.2,0.2-0.3,0.3
		c-0.1,0-0.3-0.2-0.3-0.2C17.8,142,17.9,141.9,18.1,141.7z M16.8,136.7c0.1,0,0.2,0.1,0.4,0.3c-0.2,0.1-0.3,0.2-0.5,0.3
		c-0.1,0-0.2-0.2-0.3-0.2C16.5,136.9,16.6,136.7,16.8,136.7z M16.9,149.1c0.1,0.1,0.2,0.2,0.2,0.3c0,0-0.1,0.1-0.1,0.2
		c-0.1-0.1-0.2-0.2-0.2-0.3C16.7,149.3,16.8,149.2,16.9,149.1z M16.6,147.3c0.1-0.1,0.1-0.1,0.2-0.2c0.1,0.1,0.2,0.2,0.2,0.2
		c0,0-0.1,0.1-0.1,0.2C16.8,147.5,16.7,147.4,16.6,147.3z M16.8,145.6c-0.1-0.1-0.2-0.2-0.2-0.3c0-0.1,0.1-0.2,0.2-0.2
		c0.1,0.1,0.2,0.1,0.2,0.2C17,145.4,16.9,145.5,16.8,145.6z M16.8,140.8c0.1,0,0.3,0.1,0.3,0.2c0,0.1-0.1,0.2-0.4,0.7
		c-0.1-0.3-0.2-0.5-0.2-0.6C16.5,141,16.6,140.8,16.8,140.8z M16.4,139c0-0.1,0.2-0.3,0.3-0.3c0.1,0,0.3,0.2,0.3,0.2
		c0,0.1-0.2,0.2-0.3,0.4C16.6,139.2,16.4,139.1,16.4,139z M16.7,143c0.1,0,0.3,0.1,0.3,0.2c0,0.1-0.1,0.2-0.3,0.5
		c-0.1-0.3-0.3-0.4-0.3-0.5C16.4,143.1,16.6,143,16.7,143z M15.6,154.9c-0.1,0-0.2-0.2-0.3-0.2c0.1-0.1,0.2-0.3,0.3-0.3
		c0.1,0,0.2,0.1,0.5,0.3C15.8,154.8,15.7,154.9,15.6,154.9z M16.7,158c-0.1,0-0.2-0.2-0.4-0.3c0.1-0.1,0.2-0.2,0.3-0.2
		c0.1,0,0.3,0.1,0.5,0.3C17,157.9,16.8,158.1,16.7,158z M16.8,153.7c0,0-0.2-0.1-0.1-0.2c0-0.1,0.1-0.2,0.2-0.2
		c0.1,0,0.2,0.1,0.4,0.1C17,153.6,16.9,153.7,16.8,153.7z M18.3,150.8c-0.1-0.1-0.3-0.2-0.4-0.3c0,0,0.1-0.2,0.3-0.4
		c0.2,0.2,0.3,0.3,0.3,0.5C18.5,150.7,18.3,150.9,18.3,150.8z M18.4,154.6c-0.1,0.1-0.2,0.2-0.3,0.4c-0.2-0.2-0.3-0.3-0.3-0.4
		c0-0.1,0.2-0.3,0.3-0.3C18.2,154.4,18.3,154.5,18.4,154.6z M18.1,148.5c-0.1,0-0.1-0.1-0.2-0.2c0.1,0,0.1-0.1,0.2-0.1
		c0.1,0.1,0.2,0.1,0.2,0.2C18.2,148.5,18.2,148.5,18.1,148.5z M18,152.2c0.1,0.2,0.2,0.3,0.3,0.4c-0.1,0.1-0.2,0.2-0.4,0.3
		c0,0-0.3-0.2-0.3-0.3C17.7,152.4,17.9,152.3,18,152.2z M18.1,157c-0.1,0-0.2-0.2-0.3-0.3c0.1-0.1,0.2-0.3,0.3-0.3
		c0.1,0,0.2,0.1,0.5,0.3C18.3,156.9,18.2,157,18.1,157z M18.1,144.4c-0.1,0-0.2-0.1-0.3-0.2c0.1-0.1,0.2-0.3,0.3-0.3
		c0.1,0,0.3,0.1,0.5,0.2C18.3,144.3,18.2,144.4,18.1,144.4z M19.3,138.8c0.1,0.1,0.2,0.2,0.2,0.3c0,0.1-0.1,0.1-0.2,0.3
		c-0.1-0.2-0.2-0.3-0.2-0.4C19.1,138.9,19.2,138.8,19.3,138.8z M19.3,151.3c0.1,0,0.1,0.1,0.3,0.3c-0.1,0.1-0.2,0.1-0.3,0.1
		c-0.1,0-0.2-0.2-0.2-0.2C19.1,151.4,19.3,151.3,19.3,151.3z M19.3,149.2c0.1,0.1,0.2,0.2,0.2,0.2c0,0-0.1,0.1-0.2,0.2
		c-0.1-0.1-0.2-0.2-0.2-0.3C19.2,149.3,19.3,149.3,19.3,149.2z M19.2,147.4c0-0.1,0-0.1,0.1-0.3c0.1,0.1,0.2,0.2,0.2,0.3
		c0,0.1-0.1,0.1-0.1,0.2C19.3,147.5,19.2,147.4,19.2,147.4z M19.5,153.8c-0.1,0-0.2-0.2-0.4-0.2c0.1-0.1,0.2-0.3,0.2-0.2
		c0.1,0,0.3,0.1,0.5,0.3C19.7,153.7,19.6,153.8,19.5,153.8z M19.4,145.5c-0.1,0-0.2-0.2-0.3-0.2c0.1-0.1,0.2-0.2,0.3-0.2
		c0.1,0,0.2,0.1,0.5,0.2C19.7,145.4,19.6,145.5,19.4,145.5z M20.7,154.9c-0.1-0.1-0.3-0.2-0.3-0.3c0-0.1,0.2-0.2,0.3-0.4
		c0.1,0.2,0.2,0.3,0.3,0.4C21,154.7,20.7,154.9,20.7,154.9z M23.8,156.9H21v-4.1c-0.2,0.1-0.3,0.2-0.4,0.2c-0.1,0-0.2-0.2-0.3-0.3
		c0.1-0.1,0.3-0.2,0.4-0.2c0.1,0,0.2,0.1,0.4,0.2v-8.3c-0.2,0.1-0.3,0.2-0.4,0.2c-0.1,0-0.2-0.2-0.3-0.3c0.1-0.1,0.2-0.2,0.4-0.2
		c0.1,0,0.2,0.1,0.3,0.2v-4c-0.1,0.1-0.2,0.2-0.2,0.2c-0.1-0.1-0.3-0.2-0.4-0.3c0.1-0.1,0.2-0.2,0.3-0.2c0.1,0,0.2,0.1,0.3,0.2v-0.2
		h2.7c5.8,0,9.1,3.7,9.1,8.5C32.8,153.2,29.5,156.9,23.8,156.9z M20.6,148.2c0.1,0.1,0.2,0.2,0.2,0.3c-0.1,0.1-0.2,0.2-0.2,0.2
		c-0.1,0-0.2-0.1-0.3-0.1C20.4,148.4,20.5,148.3,20.6,148.2z M20.4,146.3c0.1-0.1,0.2-0.2,0.3-0.4c0.1,0.2,0.3,0.3,0.2,0.3
		c-0.1,0.1-0.2,0.2-0.3,0.3C20.6,146.5,20.4,146.3,20.4,146.3z M20.8,150.4c0,0.1-0.1,0.2-0.1,0.3c-0.2-0.2-0.3-0.2-0.3-0.3
		c0.1-0.1,0.2-0.1,0.3-0.2C20.7,150.3,20.8,150.4,20.8,150.4z M20.3,142.1c0-0.1,0.2-0.2,0.3-0.4c0.1,0.2,0.3,0.3,0.3,0.4
		c0,0.1-0.2,0.3-0.3,0.3C20.4,142.4,20.3,142.2,20.3,142.1z M33.3,148.5c-0.1,0-0.1-0.1-0.2-0.1c0.1-0.1,0.1-0.1,0.2-0.2
		c0.1,0.1,0.1,0.1,0.2,0.2C33.5,148.4,33.4,148.5,33.3,148.5z M34.6,148.1c-0.1-0.3-0.2-0.5-0.2-0.7c0-0.1,0.2-0.3,0.3-0.3
		c0.2,0.1,0.3,0.2,0.4,0.3C35,147.5,34.9,147.7,34.6,148.1z"/>
	<rect x="44.1" y="135" class="st1" width="5.7" height="26.6"/>
	<path class="st1" d="M78.8,149.4h-2c0,0-0.1,0.1-0.1,0.1c0,0,0-0.1-0.1-0.1h-3.3v4.8c0,0,0,0,0.1,0c0,0,0,0-0.1,0v2.2
		c-0.9,0.3-2.3,0.5-3.6,0.5c-5.2,0-8.6-3.8-8.6-8.7c0-1.8,0.5-3.5,1.4-4.9c-0.1,0-0.1,0.1-0.2,0.1c-0.1,0-0.2-0.2-0.3-0.2
		c0.2-0.2,0.3-0.3,0.5-0.4c0,0,0.2,0.1,0.3,0.2c0.2-0.3,0.5-0.6,0.8-0.9c0,0,0-0.1,0-0.1c0,0,0.1-0.1,0.2-0.2c0,0,0,0.1,0.1,0.1
		c0.3-0.3,0.6-0.5,1-0.8c0,0,0-0.1-0.1-0.1c0.1-0.1,0.2-0.2,0.3-0.2c0,0,0.1,0,0.1,0.1c1.3-0.8,3-1.3,4.9-1.3c0.1,0,0.1,0,0.2,0
		c-0.1,0-0.1-0.1-0.1-0.1c0-0.1,0.1-0.2,0.3-0.4c0.2,0.2,0.3,0.3,0.3,0.4c0,0-0.1,0.1-0.1,0.2c1.1,0,2.2,0.2,3.1,0.4
		c0,0-0.1-0.1-0.1-0.1c0.1-0.1,0.2-0.2,0.3-0.2c0.1,0,0.3,0.1,0.5,0.2c-0.1,0.1-0.2,0.1-0.3,0.2c1.5,0.4,2.7,0.8,3.7,1.3
		c0,0,0.1-0.1,0.1-0.1c0,0,0,0,0,0V140c0,0,0,0,0,0.1c-0.1-0.2-0.3-0.3-0.3-0.3c0-0.1,0.2-0.3,0.3-0.3c0,0,0,0,0,0v-1.6
		c0,0-0.1,0-0.1,0c-0.1,0-0.2-0.2-0.3-0.2c0.1-0.1,0.2-0.2,0.3-0.3c0,0,0,0,0,0v-1c-0.5-0.2-1.3-0.6-2.1-0.8c0,0,0,0,0,0
		c-0.2,0.1-0.4,0.3-0.5,0.3c-0.1,0-0.2-0.2-0.4-0.3c0.1,0,0.1-0.1,0.2-0.2c-0.7-0.2-1.5-0.4-2.4-0.5c0,0,0,0,0.1,0.1
		c-0.1,0.1-0.2,0.2-0.2,0.2c-0.1-0.1-0.2-0.1-0.1-0.2c0,0,0.1-0.1,0.1-0.1c-0.3,0-0.6-0.1-0.9-0.1c-0.1,0-0.1,0-0.2,0
		c0,0-0.1,0-0.1-0.1c-0.4,0-0.8-0.1-1.2-0.1c0.1,0.1,0.1,0.2,0.1,0.3c0,0.1-0.1,0.2-0.2,0.3c-0.1-0.1-0.2-0.1-0.2-0.2
		c0-0.1,0.1-0.2,0.2-0.3c-0.2,0-0.3,0-0.5,0c-0.3,0-0.6,0-0.9,0c0,0.1-0.1,0.1-0.2,0.3l0-0.3c-4.8,0.3-8.7,2.8-11,6.3
		c0,0,0.1,0.1,0.1,0.1c0,0.1-0.1,0.2-0.2,0.2c0,0,0,0,0,0c-1.2,2.1-1.9,4.5-1.9,7.1c0,7.8,5.9,13.8,14.3,13.8c3.3,0,6.7-0.8,9.1-2
		V149.4z M76.7,136.3c0.1,0,0.2,0.1,0.2,0.2c0,0.1-0.1,0.2-0.2,0.4c-0.2-0.2-0.3-0.3-0.3-0.3C76.5,136.5,76.6,136.4,76.7,136.3z
		 M77,138.5c-0.1,0-0.2,0.1-0.2,0.1c-0.1,0-0.1-0.1-0.2-0.1c0.1-0.1,0.1-0.1,0.3-0.2C76.9,138.4,76.9,138.5,77,138.5z M76.7,140.4
		c0.1,0,0.2,0.1,0.4,0.3c-0.2,0.1-0.3,0.2-0.5,0.2c-0.1,0-0.2-0.2-0.3-0.3C76.5,140.6,76.6,140.4,76.7,140.4z M74.5,136.5
		c-0.2,0.1-0.3,0.2-0.3,0.2c-0.1,0-0.2-0.1-0.2-0.2c0.1-0.1,0.2-0.2,0.2-0.2C74.3,136.3,74.4,136.4,74.5,136.5z M73.9,135.7
		c0.1,0.1,0.1,0.2,0.2,0.2c-0.1,0-0.2,0.1-0.2,0.1c-0.1,0-0.1-0.1-0.2-0.1C73.7,135.8,73.8,135.8,73.9,135.7z M73.7,137.7
		c0.1,0,0.2,0.1,0.3,0.1c-0.1,0.1-0.2,0.2-0.3,0.2c-0.1,0-0.2-0.1-0.3-0.1C73.6,137.9,73.7,137.7,73.7,137.7z M70,139.3
		c-0.1,0-0.2-0.1-0.3-0.2c0.1-0.1,0.2-0.3,0.3-0.3c0.1,0,0.2,0.1,0.4,0.2C70.2,139.1,70.1,139.2,70,139.3z M70.4,137.8
		c-0.1,0-0.2-0.2-0.3-0.3c0.1-0.1,0.2-0.2,0.4-0.2c0.1,0,0.2,0.1,0.4,0.3C70.6,137.7,70.5,137.8,70.4,137.8z M72.8,139.9
		c-0.1,0-0.3-0.2-0.3-0.3c0-0.1,0.2-0.2,0.3-0.4c0.1,0.2,0.3,0.3,0.3,0.4C73.1,139.7,72.9,139.9,72.8,139.9z M72.4,138.9
		c0,0,0.1-0.1,0.2-0.2c0.1,0.1,0.1,0.2,0.2,0.3c0,0-0.1,0.1-0.2,0.1C72.5,139.1,72.4,139,72.4,138.9z M72.8,137.9
		c-0.1-0.2-0.3-0.3-0.3-0.4c0.1-0.1,0.2-0.3,0.4-0.3c0.1,0,0.3,0.2,0.3,0.3C73.2,137.7,73,137.8,72.8,137.9z M72.9,135.1
		c0.2,0.2,0.3,0.3,0.3,0.4c0,0-0.2,0.2-0.2,0.2c-0.1-0.1-0.3-0.2-0.4-0.3C72.7,135.3,72.8,135.2,72.9,135.1z M72.5,136.7
		c0.1,0.1,0.2,0.1,0.2,0.2c0,0.1-0.1,0.2-0.1,0.3c-0.1-0.1-0.2-0.2-0.2-0.3C72.3,136.9,72.4,136.8,72.5,136.7z M71.5,138.9
		c-0.1,0-0.2-0.2-0.4-0.2c0.1-0.1,0.2-0.2,0.3-0.2c0.1,0,0.3,0.1,0.5,0.2C71.7,138.7,71.6,138.9,71.5,138.9z M71.8,136.4
		c0,0.1-0.1,0.1-0.1,0.2c-0.1-0.1-0.1-0.1-0.2-0.2c0,0,0.1-0.1,0.1-0.2C71.7,136.3,71.8,136.3,71.8,136.4z M71.4,135.7
		c0,0,0.1,0.1,0.2,0.2c-0.2,0.1-0.3,0.1-0.4,0.1c-0.1,0-0.1-0.1-0.2-0.1C71.2,135.8,71.3,135.8,71.4,135.7z M71.4,137.8
		c0.1,0,0.1,0.1,0.2,0.1c-0.1,0.1-0.2,0.1-0.3,0.2c-0.1-0.1-0.1-0.1-0.2-0.2C71.2,137.9,71.3,137.8,71.4,137.8z M70.4,135.2
		c0.1,0,0.3,0.2,0.6,0.3c-0.3,0.2-0.5,0.3-0.6,0.3c-0.1,0-0.3-0.2-0.4-0.3C70.1,135.4,70.2,135.2,70.4,135.2z M69.9,136.6
		c0.1,0,0.3,0.1,0.5,0.3c-0.2,0.1-0.4,0.3-0.5,0.3c-0.1,0-0.2-0.2-0.3-0.3C69.7,136.8,69.8,136.7,69.9,136.6z M69.4,135.1
		c0.1,0,0.2,0.1,0.2,0.2c0,0.1-0.1,0.2-0.2,0.3c-0.1-0.1-0.2-0.2-0.2-0.3C69.1,135.2,69.3,135.1,69.4,135.1z M69.3,136.3
		c0.1,0.1,0.2,0.2,0.3,0.3c-0.1,0.1-0.2,0.2-0.3,0.2c-0.1,0-0.2-0.1-0.2-0.2C69.1,136.6,69.2,136.5,69.3,136.3z M69,138
		c0,0.1-0.2,0.2-0.3,0.4c-0.1-0.2-0.3-0.3-0.2-0.4c0-0.1,0.2-0.2,0.3-0.3C68.8,137.7,69,137.9,69,138z M68.5,135.9c0,0,0.1,0,0.1,0
		c-0.1,0.1-0.1,0.1-0.1,0.1C68.5,136,68.4,136,68.5,135.9C68.4,135.9,68.4,135.9,68.5,135.9z M67.5,139.2c-0.1,0-0.2-0.1-0.3-0.2
		c0.1-0.1,0.2-0.2,0.4-0.3c0,0,0.2,0.1,0.3,0.3C67.7,139.1,67.6,139.2,67.5,139.2z M67.5,136.6c0.1,0,0.2,0.1,0.4,0.2
		c-0.2,0.1-0.3,0.3-0.4,0.3c-0.1,0-0.2-0.1-0.3-0.2C67.2,136.8,67.3,136.7,67.5,136.6z M66.2,140.3c-0.1-0.1-0.2-0.1-0.2-0.2
		c0,0,0.1-0.1,0.2-0.3c0.1,0.1,0.2,0.2,0.2,0.3C66.4,140.1,66.3,140.2,66.2,140.3z M66.2,137.8c0.1,0.1,0.2,0.2,0.2,0.2
		c0,0.1-0.1,0.2-0.2,0.2c-0.1,0-0.2-0.1-0.1-0.1C66,138,66.1,137.9,66.2,137.8z M64.9,138.7c0.1,0,0.3,0.1,0.5,0.2
		c-0.2,0.1-0.3,0.3-0.4,0.3c-0.1,0-0.3-0.1-0.4-0.2C64.7,138.9,64.8,138.7,64.9,138.7z M63.8,137.9c0,0,0.1,0.1,0.2,0.2
		c-0.1,0.1-0.2,0.1-0.2,0.2c0-0.1-0.1-0.2-0.1-0.2C63.6,137.9,63.7,137.9,63.8,137.9z M63.7,139.9c0,0.1,0.1,0.2,0.1,0.2
		c0,0-0.1,0.1-0.2,0.2c-0.1-0.1-0.2-0.2-0.2-0.3C63.6,140,63.7,139.9,63.7,139.9z M62.4,136.6c0.1,0,0.2,0.2,0.4,0.2
		c-0.1,0.1-0.2,0.2-0.3,0.4c-0.1-0.2-0.3-0.3-0.3-0.4C62.1,136.8,62.3,136.6,62.4,136.6z M62.4,138.8c0.1,0,0.2,0.2,0.5,0.3
		c-0.2,0.1-0.3,0.2-0.4,0.2c-0.1,0-0.2-0.2-0.4-0.3C62.2,138.9,62.3,138.8,62.4,138.8z M57.3,143.1c0,0,0.1,0,0.1,0.1
		c-0.1,0-0.1,0.1-0.2,0.1c0,0-0.1-0.1-0.1-0.1C57.3,143.1,57.3,143.1,57.3,143.1z M55.9,148.5c0,0,0-0.1,0-0.2
		c0.1,0,0.3-0.1,0.4-0.1c0,0.1,0,0.1,0,0.2C56.2,148.5,56.1,148.5,55.9,148.5z M56.1,146.5c-0.1,0-0.2-0.2-0.3-0.2
		c0.1-0.1,0.2-0.3,0.3-0.3c0.1,0,0.3,0.1,0.5,0.2C56.3,146.3,56.2,146.5,56.1,146.5z M57.3,147.6c-0.1-0.1-0.2-0.2-0.2-0.2
		c0-0.1,0.1-0.2,0.2-0.3c0.1,0,0.2,0.1,0.2,0.1C57.5,147.4,57.4,147.5,57.3,147.6z M57.3,145.5c-0.1,0-0.3-0.1-0.4-0.3
		c0,0,0.1-0.2,0.2-0.4c0.2,0.2,0.3,0.2,0.4,0.4C57.5,145.3,57.3,145.5,57.3,145.5z M58.6,139.8c0.1,0.1,0.2,0.2,0.3,0.3
		c0,0.1-0.1,0.2-0.2,0.3c-0.2-0.2-0.3-0.3-0.3-0.4C58.4,140,58.5,139.9,58.6,139.8z M58.6,141.7c0.1,0.2,0.3,0.3,0.3,0.4
		c0,0.1-0.2,0.3-0.3,0.3c-0.1,0-0.3-0.2-0.3-0.3C58.2,142,58.4,141.9,58.6,141.7z M58.5,143.8c0.1,0.2,0.2,0.3,0.3,0.4
		c-0.1,0.1-0.2,0.3-0.4,0.3c-0.1,0-0.3-0.2-0.3-0.3C58.2,144.1,58.4,144,58.5,143.8z M58.6,146c0.1,0,0.2,0.2,0.4,0.3
		c-0.3,0.1-0.4,0.2-0.6,0.2c-0.1,0-0.2-0.2-0.3-0.3C58.3,146.1,58.5,146,58.6,146z M58.7,148c0.1,0,0.2,0.1,0.4,0.2
		c-0.2,0.1-0.3,0.3-0.4,0.3c-0.1,0-0.2-0.1-0.3-0.2C58.5,148.2,58.5,148.1,58.7,148z M58.8,150.4c-0.1,0.1-0.2,0.1-0.3,0.2
		c-0.1-0.1-0.1-0.1-0.2-0.2c0.1-0.1,0.2-0.1,0.3-0.2C58.7,150.3,58.8,150.4,58.8,150.4z M58.7,152.8c-0.1-0.1-0.2-0.2-0.3-0.3
		c0.1-0.1,0.2-0.2,0.3-0.2c0.1,0,0.2,0.1,0.5,0.3C58.9,152.7,58.7,152.9,58.7,152.8z M61.1,137.7c0.1,0.2,0.3,0.2,0.3,0.4
		c0,0.1-0.2,0.2-0.2,0.2c-0.1,0-0.2-0.1-0.3-0.2C60.9,137.9,61,137.8,61.1,137.7z M59.9,138.7c0.1,0,0.2,0.1,0.4,0.3
		c-0.2,0.1-0.3,0.3-0.4,0.2c-0.1,0-0.2-0.2-0.3-0.3C59.7,138.9,59.8,138.7,59.9,138.7z M59.9,145c0.1,0,0.3,0.2,0.3,0.2
		c0,0.1-0.2,0.2-0.3,0.4c-0.1-0.2-0.3-0.3-0.2-0.4C59.6,145.2,59.8,145.1,59.9,145z M59.6,141.1c0-0.1,0.1-0.2,0.4-0.6
		c0.1,0.3,0.2,0.4,0.3,0.6c0,0.1-0.2,0.3-0.3,0.2C59.8,141.3,59.7,141.2,59.6,141.1z M59.9,143.3c-0.1,0-0.2-0.1-0.2-0.1
		c0.1-0.1,0.1-0.1,0.2-0.2c0.1,0,0.2,0,0.3,0.1C60.1,143.2,60,143.3,59.9,143.3z M59.9,151.8c-0.1,0-0.2-0.2-0.3-0.3
		c0.1-0.1,0.2-0.3,0.3-0.3c0.1,0,0.2,0.1,0.5,0.3C60.1,151.7,60,151.8,59.9,151.8z M61.1,139.6c0.1,0.2,0.3,0.3,0.3,0.3
		c0,0.1-0.2,0.3-0.2,0.3c-0.1,0-0.2-0.2-0.4-0.3C60.9,139.9,61,139.8,61.1,139.6z M61.3,141.9c0.1,0,0.2,0.1,0.2,0.1
		c0,0.1-0.1,0.2-0.2,0.3c-0.1-0.1-0.2-0.2-0.2-0.2C61.1,142.1,61.2,142,61.3,141.9z M61.2,143.9c0.1,0.1,0.2,0.2,0.2,0.3
		c0,0.1-0.1,0.1-0.2,0.2c-0.1-0.1-0.2-0.1-0.2-0.2C61.1,144.1,61.2,144.1,61.2,143.9z M70.3,158.7c-0.1,0-0.3-0.2-0.3-0.3
		c0-0.1,0.2-0.2,0.4-0.5c0.1,0.2,0.2,0.4,0.2,0.5C70.6,158.5,70.4,158.7,70.3,158.7z M71.7,157.5c0,0-0.2-0.2-0.2-0.2
		c0.1-0.1,0.2-0.2,0.3-0.3c0.1,0,0.2,0.1,0.4,0.2C72,157.4,71.8,157.5,71.7,157.5z M72.8,158.7c-0.1,0-0.3-0.2-0.3-0.2
		c0.1-0.1,0.2-0.2,0.4-0.4c0.2,0.2,0.2,0.3,0.3,0.4C73.1,158.6,73,158.7,72.8,158.7z M78,149.8c0.1,0.1,0.2,0.2,0.2,0.3
		c0,0-0.1,0.1-0.1,0.2c-0.1-0.1-0.2-0.2-0.2-0.3C77.8,149.9,77.9,149.9,78,149.8z M77,151c-0.1,0.1-0.1,0.1-0.2,0.3
		c-0.1-0.1-0.2-0.1-0.2-0.2c0.1-0.1,0.2-0.1,0.3-0.2C76.8,150.9,76.9,151,77,151z M76.7,150.3l0,0.3c-0.1,0-0.2-0.1-0.3-0.2
		C76.5,150.4,76.6,150.3,76.7,150.3z M76.7,152.3l0.1,0.5c-0.1,0-0.3-0.2-0.4-0.3C76.5,152.5,76.6,152.3,76.7,152.3z M75.3,149.7
		c0.1,0,0.3,0.1,0.5,0.2c-0.2,0.1-0.3,0.3-0.3,0.3c-0.1-0.1-0.3-0.2-0.4-0.3C75.2,149.9,75.3,149.7,75.3,149.7z M75.8,156.3
		c-0.2,0.1-0.3,0.2-0.4,0.2c-0.1,0-0.2-0.1-0.3-0.2c0.1-0.1,0.2-0.2,0.3-0.2C75.5,156.1,75.6,156.2,75.8,156.3z M74.1,157.5
		c-0.1-0.1-0.1-0.2-0.2-0.3c0,0,0.1-0.1,0.1-0.1c0.1,0.1,0.1,0.1,0.2,0.2C74.2,157.4,74.2,157.5,74.1,157.5z M74.3,153.7
		c-0.2-0.3-0.4-0.5-0.4-0.5c0.1-0.1,0.2-0.2,0.3-0.3c0.1,0,0.3,0.1,0.3,0.2C74.5,153.3,74.4,153.5,74.3,153.7z M74.2,151.2
		c-0.1,0-0.1-0.1-0.2-0.2c0.1-0.1,0.2-0.2,0.2-0.2c0.1,0,0.2,0.1,0.4,0.2C74.4,151.1,74.3,151.2,74.2,151.2z M75.4,158.6
		c-0.1,0-0.2-0.2-0.4-0.3c0.1-0.1,0.2-0.2,0.3-0.2c0.1,0,0.2,0.1,0.4,0.2C75.6,158.6,75.5,158.7,75.4,158.6z M76.7,152.9
		c0.1,0,0.2,0.1,0.4,0.3c-0.2,0.1-0.3,0.3-0.5,0.3c-0.1,0-0.2-0.2-0.3-0.3C76.5,153.1,76.6,153,76.7,152.9z M76.7,155.5
		c-0.1,0-0.2-0.2-0.3-0.2c0.1-0.1,0.2-0.3,0.3-0.3c0.1,0,0.2,0.1,0.5,0.3C77,155.4,76.9,155.5,76.7,155.5z M77.9,158.7
		c-0.1,0-0.2-0.2-0.4-0.3c0.1-0.1,0.2-0.2,0.3-0.2c0.1,0,0.3,0.1,0.5,0.3C78.1,158.6,78,158.7,77.9,158.7z M78,154.3
		c0,0-0.2-0.1-0.1-0.2c0-0.1,0.1-0.2,0.2-0.2c0.1,0,0.2,0.1,0.4,0.1C78.2,154.3,78.1,154.3,78,154.3z"/>
	<path class="st1" d="M90.2,148c0.1-0.1,0.2-0.2,0.3-0.2V135h-5.7v26.6h5.7v-7.3c-0.1-0.1-0.1-0.1-0.1-0.1c0,0,0.1-0.1,0.1-0.1v-1.7
		c-0.1-0.1-0.2-0.2-0.2-0.2c0-0.1,0.1-0.1,0.2-0.2v-1.7c-0.1,0-0.2-0.1-0.3-0.2c0.1-0.1,0.2-0.2,0.3-0.3v-1.5
		C90.4,148.2,90.3,148.1,90.2,148z M88.1,147.7c0.1,0,0.2,0,0.3,0.1c-0.2,0.1-0.3,0.2-0.4,0.2c-0.1,0-0.2-0.1-0.2-0.1
		C88,147.8,88.1,147.7,88.1,147.7z M88.1,149.8c0.1,0,0.2,0.1,0.5,0.3c-0.2,0.1-0.4,0.3-0.5,0.3c-0.1,0-0.2-0.2-0.3-0.3
		C87.8,149.9,88,149.8,88.1,149.8z M88.4,152.1c0,0.1-0.2,0.3-0.3,0.2c-0.1,0-0.3-0.2-0.3-0.3c0-0.1,0.1-0.3,0.2-0.5
		C88.3,151.9,88.4,152,88.4,152.1z M85.6,147.6c0.1,0.2,0.3,0.3,0.3,0.4c0,0.1-0.2,0.3-0.3,0.3c-0.1,0-0.3-0.2-0.3-0.3
		C85.3,147.9,85.4,147.8,85.6,147.6z M85.4,145.8c0.1-0.1,0.2-0.1,0.3-0.2c0.1,0.1,0.1,0.1,0.2,0.2c-0.1,0-0.2,0.1-0.2,0.1
		C85.6,145.9,85.5,145.8,85.4,145.8z M85.5,144c-0.1,0-0.1-0.1-0.2-0.2c0.1-0.1,0.2-0.1,0.3-0.1c0.1,0,0.2,0.1,0.3,0.2
		C85.7,143.9,85.6,144,85.5,144z M85.6,141.4c0.1,0,0.3,0.2,0.3,0.3c0,0.1-0.1,0.3-0.2,0.5c-0.3-0.3-0.4-0.5-0.4-0.6
		C85.3,141.6,85.5,141.4,85.6,141.4z M85.3,139.6c0-0.1,0.2-0.3,0.3-0.2c0.1,0,0.3,0.2,0.3,0.3c0,0.1-0.1,0.3-0.2,0.5
		C85.4,139.8,85.3,139.7,85.3,139.6z M85.6,154.5c-0.1,0-0.2-0.2-0.3-0.3c0.1-0.1,0.2-0.2,0.3-0.2c0.1,0,0.3,0.1,0.5,0.3
		C85.8,154.3,85.7,154.5,85.6,154.5z M85.3,152.1c0-0.1,0.2-0.3,0.3-0.3c0.1,0,0.3,0.2,0.3,0.3c0,0.1-0.2,0.2-0.3,0.4
		C85.5,152.3,85.3,152.2,85.3,152.1z M85.6,150.3c-0.1,0-0.2-0.2-0.4-0.3c0.1-0.1,0.2-0.2,0.4-0.2c0.1,0,0.2,0.2,0.4,0.3
		C85.8,150.2,85.7,150.4,85.6,150.3z M85.6,137.8c-0.1,0-0.2-0.2-0.3-0.3c0.1-0.1,0.2-0.3,0.3-0.3c0.1,0,0.3,0.1,0.5,0.3
		C85.9,137.7,85.7,137.8,85.6,137.8z M85.6,135.7c-0.1,0-0.2-0.2-0.3-0.2c0.1-0.1,0.2-0.3,0.3-0.3c0.1,0,0.2,0.1,0.5,0.3
		C85.9,135.6,85.7,135.7,85.6,135.7z M86.9,155.5c-0.1-0.1-0.1-0.2-0.2-0.3c0.1,0,0.2-0.1,0.2-0.1c0.1,0,0.1,0.1,0.2,0.2
		C87,155.4,86.9,155.5,86.9,155.5z M87,153.2c-0.1,0-0.1-0.1-0.2-0.1c0.1-0.1,0.2-0.2,0.3-0.2c0,0,0.1,0.1,0.2,0.1
		C87.2,153.1,87.1,153.2,87,153.2z M88,155c-0.3-0.4-0.5-0.6-0.7-0.8c0.2-0.1,0.5-0.5,0.6-0.4c0.2,0.1,0.5,0.3,0.6,0.6
		C88.6,154.5,88.3,154.7,88,155z M89.4,148.7c0.1,0,0.3,0.2,0.5,0.3c-0.2,0.1-0.3,0.2-0.4,0.2c-0.1,0-0.2-0.2-0.3-0.3
		C89.2,148.8,89.3,148.6,89.4,148.7z M89.7,151.1c-0.1,0-0.1,0.1-0.2,0.1c-0.1,0-0.1-0.1-0.2-0.1c0.1-0.1,0.1-0.1,0.2-0.2
		C89.6,150.9,89.6,151,89.7,151.1z M89.4,155.5c-0.1,0-0.2-0.2-0.3-0.3c0.1-0.1,0.2-0.2,0.4-0.2c0.1,0,0.2,0.1,0.4,0.2
		C89.7,155.3,89.6,155.5,89.4,155.5z M89.4,153.4c-0.1,0-0.1-0.2-0.2-0.3c0.1-0.1,0.3-0.2,0.4-0.2c0.1,0,0.2,0.1,0.4,0.3
		C89.7,153.3,89.5,153.4,89.4,153.4z"/>
	<path class="st1" d="M108.4,161.6v-21.8h4.8c-0.1-0.1-0.2-0.2-0.2-0.2c0-0.1,0.1-0.3,0.2-0.6c0.3,0.4,0.5,0.5,0.4,0.6
		c0,0.1-0.1,0.2-0.2,0.2h2.4V135H95.2v4.8h3c-0.1-0.1-0.2-0.2-0.2-0.2c0-0.1,0.2-0.3,0.3-0.3c0.1,0,0.2,0.2,0.5,0.3
		c-0.2,0.1-0.3,0.1-0.4,0.2h2.2c-0.1-0.1-0.2-0.1-0.2-0.2c0-0.1,0.2-0.2,0.3-0.4c0.1,0.2,0.3,0.3,0.3,0.4c0,0.1-0.1,0.2-0.2,0.2h1.7
		v21.8H108.4z M114.6,136.1c0.1,0,0.3,0.2,0.5,0.3c-0.2,0.1-0.3,0.2-0.4,0.2c-0.1,0-0.2-0.2-0.3-0.3
		C114.5,136.3,114.6,136.1,114.6,136.1z M114.7,138.4c0.1,0,0.2,0.1,0.4,0.2c-0.2,0.2-0.3,0.3-0.5,0.3c-0.1,0-0.2-0.2-0.3-0.2
		C114.4,138.6,114.5,138.4,114.7,138.4z M113.4,135c0.2,0.2,0.3,0.4,0.3,0.5c0,0.1-0.2,0.3-0.3,0.3c-0.1,0-0.3-0.2-0.3-0.3
		C113,135.4,113.2,135.3,113.4,135z M113.3,137.1c0.2,0.2,0.3,0.3,0.3,0.4c0,0.1-0.2,0.3-0.3,0.3c-0.1,0-0.3-0.2-0.3-0.3
		C113,137.4,113.2,137.3,113.3,137.1z M98.3,135.1c0.2,0.2,0.3,0.3,0.3,0.4c0,0.1-0.2,0.3-0.3,0.3c-0.1,0-0.3-0.2-0.3-0.3
		C98,135.4,98.2,135.3,98.3,135.1z M98.4,137.8c-0.1,0-0.2-0.2-0.3-0.3c0.1-0.1,0.2-0.2,0.3-0.3c0.1,0,0.2,0.1,0.4,0.3
		C98.6,137.6,98.5,137.8,98.4,137.8z M100.9,135.2c0.1,0,0.2,0.2,0.4,0.3c-0.2,0.1-0.4,0.3-0.5,0.2c-0.1,0-0.2-0.2-0.3-0.3
		C100.6,135.4,100.8,135.2,100.9,135.2z M99.7,136.2c0,0,0.2,0.1,0.2,0.1c0,0.1-0.1,0.2-0.1,0.3c-0.1-0.1-0.2-0.2-0.2-0.2
		C99.5,136.4,99.6,136.3,99.7,136.2z M99.5,138.7c-0.1,0-0.2-0.1-0.3-0.2c0.1-0.1,0.1-0.2,0.2-0.2c0.1,0,0.2,0.1,0.4,0.1
		C99.7,138.6,99.6,138.7,99.5,138.7z M100.7,138.1c-0.1,0-0.4-0.3-0.4-0.4c0.1-0.2,0.3-0.4,0.4-0.5c0.1,0,0.3,0.2,0.7,0.4
		C101.1,137.8,101,138,100.7,138.1z M102.1,138.9c-0.1-0.1-0.2-0.1-0.2-0.2c0-0.1,0.1-0.2,0.2-0.3c0.1,0.2,0.2,0.2,0.2,0.3
		C102.3,138.7,102.2,138.8,102.1,138.9z M103.5,141.4c0,0,0.3,0.2,0.2,0.2c-0.1,0.1-0.2,0.2-0.3,0.4c-0.1-0.1-0.2-0.2-0.3-0.3
		C103.2,141.6,103.3,141.5,103.5,141.4z M103.2,139.6c0-0.1,0.2-0.2,0.3-0.4c0.1,0.2,0.3,0.3,0.2,0.3c0,0.1-0.2,0.2-0.3,0.3
		C103.4,139.8,103.2,139.7,103.2,139.6z M103.6,143.8c-0.1,0.1-0.2,0.2-0.3,0.2c-0.1,0-0.2-0.1-0.2-0.2c0-0.1,0.1-0.2,0.3-0.3
		C103.5,143.6,103.5,143.7,103.6,143.8z M103.4,151.7c0.1,0.2,0.3,0.3,0.3,0.3c-0.1,0.1-0.2,0.3-0.4,0.3c-0.1,0-0.2-0.2-0.3-0.2
		C103.1,152,103.2,151.9,103.4,151.7z M103.3,160.6c-0.1,0-0.1-0.1-0.2-0.2c0.1-0.1,0.2-0.1,0.3-0.2c0,0,0.1,0.1,0.3,0.2
		C103.5,160.6,103.4,160.6,103.3,160.6z M103.1,158.3c0,0,0.1-0.2,0.2-0.2c0.1,0,0.2,0.1,0.3,0.2c-0.1,0.1-0.1,0.2-0.2,0.3
		C103.2,158.5,103.1,158.4,103.1,158.3z M103.5,154.5c-0.1,0-0.2-0.2-0.4-0.2c0.1-0.1,0.2-0.2,0.4-0.3c0.1,0,0.2,0.1,0.4,0.3
		C103.7,154.3,103.6,154.5,103.5,154.5z M103.4,135.2c0.1,0,0.2,0.2,0.4,0.3c-0.2,0.1-0.4,0.2-0.5,0.2c-0.1,0-0.2-0.2-0.3-0.3
		C103.1,135.4,103.3,135.2,103.4,135.2z"/>
	<path class="st1" d="M126.2,139.8c-0.1,0-0.1,0-0.2-0.1l-1.9,4c0,0,0,0,0,0c0,0,0,0,0,0l-4.4,9.2c0,0,0,0,0.1,0
		c0.1,0,0.2,0.1,0.5,0.3c-0.2,0.1-0.4,0.3-0.4,0.2c-0.1,0-0.2-0.1-0.2-0.2l-4,8.4h6l2.1-4.7h9.9l2.1,4.7h6l-3.2-6.7
		c-0.1,0.1-0.2,0.1-0.3,0.1c-0.1,0-0.2-0.2-0.3-0.2c0.1-0.1,0.2-0.2,0.3-0.2c0.1,0,0.1,0,0.2,0.1l-0.7-1.5c0,0,0,0-0.1-0.1
		c0,0,0,0,0,0l-0.4-0.8c0,0,0,0-0.1,0c-0.1,0-0.2-0.1-0.3-0.2c0.1,0,0.1-0.1,0.2-0.2l-2.4-5c0,0-0.1-0.1-0.1-0.1c0,0,0.1,0,0.1-0.1
		l-1.9-3.9c-0.1,0.1-0.1,0.2-0.2,0.3c-0.1-0.2-0.3-0.3-0.3-0.4c0-0.1,0.2-0.3,0.3-0.3c0,0,0.1,0,0.1,0l-1.3-2.7c0,0,0,0-0.1,0
		c-0.1,0-0.2-0.1-0.3-0.2c0.1-0.1,0.1-0.2,0.2-0.2l-2.3-4.8h-0.2l-2.3,4.7c0.1,0,0.2,0.1,0.3,0.2
		C126.4,139.7,126.3,139.9,126.2,139.8z M121.1,152.4c-0.1,0-0.2-0.2-0.3-0.3c0.1-0.1,0.2-0.3,0.3-0.3c0.1,0,0.2,0.1,0.5,0.3
		C121.3,152.3,121.2,152.4,121.1,152.4z M123.5,146.1c0,0-0.2-0.2-0.2-0.2c0.1-0.1,0.2-0.2,0.3-0.4c0.1,0.1,0.2,0.2,0.3,0.3
		C123.8,145.9,123.7,146.1,123.5,146.1z M134.8,154.1c-0.1-0.1-0.1-0.1-0.2-0.2c0,0,0.1-0.1,0.1-0.1c0.1,0.1,0.1,0.1,0.2,0.2
		C134.9,154,134.9,154,134.8,154.1z M135,150.8c-0.2-0.3-0.3-0.4-0.3-0.5c0.1-0.1,0.2-0.2,0.3-0.2c0.1,0,0.2,0.1,0.2,0.2
		C135.2,150.4,135.1,150.5,135,150.8z M135.9,152.9c0.1,0,0.2,0.1,0.3,0.1c-0.2,0.1-0.3,0.2-0.3,0.2c-0.1,0-0.2-0.1-0.2-0.1
		C135.8,153,135.9,152.9,135.9,152.9z M136,154.6c0.1,0,0.2,0.1,0.4,0.2c-0.2,0.1-0.3,0.2-0.4,0.2c-0.1,0-0.2-0.2-0.3-0.2
		C135.8,154.8,135.9,154.6,136,154.6z M135,148.3c0.1,0,0.2,0.1,0.3,0.2c-0.2,0.1-0.3,0.1-0.4,0.1c0,0-0.1-0.1-0.2-0.1
		C134.8,148.4,134.9,148.3,135,148.3z M135,148.7c0.1,0,0.2,0.1,0.3,0.2c-0.1,0.1-0.2,0.3-0.3,0.3c-0.1,0-0.2-0.1-0.4-0.2
		C134.8,148.8,134.9,148.7,135,148.7z M132.2,149c0.1-0.1,0.2-0.2,0.3-0.2c0.1,0,0.2,0.1,0.4,0.2c-0.2,0.1-0.3,0.2-0.4,0.2
		C132.3,149.2,132.2,149.1,132.2,149z M132.5,148.5c0,0,0.1-0.1,0.1-0.1c0.1,0.1,0.1,0.1,0.2,0.2c-0.1,0.1-0.1,0.1-0.2,0.1
		C132.6,148.7,132.5,148.6,132.5,148.5z M132.7,150.2c0,0,0.1,0.1,0.1,0.1c0,0.1-0.1,0.2-0.2,0.3c-0.1-0.1-0.1-0.2-0.1-0.2
		C132.5,150.3,132.6,150.2,132.7,150.2z M132.7,151.9c0,0,0.1,0.1,0.1,0.1c0,0.1-0.1,0.2-0.2,0.3c-0.1-0.1-0.1-0.2-0.1-0.2
		C132.5,152.1,132.6,152,132.7,151.9z M133.7,155.1c-0.1,0-0.3-0.2-0.2-0.2c0-0.1,0.2-0.2,0.3-0.4c0.1,0.2,0.2,0.3,0.3,0.4
		C133.9,155,133.8,155.1,133.7,155.1z M133.6,153.2c0,0-0.1-0.1-0.2-0.1c0.1-0.1,0.2-0.1,0.3-0.2c0.1,0.1,0.1,0.1,0.2,0.2
		C133.8,153.1,133.7,153.1,133.6,153.2z M133.9,154.1c-0.1,0.1-0.1,0.2-0.2,0.2c-0.1-0.1-0.2-0.1-0.2-0.2c0-0.1,0.1-0.1,0.2-0.2
		C133.8,153.9,133.8,154,133.9,154.1z M133.7,151.4c-0.1,0-0.2-0.1-0.2-0.2c0.1-0.1,0.2-0.2,0.4-0.2c0.1,0,0.2,0.1,0.4,0.3
		C133.9,151.3,133.8,151.4,133.7,151.4z M133.4,149.4c0.1-0.1,0.2-0.2,0.3-0.2c0.1,0,0.3,0.1,0.3,0.2c0,0.1-0.1,0.2-0.2,0.4
		C133.6,149.5,133.5,149.4,133.4,149.4z M133.7,147.4c0.1,0,0.2,0.1,0.4,0.3c-0.1,0.1-0.2,0.2-0.3,0.2c0.1,0.1,0.1,0.1,0.1,0.2
		c0,0.1-0.1,0.2-0.2,0.3c-0.1-0.1-0.2-0.1-0.2-0.2c0-0.1,0-0.1,0.1-0.3c-0.1-0.1-0.1-0.1-0.2-0.2
		C133.5,147.5,133.6,147.4,133.7,147.4z M132.7,154.1c0,0-0.2-0.2-0.2-0.2c0.1-0.1,0.2-0.2,0.3-0.2c0.1,0,0.2,0.1,0.3,0.2
		C132.9,153.9,132.8,154,132.7,154.1z M132.5,146.6C132.5,146.6,132.5,146.6,132.5,146.6C132.5,146.6,132.5,146.6,132.5,146.6
		c0,0,0.1-0.1,0.1-0.2c0.1,0,0.1,0.1,0.2,0.2c0,0-0.1,0.1-0.1,0.1c0.1,0,0.1,0.1,0.2,0.1c-0.2,0.1-0.4,0.3-0.5,0.3
		c-0.1,0-0.2-0.1-0.3-0.2C132.2,146.8,132.3,146.6,132.5,146.6z M126.1,141.6c0.1,0,0.2,0.1,0.2,0.2c-0.1,0.1-0.2,0.1-0.3,0.2
		c-0.1-0.1-0.1-0.2-0.2-0.3C125.9,141.7,126,141.6,126.1,141.6z M126,143.6c0.1,0,0.2,0.1,0.4,0.2c-0.2,0.1-0.2,0.2-0.3,0.2
		c-0.1,0-0.2-0.1-0.3-0.2C125.9,143.7,125.9,143.6,126,143.6z M126.1,145.5c0.2,0.2,0.3,0.3,0.3,0.4c-0.1,0.1-0.2,0.2-0.3,0.2
		c-0.1,0-0.3-0.2-0.4-0.2C125.9,145.8,126,145.7,126.1,145.5z M124.9,142.5c0.1,0.1,0.1,0.2,0.2,0.3c0,0-0.1,0.1-0.1,0.2
		c-0.1-0.1-0.1-0.2-0.2-0.3C124.7,142.7,124.8,142.6,124.9,142.5z M124.8,144.6c0.1,0,0.3,0.2,0.3,0.2c0,0.1-0.2,0.2-0.3,0.4
		c-0.1-0.2-0.3-0.3-0.3-0.4C124.5,144.7,124.6,144.6,124.8,144.6z M124.6,146.9c0.1-0.1,0.2-0.3,0.3-0.3c0.1,0,0.2,0.2,0.5,0.3
		c-0.2,0.1-0.4,0.3-0.5,0.2C124.8,147.2,124.8,147,124.6,146.9z M130,155.5c-0.1,0-0.2-0.2-0.3-0.2c0.1-0.1,0.2-0.3,0.3-0.3
		c0.1,0,0.2,0.1,0.5,0.3C130.2,155.4,130.1,155.5,130,155.5z M130.8,154.2c0.1-0.1,0.2-0.3,0.3-0.3c0.1,0,0.2,0.1,0.5,0.3
		c-0.2,0.1-0.3,0.3-0.4,0.3C131.1,154.4,130.9,154.3,130.8,154.2z M131.5,155.1c-0.1,0-0.2-0.1-0.3-0.2c0-0.1,0.1-0.2,0.4-0.4
		c0.1,0.2,0.2,0.3,0.1,0.4C131.7,154.9,131.6,155.1,131.5,155.1z M131.7,153c0,0,0,0.1,0,0.1c-0.1,0-0.2,0-0.3,0c0,0,0-0.1,0-0.1
		c0,0,0,0,0,0H130c0.1,0,0.2,0.2,0.2,0.2c0,0.1-0.2,0.2-0.3,0.4c-0.1-0.1-0.3-0.3-0.3-0.3c0-0.1,0.1-0.2,0.2-0.3h-4.5
		c1.1-2.5,2.5-6.1,3.3-7.9c0,0.1,0.1,0.2,0.1,0.4c0,0,0,0,0,0c0.1,0.2,0.2,0.4,0.2,0.5c0,0,0,0,0,0c0.3,0.8,0.6,1.7,1,2.6
		c0,0,0,0,0,0c0.1,0.3,0.3,0.4,0.3,0.5c0,0,0,0.1-0.1,0.1c0.4,0.9,0.8,1.9,1.2,2.8c0.1,0.1,0.2,0.2,0.3,0.3c0,0,0,0.1-0.1,0.2
		c0.1,0.2,0.2,0.4,0.3,0.7H131.7z M128.3,143.7c0.1-0.1,0.2-0.2,0.4-0.3c0.1,0,0.2,0.1,0.4,0.3c-0.2,0.1-0.4,0.2-0.5,0.2
		C128.5,144,128.4,143.8,128.3,143.7z M130,146.6c0.1,0,0.3,0.2,0.3,0.2c0,0.1-0.2,0.3-0.3,0.5c-0.1-0.2-0.3-0.3-0.3-0.4
		C129.7,146.8,129.8,146.6,130,146.6z M129.7,144.8c0-0.1,0.1-0.2,0.3-0.4c0.2,0.2,0.3,0.3,0.3,0.4c0,0.1-0.2,0.2-0.3,0.3
		C129.9,145.1,129.7,144.9,129.7,144.8z M131.5,151.4c-0.1,0-0.2-0.2-0.3-0.2c0.1-0.1,0.2-0.2,0.3-0.2c0.1,0,0.2,0.1,0.4,0.3
		C131.7,151.3,131.6,151.4,131.5,151.4z M131.5,149.6c-0.1,0-0.3-0.1-0.3-0.2c0-0.1,0.1-0.2,0.3-0.3c0.1,0.1,0.2,0.2,0.3,0.3
		C131.7,149.4,131.6,149.5,131.5,149.6z M131.8,147.6c0,0.1-0.1,0.2-0.3,0.4c-0.1-0.2-0.3-0.3-0.3-0.3c0-0.1,0.2-0.2,0.3-0.2
		C131.6,147.3,131.8,147.5,131.8,147.6z M131.2,145.7c0.1,0.1,0.1,0.2,0.2,0.2c0,0-0.1,0.1-0.2,0.2c-0.1-0.1-0.1-0.2-0.2-0.3
		C131.1,145.8,131.2,145.8,131.2,145.7z M131.1,143.8c0,0,0.1-0.1,0.1-0.1c0,0,0.1,0.1,0.2,0.1c-0.1,0.1-0.1,0.1-0.2,0.1
		C131.2,143.9,131.2,143.8,131.1,143.8z M131.3,141.5c0,0,0.1,0.1,0.2,0.1c-0.1,0.1-0.1,0.2-0.2,0.2c-0.1-0.1-0.2-0.1-0.2-0.2
		C131.1,141.6,131.2,141.5,131.3,141.5z M131.2,147.8c0.1,0.1,0.1,0.1,0.2,0.2c-0.1,0.1-0.2,0.2-0.2,0.2c-0.1-0.1-0.2-0.1-0.2-0.2
		C131.1,147.9,131.2,147.8,131.2,147.8z M131,149.4c0.3,0.4,0.4,0.5,0.4,0.6c0,0.1-0.2,0.3-0.3,0.3c-0.1,0-0.3-0.2-0.3-0.3
		C130.7,149.9,130.8,149.7,131,149.4z M130,143.1c-0.2-0.1-0.3-0.2-0.4-0.3c0.1-0.1,0.3-0.3,0.4-0.3c0.1,0,0.3,0.2,0.5,0.3
		C130.3,143,130.1,143.1,130,143.1z M129.9,138.4c0.1,0,0.3,0.2,0.3,0.2c0,0.1-0.2,0.2-0.3,0.4c-0.1-0.2-0.3-0.3-0.2-0.4
		C129.6,138.5,129.8,138.4,129.9,138.4z M130,140.4c0.1,0,0.2,0.1,0.4,0.2c-0.2,0.1-0.4,0.2-0.5,0.2c-0.1,0-0.2-0.2-0.3-0.3
		C129.7,140.6,129.9,140.4,130,140.4z M128.6,141.9c-0.1,0-0.2-0.1-0.2-0.2c0.1-0.1,0.2-0.2,0.4-0.3c0.1,0,0.2,0.1,0.5,0.2
		C128.9,141.8,128.8,141.9,128.6,141.9z M128.6,139.8c-0.1,0-0.2-0.1-0.3-0.2c0.1-0.1,0.2-0.2,0.4-0.3c0,0,0.2,0.1,0.3,0.3
		C128.9,139.7,128.8,139.8,128.6,139.8z M128.6,137.2c0.1,0,0.2,0.1,0.4,0.2c-0.2,0.1-0.3,0.3-0.4,0.3c-0.1,0-0.2-0.1-0.3-0.2
		C128.4,137.5,128.5,137.3,128.6,137.2z M127.3,138.4c0.1,0.1,0.2,0.2,0.2,0.2c0,0.1-0.1,0.2-0.2,0.2c-0.1,0-0.2-0.1-0.1-0.1
		C127.2,138.6,127.3,138.5,127.3,138.4z M127.5,140.7c0,0.1-0.1,0.1-0.2,0.2c-0.1-0.1-0.2-0.1-0.2-0.2c0,0,0.1-0.1,0.2-0.3
		C127.4,140.5,127.5,140.6,127.5,140.7z M127.3,142.5c0.1,0.1,0.2,0.1,0.4,0.3c-0.2,0.1-0.3,0.1-0.4,0.1c-0.1,0-0.2-0.1-0.2-0.2
		C127.1,142.7,127.2,142.6,127.3,142.5z M127.3,144.6c0.1,0.1,0.2,0.2,0.2,0.3c0,0.1-0.1,0.2-0.2,0.3c-0.1-0.2-0.2-0.3-0.2-0.4
		C127.1,144.7,127.2,144.7,127.3,144.6z M127.3,146.7c0.1,0,0.2,0.1,0.2,0.2c0,0.1-0.1,0.1-0.1,0.2c-0.1-0.1-0.2-0.1-0.3-0.2
		C127.2,146.8,127.3,146.7,127.3,146.7z M126.1,150.3c-0.1,0-0.2-0.2-0.4-0.2c0.1-0.1,0.2-0.3,0.3-0.3c0.1,0,0.3,0.1,0.5,0.2
		C126.3,150.2,126.2,150.3,126.1,150.3z"/>
	<path class="st1" d="M161.7,156.9h-10.2v-9.1c0,0,0,0,0,0c-0.1,0-0.3-0.1-0.3-0.2c0-0.1,0.1-0.2,0.3-0.4c0,0,0,0,0,0V146
		c-0.1,0-0.2-0.2-0.2-0.2c0-0.1,0.1-0.2,0.2-0.3V135h-5.7v26.6h15.9V156.9z M147.2,145.5c0.1,0,0.1,0,0.3,0.1
		c-0.1,0.1-0.2,0.1-0.3,0.2c-0.1,0-0.1-0.1-0.2-0.1C147,145.6,147.1,145.6,147.2,145.5z M147.1,147.4c0.1,0,0.2,0.1,0.4,0.2
		c-0.2,0.1-0.3,0.2-0.4,0.2c-0.1,0-0.2-0.2-0.3-0.3C146.9,147.5,147,147.4,147.1,147.4z M147.4,149.4c0,0.1-0.2,0.2-0.3,0.2
		c-0.1,0-0.2-0.1-0.3-0.2c0-0.1,0.1-0.2,0.2-0.5C147.3,149.2,147.4,149.3,147.4,149.4z M146,152.3c-0.1-0.1-0.1-0.1-0.2-0.2
		c0.1,0,0.1-0.1,0.2-0.1c0.1,0,0.1,0.1,0.2,0.2C146.1,152.2,146,152.3,146,152.3z M146.1,150.3c0,0-0.1-0.1-0.2-0.1
		c0.1-0.1,0.2-0.1,0.3-0.2c0,0,0.1,0.1,0.2,0.1C146.3,150.3,146.2,150.3,146.1,150.3z M147.1,151.9c-0.3-0.3-0.4-0.5-0.6-0.7
		c0.2-0.1,0.4-0.4,0.5-0.4c0.2,0.1,0.4,0.3,0.5,0.5C147.6,151.4,147.3,151.6,147.1,151.9z M148.3,146.4c0.1,0,0.2,0.1,0.4,0.3
		c-0.2,0.1-0.3,0.2-0.3,0.2c-0.1,0-0.2-0.2-0.3-0.2C148.1,146.5,148.2,146.4,148.3,146.4z M148.5,148.5c-0.1,0-0.1,0.1-0.2,0.1
		c-0.1,0-0.1-0.1-0.2-0.1c0.1,0,0.1-0.1,0.2-0.2C148.4,148.4,148.5,148.4,148.5,148.5z M148.3,152.3c-0.1,0-0.2-0.1-0.2-0.2
		c0.1-0.1,0.2-0.2,0.3-0.2c0.1,0,0.2,0.1,0.3,0.2C148.5,152.2,148.4,152.3,148.3,152.3z M148.2,150.5c-0.1,0-0.1-0.1-0.2-0.2
		c0.1-0.1,0.2-0.2,0.4-0.2c0.1,0,0.2,0.1,0.3,0.2C148.5,150.4,148.4,150.5,148.2,150.5z M149.4,151.5c-0.1-0.1-0.3-0.2-0.2-0.3
		c0.1-0.1,0.2-0.2,0.3-0.3c0.1,0.1,0.2,0.2,0.2,0.2C149.6,151.2,149.5,151.3,149.4,151.5z M149.4,149.7c-0.1-0.1-0.3-0.3-0.3-0.3
		c0.1-0.1,0.2-0.2,0.3-0.3c0.1,0.1,0.2,0.2,0.2,0.2C149.6,149.5,149.5,149.6,149.4,149.7z M149.3,147.8c-0.1,0-0.2-0.1-0.3-0.2
		c0.1-0.1,0.2-0.2,0.3-0.3c0.1,0,0.2,0.1,0.4,0.2C149.5,147.7,149.4,147.8,149.3,147.8z M149.3,146c-0.1,0-0.2-0.2-0.3-0.2
		c0.1-0.1,0.2-0.2,0.3-0.2c0.1,0,0.2,0.1,0.4,0.2C149.5,145.9,149.4,146.1,149.3,146z M150.6,146.8c-0.1,0-0.2-0.1-0.3-0.2
		c0.1,0,0.1-0.1,0.2-0.1c0.1,0,0.2,0.1,0.3,0.1C150.7,146.8,150.6,146.9,150.6,146.8z M159.2,157.5c0-0.1,0.1-0.2,0.1-0.3
		c0.1,0.1,0.2,0.2,0.2,0.3c0,0.1-0.1,0.1-0.1,0.2C159.4,157.6,159.2,157.6,159.2,157.5z M159.4,159c0.1,0.1,0.1,0.2,0.2,0.3
		c0,0-0.1,0.1-0.1,0.1c-0.1-0.1-0.1-0.1-0.2-0.2C159.3,159.2,159.4,159.1,159.4,159z M159.4,161.4l0-0.6c0.1,0,0.2,0.1,0.2,0.2
		C159.6,161.1,159.5,161.2,159.4,161.4z M160.6,158.2c0.1,0,0.2,0.2,0.3,0.3c0,0.1-0.1,0.2-0.2,0.3c-0.1-0.2-0.3-0.3-0.3-0.4
		C160.3,158.4,160.5,158.2,160.6,158.2z M160.6,160.5c-0.1,0-0.2-0.2-0.3-0.2c0.1-0.1,0.2-0.2,0.3-0.2c0.1,0,0.2,0.1,0.4,0.2
		C160.8,160.3,160.7,160.5,160.6,160.5z"/>
	<path class="st1" d="M172.5,150.4h2.4c-0.1-0.1-0.1-0.1-0.2-0.2c0.1-0.1,0.2-0.2,0.3-0.2c0.1,0,0.2,0.1,0.4,0.3
		c-0.1,0-0.1,0.1-0.2,0.1h6.9v-4.6h-8.2c0,0.1-0.1,0.1-0.1,0.2c-0.1-0.1-0.2-0.1-0.1-0.2h-1.2v-1c0,0,0,0,0,0c0,0,0,0,0,0v-3.4
		c0,0-0.1-0.1-0.1-0.1c0,0,0-0.1,0.1-0.1v-1.4h2.6c-0.1-0.1-0.2-0.2-0.3-0.3c0,0,0.1-0.1,0.2-0.2c0.1,0.1,0.2,0.2,0.3,0.3
		c0,0-0.1,0.2-0.2,0.3h8.8v-0.1c0,0,0,0-0.1,0c-0.1,0-0.2-0.1-0.2-0.2c0.1-0.1,0.2-0.1,0.3-0.2V138c0,0-0.1,0.1-0.1,0.1
		c-0.1-0.2-0.2-0.3-0.2-0.3c0-0.1,0.2-0.2,0.3-0.2c0,0,0,0,0,0V135h-7.6c-0.1,0.1-0.1,0.1-0.2,0.2c-0.1-0.1-0.1-0.2-0.2-0.2h-1.8
		c-0.1,0.1-0.2,0.1-0.3,0.1c-0.1,0-0.1-0.1-0.2-0.1h-4c0,0.1-0.2,0.2-0.3,0.2c-0.1,0-0.2-0.1-0.3-0.2h-2.3v26.6h17.7v-4.8h-12V150.4
		z M181.6,148.6c0,0-0.1-0.1-0.1-0.1c0.1,0,0.2-0.1,0.2-0.1c0,0,0.1,0.1,0.2,0.2C181.8,148.5,181.7,148.6,181.6,148.6z M181.7,146.2
		c0.1,0.2,0.2,0.3,0.2,0.4c0,0.1-0.2,0.2-0.3,0.2c-0.1,0-0.2-0.1-0.3-0.2C181.4,146.6,181.5,146.5,181.7,146.2z M180.5,147.4
		c0.1,0,0.2,0.1,0.4,0.2c-0.2,0.1-0.3,0.3-0.4,0.3c-0.1,0-0.2-0.1-0.3-0.2C180.3,147.5,180.4,147.4,180.5,147.4z M176.1,149.2
		c0.1,0,0.2,0.1,0.4,0.2c-0.2,0.1-0.3,0.2-0.4,0.2c-0.1,0-0.2-0.2-0.3-0.2C175.9,149.3,176,149.2,176.1,149.2z M174.9,148.6
		c-0.1-0.1-0.1-0.1-0.2-0.2c0.1,0,0.2-0.1,0.2-0.1c0,0,0.1,0.1,0.1,0.1C175.1,148.5,175,148.6,174.9,148.6z M175,146.4
		c0.1,0,0.2,0.1,0.3,0.2c-0.2,0.1-0.3,0.2-0.4,0.3c-0.1,0-0.2-0.1-0.2-0.2C174.8,146.6,174.9,146.4,175,146.4z M172.9,146.6
		c0,0,0,0.1,0,0.1c-0.1,0-0.2,0-0.4,0.1c0,0,0-0.1,0-0.1C172.7,146.6,172.8,146.6,172.9,146.6z M182.7,138.7c-0.1,0-0.1-0.1-0.2-0.2
		c0.1-0.1,0.2-0.2,0.3-0.3c0,0,0.1,0.1,0.3,0.2C183,138.6,182.9,138.7,182.7,138.7z M182.7,136.5c0.1,0,0.2,0.1,0.4,0.2
		c-0.2,0.1-0.3,0.2-0.4,0.3c-0.1,0-0.2-0.1-0.3-0.2C182.5,136.7,182.6,136.5,182.7,136.5z M181.6,139.7c-0.1-0.1-0.2-0.1-0.2-0.2
		c0,0,0.1-0.1,0.2-0.2c0.1,0.1,0.2,0.2,0.2,0.3C181.8,139.5,181.7,139.6,181.6,139.7z M181.6,137.5c0.1,0.1,0.1,0.2,0.1,0.2
		c0,0.1-0.1,0.1-0.2,0.2c0,0-0.1-0.1-0.1-0.1C181.5,137.7,181.5,137.6,181.6,137.5z M180.5,138.3c0.1,0,0.2,0.1,0.4,0.2
		c-0.2,0.1-0.3,0.3-0.3,0.2c-0.1,0-0.2-0.1-0.3-0.2C180.3,138.5,180.4,138.3,180.5,138.3z M179.5,137.6c0,0,0.1,0.1,0.1,0.1
		c-0.1,0.1-0.2,0.1-0.2,0.2c0-0.1-0.1-0.1-0.1-0.2C179.3,137.6,179.4,137.6,179.5,137.6z M179.4,139.3c0,0.1,0.1,0.1,0.1,0.2
		c0,0-0.1,0.1-0.1,0.2c-0.1-0.1-0.1-0.2-0.1-0.2C179.3,139.4,179.4,139.4,179.4,139.3z M178.3,136.5c0.1,0,0.2,0.1,0.3,0.2
		c-0.1,0.1-0.2,0.2-0.3,0.4c-0.1-0.2-0.3-0.3-0.3-0.4C178,136.7,178.2,136.5,178.3,136.5z M178.3,138.4c0.1,0,0.2,0.1,0.4,0.3
		c-0.2,0.1-0.3,0.2-0.4,0.2c-0.1,0-0.2-0.1-0.3-0.2C178.1,138.5,178.2,138.4,178.3,138.4z M177.2,137.4c0.1,0.1,0.2,0.2,0.2,0.3
		c0,0.1-0.2,0.2-0.2,0.2c-0.1,0-0.2-0.1-0.3-0.2C176.9,137.6,177.1,137.5,177.2,137.4z M177.2,139.1c0.1,0.1,0.2,0.2,0.2,0.3
		c0,0.1-0.2,0.2-0.2,0.2c-0.1,0-0.2-0.2-0.3-0.2C177,139.3,177,139.3,177.2,139.1z M176,136.6c0.1,0.1,0.1,0.1,0.1,0.2
		c0,0-0.1,0.1-0.2,0.2c-0.1-0.1-0.1-0.2-0.1-0.3C175.8,136.6,175.9,136.6,176,136.6z M176.1,138.3c0.1,0,0.2,0.1,0.4,0.3
		c-0.2,0.1-0.3,0.2-0.4,0.2c-0.1,0-0.2-0.2-0.3-0.3C175.9,138.5,176,138.3,176.1,138.3z M174.9,135.7c0.1,0.1,0.2,0.1,0.2,0.2
		c-0.1,0-0.1,0.1-0.2,0.1c-0.1,0-0.2-0.1-0.2-0.1C174.8,135.8,174.8,135.8,174.9,135.7z M172.8,135.5c0.1,0,0.2,0.1,0.4,0.2
		c-0.2,0.1-0.3,0.2-0.4,0.2c-0.1,0-0.2-0.1-0.3-0.2C172.6,135.7,172.7,135.6,172.8,135.5z M172.7,139.2c0.1,0.2,0.2,0.3,0.3,0.3
		c-0.1,0.1-0.2,0.2-0.3,0.2c-0.1,0-0.3-0.1-0.2-0.2C172.4,139.4,172.6,139.3,172.7,139.2z M171.6,140.1c0.1,0.1,0.2,0.2,0.2,0.2
		c0,0.1-0.1,0.2-0.2,0.4c-0.1-0.1-0.3-0.3-0.3-0.3C171.3,140.2,171.5,140.2,171.6,140.1z M171.7,142.2c0,0-0.1,0.1-0.2,0.1
		c-0.1,0-0.2-0.1-0.3-0.2c0.1-0.1,0.1-0.1,0.2-0.2C171.6,142,171.7,142.1,171.7,142.2z M170.5,142.8c0.1,0,0.3,0.1,0.2,0.2
		c0,0.1-0.1,0.2-0.3,0.3c-0.1-0.1-0.3-0.3-0.3-0.3C170.3,143,170.4,142.9,170.5,142.8z M170.2,141.3c0-0.1,0.1-0.2,0.4-0.5
		c0.1,0.2,0.2,0.4,0.1,0.4c-0.1,0.1-0.2,0.2-0.3,0.3C170.4,141.5,170.2,141.3,170.2,141.3z M170.5,139.8c-0.1-0.2-0.3-0.3-0.2-0.3
		c0-0.1,0.2-0.2,0.3-0.2c0.1,0,0.2,0.1,0.3,0.2C170.7,139.5,170.6,139.6,170.5,139.8z M170.5,144.4c0.2,0.2,0.3,0.3,0.3,0.4
		c0,0.1-0.2,0.3-0.3,0.3c-0.1,0-0.3-0.1-0.3-0.2C170.2,144.7,170.4,144.6,170.5,144.4z M170.4,146.4c0.1,0,0.2,0.1,0.4,0.3
		c-0.2,0.1-0.3,0.2-0.3,0.2c-0.1,0-0.2-0.1-0.3-0.2C170.2,146.6,170.4,146.4,170.4,146.4z M170.4,137.9c-0.1,0-0.2-0.1-0.3-0.2
		c0.1-0.1,0.2-0.2,0.3-0.3c0.1,0,0.2,0.1,0.4,0.2C170.7,137.8,170.6,137.9,170.4,137.9z M169.4,140.8c-0.2-0.3-0.4-0.4-0.3-0.5
		c0.1-0.1,0.2-0.2,0.3-0.2c0.1,0,0.2,0.1,0.2,0.2C169.6,140.5,169.5,140.6,169.4,140.8z M169.5,142.2c-0.1,0.1-0.2,0.1-0.3,0.2
		c0,0-0.1-0.1-0.2-0.1c0.1-0.1,0.2-0.1,0.3-0.2C169.4,142.1,169.5,142.1,169.5,142.2z M169,138.5c0-0.1,0.1-0.2,0.2-0.5
		c0.2,0.3,0.4,0.4,0.4,0.5c0,0.1-0.2,0.2-0.3,0.2C169.2,138.7,169,138.6,169,138.5z M169.3,136.4c0.1,0.2,0.3,0.3,0.3,0.4
		c0,0.1-0.2,0.2-0.3,0.2c-0.1,0-0.3-0.2-0.3-0.2C169,136.6,169.2,136.5,169.3,136.4z M169.2,145.6c0.1,0,0.2,0.1,0.3,0.2
		c-0.1,0.1-0.2,0.2-0.3,0.3c-0.1,0-0.2-0.1-0.4-0.2C169,145.7,169.1,145.6,169.2,145.6z M169.4,147.2c0.1,0.2,0.3,0.3,0.2,0.3
		c0,0.1-0.2,0.2-0.3,0.2c-0.1,0-0.2-0.2-0.2-0.2C169.1,147.5,169.2,147.4,169.4,147.2z M169.3,149.6c-0.1,0-0.2-0.1-0.2-0.2
		c0.1-0.1,0.2-0.2,0.4-0.2c0,0,0.2,0.1,0.3,0.2C169.5,149.5,169.4,149.6,169.3,149.6z M169.4,144.2c-0.1,0-0.2-0.1-0.3-0.2
		c0.1-0.1,0.2-0.2,0.2-0.2c0.1,0,0.2,0.1,0.4,0.2C169.6,144.1,169.5,144.2,169.4,144.2z M170.4,148.3c0.1,0,0.2,0.1,0.4,0.2
		c-0.2,0.1-0.3,0.3-0.4,0.3c-0.1,0-0.2-0.2-0.3-0.3C170.2,148.5,170.3,148.3,170.4,148.3z M170.5,150.5c0,0-0.2-0.2-0.2-0.2
		c0-0.1,0.1-0.2,0.2-0.2c0.1,0,0.2,0.1,0.4,0.2C170.7,150.4,170.6,150.5,170.5,150.5z M170.5,136c-0.1,0-0.2-0.2-0.3-0.2
		c0.1-0.1,0.2-0.2,0.2-0.2c0.1,0,0.2,0.1,0.4,0.3C170.7,135.9,170.6,136,170.5,136z M171.5,149.6c-0.1,0-0.3-0.1-0.2-0.2
		c0-0.1,0.1-0.2,0.3-0.4c0.1,0.1,0.3,0.3,0.2,0.3C171.7,149.5,171.6,149.6,171.5,149.6z M171.2,147.6c0-0.1,0.2-0.2,0.3-0.3
		c0.1,0.2,0.3,0.3,0.2,0.4c0,0.1-0.2,0.2-0.3,0.2C171.4,147.8,171.2,147.7,171.2,147.6z M171.7,146c-0.1-0.1-0.1-0.1-0.2-0.2
		c0,0,0.1-0.1,0.1-0.2c0.1,0.1,0.1,0.2,0.1,0.2C171.8,145.9,171.7,145.9,171.7,146z M171.5,144.5c-0.1-0.3-0.2-0.4-0.2-0.5
		c0-0.1,0.2-0.2,0.2-0.2c0.1,0,0.3,0.1,0.3,0.2C171.8,144,171.7,144.2,171.5,144.5z"/>
	<path class="st1" d="M98.3,122.1c-1.4-1.9-1.7-3.3-1.7-5.8v-13.9c-0.6-0.1-1.3-0.2-2.3-0.2c-0.9,0-1.7,0-2.3,0.2v12.9
		c-0.3,2.8-1.7,4.9-4.8,5.3c0.1,0.1,0.1,0.1,0.1,0.2c0,0.1-0.1,0.2-0.2,0.2c-0.1,0-0.2-0.1-0.2-0.2c0,0,0-0.1,0.1-0.2
		c-0.2,0-0.5,0-0.8,0c-2.3,0-3.5-1-4.1-2.5c0,0-0.1,0-0.1,0c-0.1,0-0.2-0.1-0.2-0.2c0.1-0.1,0.1-0.1,0.2-0.2
		c-0.2-0.7-0.3-1.5-0.3-2.4v-12.9c-0.5-0.1-1.3-0.2-2.3-0.2c-1,0-1.7,0-2.3,0.2v7.1c0,0,0.1,0,0.2,0c-0.1,0.1-0.1,0.1-0.2,0.1v1.2
		c0.1,0,0.1,0.1,0.3,0.2c-0.1,0.1-0.2,0.2-0.3,0.2v1c0.1,0,0.1,0.1,0.3,0.2c-0.1,0.1-0.2,0.1-0.3,0.1v2.4c0.1,0,0.1,0.1,0.2,0.2
		c-0.1,0.1-0.2,0.1-0.2,0.1v0c0,0.4,0,0.8,0,1.2c0,0,0.1,0.1,0.2,0.1c-0.1,0-0.1,0.1-0.1,0.1c0.1,1.3,0.4,2.4,0.8,3.3c0,0,0,0,0,0
		c0,0,0,0,0,0c1.3,2.9,3.9,4.4,7.7,4.4c0.2,0,0.4,0,0.5,0c-0.1-0.1-0.2-0.2-0.2-0.2c0-0.1,0.1-0.2,0.2-0.2c0.1,0,0.2,0.1,0.2,0.2
		c0,0.1-0.1,0.1-0.2,0.3c0.5,0,1-0.1,1.5-0.2c0,0,0-0.1,0-0.1c0-0.1,0.1-0.2,0.2-0.4c0.2,0.2,0.2,0.3,0.3,0.4c2-0.5,3.6-1.6,4.6-3.1
		c0.4,1,1,2,1.8,3C95.7,123.9,97.2,123,98.3,122.1z M81,114.7c-0.1-0.1-0.2-0.2-0.1-0.3c0-0.1,0.1-0.2,0.2-0.2
		c0.1,0,0.1,0.1,0.2,0.2C81.2,114.5,81.2,114.6,81,114.7z M81.1,115.9c0,0-0.1,0.1-0.1,0.1c0-0.1-0.1-0.2-0.1-0.2
		c0,0,0.1-0.1,0.1-0.1C81.1,115.8,81.1,115.9,81.1,115.9z M81.1,112.9c0.1,0.1,0.2,0.2,0.2,0.2c0,0.1-0.1,0.1-0.2,0.2
		c0,0-0.2-0.1-0.1-0.2C80.9,113.1,81,113,81.1,112.9z M80.9,111.7c0.1,0,0.1-0.1,0.2-0.1c0,0,0.1,0.1,0.2,0.1
		c-0.1,0-0.2,0.1-0.2,0.1C81,111.8,81,111.7,80.9,111.7z M80.2,109.4c0.1,0.1,0.2,0.2,0.2,0.3c0,0.1-0.1,0.2-0.2,0.2
		c-0.1,0-0.2-0.1-0.2-0.2C80,109.6,80.1,109.5,80.2,109.4z M80.5,111c-0.1,0.1-0.2,0.2-0.3,0.2c-0.1,0-0.1-0.1-0.2-0.2
		c0.1-0.1,0.2-0.2,0.3-0.2C80.3,110.8,80.4,111,80.5,111z M80.2,119.1c0.1,0.1,0.2,0.2,0.2,0.3c0,0.1-0.1,0.2-0.2,0.2
		c-0.1,0-0.2-0.1-0.2-0.2C80,119.3,80.1,119.2,80.2,119.1z M80.2,115.3c-0.1,0-0.1-0.1-0.2-0.1c0,0,0.1-0.1,0.1-0.1
		c0.1,0.1,0.1,0.1,0.2,0.2C80.3,115.3,80.3,115.3,80.2,115.3z M80.4,118c0,0-0.1,0.1-0.1,0.2c-0.1-0.1-0.2-0.2-0.2-0.3
		c0,0,0.1-0.1,0.2-0.2C80.3,117.9,80.4,117.9,80.4,118z M79.3,111.5c0.1,0.1,0.2,0.2,0.2,0.2c0,0-0.1,0.2-0.1,0.2
		c-0.1-0.1-0.2-0.1-0.2-0.2C79.1,111.7,79.2,111.6,79.3,111.5z M79.3,110.3c0,0,0-0.1,0.1-0.2c0.1,0.1,0.1,0.1,0.1,0.2
		c0,0-0.1,0.1-0.1,0.1C79.3,110.4,79.3,110.3,79.3,110.3z M79.6,113.2c-0.1,0.1-0.2,0.2-0.2,0.2c-0.1,0-0.2-0.1-0.2-0.2
		c0.1-0.1,0.1-0.2,0.2-0.2C79.4,113,79.5,113.1,79.6,113.2z M78.6,109.4c0.1,0.1,0.2,0.2,0.2,0.3c0,0.1-0.1,0.2-0.2,0.2
		c-0.1,0-0.2-0.1-0.2-0.2C78.3,109.6,78.5,109.5,78.6,109.4z M78.6,110.9C78.6,110.9,78.6,111,78.6,110.9c-0.1,0-0.1,0-0.2,0
		c0,0,0.1-0.1,0.1-0.1C78.6,110.9,78.6,110.9,78.6,110.9z M78.6,112.2c0,0,0.2,0.1,0.2,0.2c0,0.1-0.1,0.2-0.2,0.3
		c-0.1-0.1-0.2-0.2-0.2-0.2C78.4,112.3,78.5,112.2,78.6,112.2z M78.6,113.8C78.6,113.9,78.6,113.9,78.6,113.8c-0.1,0.1-0.1,0-0.2,0
		C78.5,113.8,78.5,113.8,78.6,113.8C78.6,113.8,78.6,113.8,78.6,113.8z M77.6,108.8c0.1,0,0.2,0.1,0.2,0.2c0,0.1-0.1,0.1-0.2,0.3
		c-0.1-0.1-0.2-0.2-0.2-0.2C77.4,108.9,77.6,108.8,77.6,108.8z M77.7,118.9c-0.1-0.1-0.2-0.2-0.2-0.2c0-0.1,0.1-0.1,0.2-0.2
		c0.1,0.1,0.2,0.1,0.2,0.2C77.8,118.7,77.7,118.8,77.7,118.9z M77.5,111.8c0.1-0.1,0.1-0.1,0.2-0.2c0.1,0.1,0.2,0.1,0.2,0.2
		c0,0.1-0.1,0.1-0.1,0.1C77.6,111.9,77.5,111.8,77.5,111.8z M77.7,110.6c-0.1,0-0.2-0.2-0.3-0.2c0.1-0.1,0.2-0.2,0.3-0.2
		c0.1,0,0.2,0.1,0.4,0.3C77.9,110.5,77.8,110.6,77.7,110.6z M78.5,119.5c-0.1,0-0.2-0.1-0.2-0.2c0-0.1,0.1-0.2,0.2-0.3
		c0.1,0.1,0.2,0.2,0.2,0.3C78.7,119.4,78.6,119.5,78.5,119.5z M78.5,118.2c-0.1,0-0.2-0.1-0.2-0.2c0-0.1,0.1-0.1,0.2-0.3
		c0.1,0.1,0.2,0.2,0.2,0.3C78.7,118.1,78.6,118.2,78.5,118.2z M78.6,115.3c-0.1,0-0.1-0.1-0.2-0.1c0.1-0.1,0.1-0.2,0.2-0.2
		c0.1,0,0.1,0.1,0.3,0.2C78.7,115.2,78.7,115.3,78.6,115.3z M79.3,121.6c-0.1,0-0.2-0.1-0.2-0.2c0,0,0.1-0.1,0.2-0.2
		c0.1,0.1,0.2,0.2,0.3,0.2C79.5,121.5,79.4,121.6,79.3,121.6z M79.3,120C79.3,120,79.4,120,79.3,120c0.1-0.1,0.1,0,0.2,0
		C79.4,120.1,79.4,120.1,79.3,120C79.3,120.1,79.3,120.1,79.3,120z M79.4,118.8c0,0-0.1-0.1-0.1-0.1c0-0.1,0.1-0.1,0.1-0.2
		c0.1,0.1,0.1,0.1,0.1,0.2C79.5,118.7,79.4,118.7,79.4,118.8z M79.3,114.7c0,0-0.1-0.1-0.1-0.1c0-0.1,0.1-0.1,0.2-0.2
		c0.1,0,0.1,0.1,0.2,0.2C79.5,114.6,79.4,114.7,79.3,114.7z M79.4,109c0,0-0.1-0.1-0.1-0.1c0,0,0.1-0.1,0.1-0.1c0.1,0,0.1,0,0.3,0.1
		C79.5,109,79.4,109.1,79.4,109z M80.2,120.5c0.1,0.1,0.2,0.2,0.2,0.2c-0.1,0.1-0.2,0.2-0.3,0.2c-0.1,0-0.2-0.1-0.2-0.2
		C79.9,120.6,80.1,120.6,80.2,120.5z M80.1,122.3c-0.1,0-0.1-0.1-0.2-0.2c0.1-0.1,0.2-0.2,0.3-0.2c0.1,0,0.2,0.1,0.3,0.2
		C80.3,122.2,80.2,122.3,80.1,122.3z M80.2,113.9c0,0-0.1-0.1-0.2-0.1c0.1-0.1,0.1-0.2,0.2-0.2c0,0,0.1,0.1,0.3,0.1
		C80.4,113.8,80.3,113.9,80.2,113.9z M81,121.7c-0.1-0.1-0.2-0.2-0.2-0.3c0-0.1,0.1-0.2,0.2-0.2c0,0,0.2,0.1,0.2,0.2
		C81.2,121.5,81.1,121.6,81,121.7z M81.1,120.1c0,0-0.1,0-0.2-0.1c0,0,0.1-0.1,0.1-0.1c0,0,0.1,0,0.2,0.1
		C81.2,120.1,81.2,120.1,81.1,120.1z M80.9,118.6c0,0,0.1-0.1,0.2-0.4c0.1,0.2,0.2,0.3,0.2,0.4c0,0.1-0.1,0.2-0.2,0.2
		C81,118.8,80.9,118.7,80.9,118.6z M81.1,117.4c-0.1,0-0.1-0.1-0.2-0.2c0.1-0.1,0.2-0.1,0.2-0.1c0.1,0,0.1,0.1,0.3,0.2
		C81.2,117.4,81.1,117.5,81.1,117.4z M81.2,110.5c-0.1,0-0.2-0.1-0.2-0.2c0.1-0.1,0.1-0.2,0.2-0.2c0.1,0,0.2,0.1,0.3,0.2
		C81.3,110.4,81.2,110.5,81.2,110.5z M85.3,120.6c0.1,0.1,0.1,0.1,0.2,0.2c0,0-0.1,0.1-0.2,0.2c-0.1-0.1-0.1-0.2-0.1-0.2
		C85.1,120.7,85.2,120.6,85.3,120.6z M84.4,121.2c0.1,0.1,0.2,0.2,0.2,0.3c-0.1,0-0.1,0.1-0.2,0.1c-0.1,0-0.2-0.1-0.3-0.2
		C84.3,121.4,84.3,121.3,84.4,121.2z M82,120.9c0,0-0.1-0.1-0.1-0.1c0,0,0.1-0.1,0.1-0.2c0.1,0.1,0.1,0.1,0.1,0.2
		C82.1,120.8,82,120.8,82,120.9z M82,119.5c-0.1-0.1-0.1-0.1-0.1-0.1c0-0.1,0.1-0.1,0.1-0.2c0,0,0.1,0.1,0.1,0.1
		C82.1,119.4,82,119.4,82,119.5z M82.7,121.6c0,0-0.2-0.1-0.2-0.1c0-0.1,0.1-0.1,0.2-0.2c0.1,0.1,0.1,0.1,0.2,0.2
		C82.9,121.5,82.8,121.6,82.7,121.6z M82.7,120.3c-0.1,0-0.2-0.1-0.2-0.2c0.1-0.1,0.2-0.2,0.3-0.3c0,0,0.2,0.1,0.3,0.2
		C83,120.1,82.8,120.2,82.7,120.3z M83.5,120.6c0,0,0.2,0.1,0.2,0.2c0,0.1-0.1,0.2-0.2,0.3c-0.1-0.1-0.2-0.2-0.2-0.2
		C83.4,120.7,83.5,120.6,83.5,120.6z M83.7,122.3c-0.1,0-0.1-0.1-0.2-0.2c0.1-0.1,0.2-0.2,0.2-0.2c0.1,0,0.2,0.1,0.3,0.2
		C83.9,122.2,83.8,122.3,83.7,122.3z M84.4,124.4c-0.1,0-0.2-0.1-0.2-0.2c0.1-0.1,0.1-0.2,0.2-0.2c0.1,0,0.2,0.1,0.3,0.2
		C84.6,124.3,84.5,124.4,84.4,124.4z M85.2,122c0.1,0,0.1,0.1,0.1,0.1c0,0,0,0.1-0.1,0.1c-0.1,0-0.1-0.1-0.2-0.1
		C85.2,122,85.2,122,85.2,122z M85.3,123.6c-0.1,0-0.2-0.1-0.2-0.2c0-0.1,0.1-0.1,0.2-0.3c0.1,0.2,0.2,0.3,0.2,0.3
		C85.5,123.5,85.4,123.6,85.3,123.6z M86.1,123c-0.1,0-0.2-0.1-0.2-0.2c0-0.1,0.1-0.1,0.2-0.3c0.1,0.1,0.2,0.2,0.2,0.3
		C86.3,122.9,86.1,123.1,86.1,123z M86.3,121.5c-0.1,0.1-0.2,0.2-0.3,0.2c0,0-0.2-0.1-0.2-0.2c0-0.1,0.1-0.2,0.3-0.4
		C86.3,121.3,86.4,121.4,86.3,121.5z M87,123.6c-0.1,0-0.2-0.1-0.2-0.2c0-0.1,0.1-0.1,0.2-0.4c0.1,0.2,0.2,0.3,0.2,0.4
		C87.2,123.5,87.1,123.6,87,123.6z M87,122.4c-0.1-0.1-0.2-0.2-0.2-0.3c0-0.1,0.1-0.2,0.2-0.2c0.1,0,0.2,0.1,0.2,0.2
		C87.2,122.2,87.1,122.2,87,122.4z M90.3,119.1c0.1,0.1,0.2,0.2,0.2,0.3c0,0.1-0.1,0.2-0.2,0.2c-0.1,0-0.2-0.1-0.2-0.2
		C90.2,119.3,90.2,119.2,90.3,119.1z M89.5,120c0,0,0.1,0,0.1,0.1c-0.1,0-0.1,0.1-0.1,0.1c0,0-0.1-0.1-0.1-0.1
		C89.4,120,89.5,120,89.5,120z M87.9,121.3c0,0.1,0.1,0.1,0.1,0.2c0,0-0.1,0.1-0.1,0.1c-0.1-0.1-0.1-0.1-0.1-0.2
		C87.7,121.4,87.8,121.4,87.9,121.3z M87.9,123c-0.1,0-0.1-0.1-0.1-0.2c0,0,0.1-0.1,0.1-0.1c0,0,0.1,0.1,0.2,0.2
		C88,122.9,87.9,123,87.9,123z M88.6,123.6c0,0-0.1-0.1-0.1-0.1c0.1,0,0.1-0.1,0.2-0.1c0,0,0.1,0.1,0.2,0.1
		C88.8,123.6,88.7,123.6,88.6,123.6z M88.7,122.3c-0.1,0-0.1-0.1-0.2-0.1c0.1-0.1,0.1-0.2,0.2-0.2c0.1,0,0.2,0.1,0.3,0.2
		C88.8,122.2,88.8,122.3,88.7,122.3z M89.5,123c-0.1,0-0.1-0.1-0.1-0.1c0-0.1,0.1-0.1,0.1-0.3c0.1,0.1,0.2,0.2,0.2,0.2
		C89.6,122.9,89.6,122.9,89.5,123z M90.3,122.3c-0.1,0-0.2-0.1-0.3-0.2c0.2-0.1,0.2-0.2,0.3-0.2c0.1,0,0.2,0.1,0.2,0.2
		C90.5,122.2,90.4,122.3,90.3,122.3z"/>
	<path class="st1" d="M116,120.2c-0.6,0.1-1.6,0.4-2.5,0.4c-2.9,0-4.4-1.8-4.4-5.1v-9.4h6.7c0.2-0.5,0.2-1,0.2-1.8
		c0-0.6,0-1.3-0.3-1.9h-6.6v-4.8c-0.6-0.1-1.4-0.2-2.3-0.2c-1,0-1.8,0.1-2.3,0.2v4.9l-3.2,0.6c-0.2,1-0.2,2,0,3h3.2v10.3
		c0,5.1,3.3,8,8,8c2,0,3.8-0.6,4.5-0.9C116.9,121.7,116.4,120.6,116,120.2z M106.5,115.6c-0.1,0.1-0.2,0.1-0.2,0.1
		c-0.1,0-0.1-0.1-0.2-0.1c0,0,0.1-0.1,0.1-0.1C106.4,115.5,106.4,115.5,106.5,115.6z M106.2,113.6c0,0-0.1-0.1-0.1-0.1
		c0.1,0,0.1-0.1,0.2-0.1c0,0,0.1,0.1,0.2,0.1C106.4,113.5,106.3,113.6,106.2,113.6z M104.9,113.8c-0.1-0.2-0.1-0.3-0.1-0.3
		c0-0.1,0.1-0.2,0.1-0.2c0.1,0,0.2,0.1,0.2,0.2C105.2,113.5,105.1,113.6,104.9,113.8z M105.6,114.1c0,0-0.1-0.1-0.2-0.1
		c0.1-0.1,0.2-0.1,0.2-0.1c0,0,0.1,0.1,0.1,0.1C105.7,114,105.7,114.1,105.6,114.1z M105.6,112.9c0.3-0.1,0.5-0.3,0.8-0.5
		c0,0,0,0,0,0c0,0,0,0,0,0c-0.1-0.1,0,0,0,0c0,0,0,0,0,0c0,0,0,0,0,0c-0.2,0.2-0.4,0.4-0.6,0.6C105.8,113,105.7,112.9,105.6,112.9z
		 M106.1,116.7c0-0.1,0.1-0.1,0.2-0.2c0.1,0.1,0.1,0.1,0.2,0.2c-0.1,0-0.1,0.1-0.2,0.1C106.2,116.8,106.1,116.7,106.1,116.7z
		 M106.3,117.6c0.1,0.1,0.1,0.1,0.1,0.2c-0.1,0-0.1,0.1-0.2,0.1c0,0-0.1-0.1-0.1-0.1C106.2,117.7,106.2,117.7,106.3,117.6z
		 M106.3,119.1c-0.1,0-0.1-0.1-0.2-0.1c0.1-0.1,0.1-0.1,0.2-0.2c0.1,0,0.1,0.1,0.3,0.1C106.5,119,106.4,119.1,106.3,119.1z
		 M109,110.1c0,0,0.1,0.1,0.1,0.1c0,0.1-0.1,0.1-0.2,0.2c-0.1-0.1-0.1-0.1-0.2-0.2C108.8,110.2,108.9,110.1,109,110.1z M109,111.3
		c-0.1,0-0.1,0.1-0.2,0.1c0,0-0.1-0.1-0.1-0.1c0-0.1,0.1-0.1,0.1-0.2C109,111.2,109,111.2,109,111.3z M107,109.5
		c0,0.1,0.1,0.1,0.1,0.2c0,0-0.1,0-0.1,0.1c0,0-0.1-0.1-0.1-0.1C106.9,109.6,106.9,109.6,107,109.5z M107,110.6
		c0,0.1,0.1,0.1,0.1,0.1c0,0-0.1,0.1-0.1,0.1c0,0-0.1-0.1-0.1-0.1C106.9,110.7,106.9,110.7,107,110.6z M106.9,111.6
		c0.1,0.1,0.1,0.2,0.1,0.2c0,0.1-0.1,0.1-0.2,0.2c0,0-0.2-0.1-0.1-0.1C106.8,111.8,106.8,111.7,106.9,111.6z M107,114.1
		c0-0.1-0.1-0.1-0.1-0.1c0,0,0-0.1,0.1-0.1c0,0,0.1,0.1,0.1,0.1C107,114,107,114,107,114.1z M107,115.1
		C107,115.1,107,115.1,107,115.1c-0.1,0-0.1,0-0.1,0c0,0,0,0,0.1-0.1C107,115,107,115,107,115.1z M106.9,113c0-0.1-0.1-0.1-0.1-0.1
		c0,0,0.1-0.1,0.1-0.1c0,0,0.1,0.1,0.1,0.1C107,112.9,107,112.9,106.9,113z M106.9,117.1c0.1,0,0.1,0.1,0.2,0.1
		c-0.1,0.1-0.2,0.1-0.2,0.1c-0.1,0-0.1-0.1-0.2-0.1C106.8,117.2,106.8,117.1,106.9,117.1z M106.9,118.4c-0.1,0-0.1-0.1-0.2-0.1
		c0.1,0,0.1-0.1,0.2-0.1c0.1,0,0.1,0.1,0.2,0.1C107,118.4,106.9,118.5,106.9,118.4z M107.6,115.4c0.1,0.1,0.2,0.2,0.2,0.2
		c0,0.1-0.1,0.1-0.2,0.2c-0.1,0-0.1-0.1-0.2-0.1C107.4,115.6,107.5,115.5,107.6,115.4z M107.4,111.3c0,0,0.1-0.1,0.1-0.1
		c0,0,0.1,0.1,0.2,0.1c-0.1,0.1-0.2,0.1-0.2,0.1C107.5,111.4,107.5,111.3,107.4,111.3z M107.7,118.8c0,0-0.1,0.1-0.1,0.1
		c0,0-0.1,0-0.1-0.1c0-0.1,0-0.1,0.1-0.3C107.7,118.7,107.7,118.8,107.7,118.8z M107.6,117.9c-0.1,0-0.1-0.1-0.2-0.1
		c0,0,0.1-0.1,0.1-0.1c0.1,0,0.1,0,0.2,0.1C107.7,117.8,107.6,117.9,107.6,117.9z M107.6,116.8c-0.1,0-0.1-0.1-0.2-0.1
		c0,0,0.1-0.1,0.1-0.1c0.1,0,0.1,0.1,0.3,0.1C107.7,116.7,107.7,116.8,107.6,116.8z M107.6,110.3c0,0-0.1-0.1-0.1-0.1
		c0.1-0.1,0.3-0.2,0.4-0.2c0,0,0,0,0,0C107.8,110.1,107.7,110.2,107.6,110.3z M108.2,110.6c0.1,0.1,0.1,0.1,0.1,0.2
		c0,0.1-0.1,0.1-0.1,0.1c0,0-0.1-0.1-0.1-0.1C108.1,110.7,108.2,110.6,108.2,110.6z M108.2,120.6c0,0-0.1-0.1-0.1-0.1
		c0,0,0-0.1,0.1-0.2c0.1,0.1,0.1,0.1,0.1,0.2C108.3,120.5,108.3,120.5,108.2,120.6z M108.2,119.5c0,0-0.1-0.1-0.1-0.1
		c0,0,0.1-0.1,0.1-0.1c0,0,0,0.1,0.1,0.1C108.3,119.4,108.3,119.4,108.2,119.5z M108.4,115.3c-0.1-0.1-0.2-0.2-0.2-0.2
		c0-0.1,0.1-0.1,0.1-0.2c0.1,0.1,0.2,0.1,0.2,0.2C108.5,115.2,108.4,115.2,108.4,115.3z M108.9,115.4c0.1,0.1,0.2,0.2,0.2,0.2
		c0,0.1-0.1,0.1-0.2,0.2c0,0-0.1-0.1-0.2-0.1C108.8,115.6,108.8,115.5,108.9,115.4z M108.9,120C108.8,120,108.8,120,108.9,120
		c0-0.1,0-0.2,0.1-0.2c0,0,0.1,0.1,0.1,0.1C109,120,108.9,120,108.9,120z M108.8,118.8c0,0,0.1-0.1,0.1-0.1c0.1,0,0.1,0.1,0.2,0.1
		c0,0-0.1,0.1-0.1,0.2C108.8,118.9,108.8,118.9,108.8,118.8z M109,116.8c-0.1,0-0.1-0.1-0.2-0.1c0.1-0.1,0.1-0.1,0.2-0.1
		c0,0,0.1,0.1,0.2,0.1C109.1,116.7,109,116.8,109,116.8z M112.2,123.2c-0.1-0.1-0.1-0.2-0.1-0.2c0,0,0.1-0.1,0.1-0.1
		c0,0,0.1,0.1,0.1,0.2C112.3,123,112.3,123.1,112.2,123.2z"/>
	<path class="st1" d="M120.9,102.4V124c0.6,0.1,1.3,0.2,2.3,0.2c0.9,0,1.7,0,2.3-0.2v-21.6c-0.6-0.2-1.4-0.2-2.3-0.2
		C122.3,102.2,121.5,102.3,120.9,102.4z M122.1,111.8c0.1,0,0.1,0,0.3,0.1c-0.1,0.1-0.2,0.1-0.3,0.2c-0.1,0-0.1-0.1-0.2-0.1
		C121.9,111.9,122,111.8,122.1,111.8z M122.1,113.6c0.1,0,0.2,0.1,0.4,0.2c-0.2,0.1-0.3,0.2-0.4,0.2c-0.1,0-0.2-0.2-0.3-0.3
		C121.8,113.7,121.9,113.6,122.1,113.6z M122.3,115.6c0,0.1-0.2,0.2-0.3,0.2c-0.1,0-0.2-0.1-0.3-0.2c0-0.1,0.1-0.2,0.2-0.5
		C122.2,115.4,122.4,115.5,122.3,115.6z M122,118.1c-0.3-0.3-0.4-0.5-0.6-0.7c0.2-0.1,0.4-0.4,0.5-0.4c0.2,0.1,0.4,0.3,0.5,0.5
		C122.5,117.7,122.3,117.9,122,118.1z"/>
	<path class="st1" d="M133.7,107.6c0,0,0.1,0,0.1-0.1C133.8,107.5,133.8,107.5,133.7,107.6c0-0.1-0.1-0.2-0.2-0.3
		c0.1-0.1,0.2-0.2,0.3-0.2c0.1,0,0.2,0.1,0.4,0.2c1.4-0.8,2.9-1.5,5-1.5c0.3,0,0.7,0,1,0.1c0.2-0.1,0.4-0.2,0.6-0.4c0,0,0,0,0.1-0.1
		c0,0,0,0,0,0c-0.1-0.1,0,0,0,0c0,0,0,0,0,0c0,0-0.1,0-0.1,0c-0.1,0.1-0.3,0.3-0.4,0.4c0.5,0.1,0.9,0.2,1.2,0.4c0,0,0.1-0.1,0.1-0.1
		c0,0.1,0.1,0.1,0.1,0.2c0,0,0,0,0,0.1c1.8,0.9,2.7,2.6,2.7,4.7v0.4c-1.2-0.3-2.4-0.5-3.6-0.6c-0.1,0.1-0.2,0.2-0.3,0.2
		c-0.1,0-0.2-0.1-0.3-0.2c-0.4,0-0.9,0-1.3,0c-5.7,0-8.5,3-8.5,6.7c0,3.9,2.9,7,7.7,7c3.5,0,5.8-1.6,7-3.8c0.3,1.2,0.9,2.3,1.8,3.3
		c1.3-0.2,2.7-0.9,3.7-1.9c-1.4-1.9-1.7-3.3-1.7-5.8v-5.6c0-5.3-3.9-8.8-9.2-8.8c-3.6,0-6.2,1.1-8,2.7
		C131.7,105.8,133.2,107.6,133.7,107.6z M142.8,112.4c0.1,0,0.2,0.1,0.4,0.2c-0.2,0.1-0.3,0.2-0.4,0.2c-0.1,0-0.2-0.1-0.3-0.2
		C142.6,112.5,142.7,112.4,142.8,112.4z M141.6,113.4c0.1,0,0.2,0.1,0.4,0.2c-0.2,0.1-0.3,0.2-0.4,0.2c-0.1,0-0.2-0.2-0.3-0.2
		C141.4,113.5,141.5,113.4,141.6,113.4z M140.5,112.3c0.1,0.2,0.2,0.2,0.3,0.3c-0.1,0.1-0.2,0.2-0.3,0.2c-0.1,0-0.3-0.1-0.3-0.2
		C140.2,112.6,140.4,112.5,140.5,112.3z M132.7,113.8c-0.1,0-0.2-0.1-0.2-0.2c0.1-0.1,0.2-0.2,0.3-0.2c0.1,0,0.2,0.1,0.3,0.2
		C133,113.6,132.9,113.8,132.7,113.8z M133.8,112.9c-0.1-0.1-0.3-0.2-0.2-0.3c0.1-0.1,0.2-0.2,0.3-0.3c0.1,0.1,0.2,0.2,0.2,0.2
		C134.1,112.7,134,112.8,133.8,112.9z M144.6,114.9L144.6,114.9c0,3.9-2.3,6.1-5.6,6.1c-2.5,0-4.3-1.4-4.3-3.5c0-2,1.8-3.3,5.2-3.3
		C141.7,114.1,143.1,114.3,144.6,114.9L144.6,114.9z"/>
	<path class="st1" d="M50.3,120.8v3.1c0.6,0.1,1.3,0.2,2.1,0.2c0,0,0,0,0.1-0.1c0,0,0,0,0,0.1c0.6,0,1.2-0.1,1.7-0.2v-1.1
		c0,0,0,0.1-0.1,0.1c0,0-0.1-0.1-0.1-0.1c0,0,0-0.1,0.1-0.2c0.1,0.1,0.1,0.1,0.1,0.1v-1.2c0,0,0,0,0,0c-0.1,0-0.1-0.1-0.2-0.2
		c0.1-0.1,0.1-0.1,0.2-0.2v-1.2c0,0,0,0,0,0c0,0-0.1-0.1-0.1-0.1c0,0,0.1-0.1,0.1-0.1v-1c0,0,0,0.1-0.1,0.1
		c-0.1-0.2-0.1-0.3-0.1-0.4c0-0.1,0.1-0.2,0.1-0.2c0,0,0,0,0.1,0v-1.1c0,0-0.1,0.1-0.1,0.1c-0.1-0.1-0.1-0.2-0.1-0.2
		c0,0,0.1-0.1,0.1-0.1c0,0,0.1,0.1,0.1,0.1V116c0,0-0.1,0-0.1,0c0,0-0.1-0.1-0.1-0.1c0-0.1,0.1-0.1,0.1-0.2c0,0,0,0,0.1,0v-0.1
		l0.5,0c0.3,0,0.7,0,1,0c0-0.1,0.1-0.1,0.1-0.1c0.1,0,0.1,0,0.2,0.1c0.4,0,0.8,0,1.2,0c0.1-0.1,0.1-0.1,0.2-0.1
		c0.1,0,0.1,0.1,0.3,0.1c0.5,0,0.9,0,1.4,0c0.6,0,1.2,0,1.7-0.1c0.1-0.2,0.1-0.4,0.2-0.6c0,0,0-0.1,0-0.1c0.1-0.3,0.2-0.6,0.4-0.9
		c0-0.1,0.1-0.1,0.1-0.2c0.1-0.2,0.2-0.4,0.3-0.7c0-0.1,0.1-0.2,0.1-0.2c0-0.1,0.1-0.1,0.1-0.2c-0.7-0.2-1.4-0.3-2.1-0.4
		c-0.6,0-1.2,0-1.9,0c-0.8,0-2.4,0-3.1,0c0,0,0,0,0,0c-0.2,0-0.3,0.1-0.5,0.1c0,0,0,0,0,0c-0.2,0-0.4,0.1-0.6,0.1c0,0,0,0,0,0
		c-0.2,0.1-0.4,0.1-0.6,0.2c0,0,0,0,0,0c-0.2,0.1-0.4,0.1-0.6,0.2c0,0,0,0-0.1,0c-0.2,0.1-0.4,0.2-0.6,0.3c0,0,0,0-0.1,0
		c-0.1,0-0.1,0.1-0.2,0.1c0,0,0.1,0.1,0.2,0.1c-0.2,0.1-0.3,0.1-0.3,0.1c0,0-0.1,0-0.1-0.1c0,0-0.1,0-0.1,0c0,0,0,0-0.1,0
		c-0.2,0.1-0.3,0.2-0.5,0.4c0,0,0,0,0,0c0.1,0,0.1,0.1,0.2,0.2c-0.1,0.1-0.2,0.2-0.3,0.2c0,0-0.1,0-0.1-0.1
		c-0.1,0.1-0.2,0.2-0.2,0.3c0,0,0,0,0,0V120.8C50.3,120.7,50.3,120.7,50.3,120.8C50.3,120.7,50.3,120.7,50.3,120.8z M55,115.3
		c-0.1-0.1-0.1-0.1-0.2-0.2c0,0,0.1-0.1,0.1-0.1c0.1,0,0.1,0.1,0.2,0.1C55.1,115.3,55,115.3,55,115.3z M55.8,114.8
		c-0.1-0.1-0.2-0.2-0.2-0.2c0-0.1,0.1-0.2,0.2-0.2c0.1,0.1,0.2,0.1,0.2,0.2C56,114.6,55.9,114.6,55.8,114.8z M57.5,112.9
		c0.1,0.1,0.2,0.1,0.2,0.1c0,0-0.1,0.1-0.1,0.1c0,0-0.1,0-0.1-0.1C57.4,113,57.4,113,57.5,112.9z M57.5,114.3c0.1,0,0.2,0.1,0.3,0.2
		c-0.2,0.1-0.3,0.2-0.3,0.2c-0.1,0-0.1-0.1-0.2-0.2C57.4,114.5,57.5,114.4,57.5,114.3z M55.9,113c0.3,0.2,0.6,0.5,1,0.8
		c-0.2,0.1-0.3,0.2-0.4,0.2c-0.3-0.3-0.6-0.5-1-0.8C55.7,113.1,55.9,112.9,55.9,113z M55,113.5c0.1,0.1,0.2,0.2,0.2,0.2
		c0,0.1-0.1,0.2-0.2,0.2c0,0-0.1-0.1-0.2-0.1C54.8,113.7,54.9,113.6,55,113.5z M54.1,114.7c0-0.1-0.1-0.1-0.1-0.2
		c0,0,0.1-0.1,0.1-0.2c0.1,0.1,0.1,0.2,0.1,0.2C54.2,114.6,54.2,114.6,54.1,114.7z M54.1,113c0.1,0,0.1,0.1,0.2,0.1
		c-0.1,0.1-0.2,0.2-0.2,0.1c-0.1,0-0.1-0.1-0.1-0.1C54,113.1,54.1,113,54.1,113z M52.5,123c-0.1,0-0.1-0.1-0.2-0.2
		c0.1-0.1,0.1-0.1,0.1-0.1c0,0.1,0.1,0.1,0.1,0.2C52.6,122.9,52.5,122.9,52.5,123z M52.4,121.6c-0.1-0.1-0.1-0.1-0.1-0.2
		c0-0.1,0.1-0.1,0.1-0.2c0,0,0.1,0.1,0.1,0.1C52.6,121.5,52.5,121.6,52.4,121.6z M52.3,119c-0.1-0.2-0.1-0.3-0.1-0.4
		c0-0.1,0.1-0.2,0.2-0.2c0,0,0.2,0.1,0.2,0.1C52.6,118.7,52.5,118.8,52.3,119z M52.2,117.3c0-0.1,0.1-0.2,0.2-0.2
		c0,0,0.2,0.1,0.2,0.2c0,0.1-0.1,0.2-0.2,0.3C52.3,117.4,52.2,117.3,52.2,117.3z M53.3,123.6c0,0-0.1-0.1-0.1-0.1
		c0,0,0.1-0.1,0.1-0.1c0.1,0.1,0.1,0.1,0.1,0.1C53.4,123.6,53.3,123.6,53.3,123.6z M53.3,113.5c0.1,0.1,0.2,0.2,0.2,0.3
		c0,0-0.1,0.1-0.2,0.1c-0.1,0-0.2-0.1-0.2-0.1C53.1,113.7,53.2,113.6,53.3,113.5z M53.3,116.5c0.1,0,0.1,0.1,0.2,0.1
		c0,0-0.1,0.1-0.1,0.1c-0.1-0.1-0.1-0.1-0.2-0.1C53.2,116.5,53.2,116.4,53.3,116.5z M53.1,115.2c0.1,0,0.1-0.1,0.2-0.1
		c0,0,0.1,0.1,0.1,0.1c0,0.1,0,0.1-0.1,0.2C53.2,115.3,53.2,115.3,53.1,115.2z M53.3,117.8c0.1,0,0.1,0.1,0.3,0.2
		c-0.1,0.1-0.2,0.2-0.3,0.2c-0.1,0-0.1-0.1-0.2-0.2C53.1,117.9,53.2,117.8,53.3,117.8z M53.3,119.1c0.1,0.1,0.2,0.2,0.2,0.3
		c0,0.1-0.1,0.2-0.2,0.2c-0.1,0-0.2-0.1-0.2-0.2C53.1,119.3,53.2,119.2,53.3,119.1z M53.3,120.5c0.1,0,0.2,0.1,0.3,0.1
		c-0.2,0.1-0.2,0.2-0.3,0.2c-0.1,0-0.1-0.1-0.2-0.1C53.1,120.7,53.2,120.6,53.3,120.5z M52.4,114.4c0.1,0,0.1,0.1,0.2,0.2
		c-0.1,0.1-0.1,0.1-0.2,0.1c-0.1,0-0.1-0.1-0.1-0.1C52.3,114.5,52.4,114.4,52.4,114.4z M52.4,115.7c0,0,0.1,0.1,0.3,0.2
		c-0.1,0.1-0.2,0.2-0.3,0.2c0,0-0.1-0.1-0.2-0.2C52.3,115.9,52.3,115.8,52.4,115.7z M52.4,119.9c0.1,0,0.2,0.1,0.2,0.2
		c0,0.1-0.1,0.1-0.2,0.4c-0.1-0.2-0.2-0.3-0.2-0.4C52.2,120,52.3,119.9,52.4,119.9z M51.6,123.8c-0.1-0.2-0.1-0.3-0.2-0.4
		c0,0,0.1-0.2,0.2-0.1c0.1,0,0.2,0.1,0.3,0.2C51.8,123.5,51.8,123.6,51.6,123.8z M51.4,122.1c0,0,0.1-0.2,0.2-0.2
		c0.1,0,0.2,0.1,0.3,0.2c0,0-0.1,0.1-0.2,0.2C51.5,122.3,51.4,122.2,51.4,122.1z M51.6,120.9c-0.1,0-0.1-0.1-0.2-0.2
		c0.1-0.1,0.1-0.2,0.2-0.2c0.1,0,0.2,0.1,0.3,0.2C51.8,120.8,51.7,120.9,51.6,120.9z M51.6,119.5c-0.1,0-0.1-0.1-0.2-0.2
		c0.1-0.1,0.2-0.1,0.2-0.2c0.1,0,0.1,0.1,0.3,0.2C51.8,119.5,51.7,119.5,51.6,119.5z M51.6,115.1c0,0,0.1,0.1,0.1,0.1
		c0,0.1-0.1,0.2-0.1,0.3c-0.1-0.1-0.2-0.2-0.2-0.2C51.5,115.2,51.5,115.1,51.6,115.1z M51.8,116.6c-0.1,0-0.1,0.1-0.2,0.1
		c0,0-0.1-0.1-0.1-0.1c0,0,0.1-0.1,0.2-0.1C51.7,116.5,51.7,116.5,51.8,116.6z M51.6,117.8c0.1,0,0.1,0.1,0.3,0.2
		c-0.1,0.1-0.2,0.2-0.3,0.2c-0.1,0-0.1-0.1-0.2-0.2C51.4,117.9,51.5,117.8,51.6,117.8z M50.8,118.4c0,0,0.1,0.1,0.2,0.2
		c-0.1,0.1-0.2,0.2-0.3,0.2c-0.1,0-0.1-0.1-0.2-0.2C50.6,118.6,50.7,118.5,50.8,118.4z M51,121.5c-0.1,0.1-0.2,0.2-0.3,0.2
		c-0.1,0-0.2-0.1-0.2-0.2c0,0,0.1-0.1,0.2-0.1C50.8,121.3,50.9,121.4,51,121.5z M50.8,119.8c0.1,0.1,0.2,0.2,0.2,0.3
		c0,0.1-0.1,0.2-0.2,0.2c-0.1,0-0.2-0.1-0.2-0.2C50.5,120,50.6,119.9,50.8,119.8z M50.7,122.7c0.1,0,0.2,0.1,0.3,0.2
		c-0.1,0.1-0.2,0.2-0.3,0.2c-0.1,0-0.2-0.1-0.2-0.2C50.5,122.8,50.6,122.7,50.7,122.7z"/>
	<path class="st1" d="M67.1,109.4c-0.1,0.1-0.2,0.1-0.3,0.2c0,0,0.1,0.1,0.1,0.1c0,0-0.1,0.1-0.1,0.1c0-0.1-0.1-0.1-0.1-0.2
		c0,0,0,0,0,0c-0.3,0.2-0.5,0.3-0.8,0.5c0.1,0,0.2,0.1,0.3,0.2c-0.1,0.1-0.2,0.2-0.3,0.2c-0.1,0-0.1-0.1-0.2-0.2
		c-0.4,0.3-0.7,0.6-1,0.9c-0.1,0.1-0.2,0.2-0.3,0.3v0.3l-0.3,0c-0.1,0.1-0.1,0.2-0.2,0.2c-0.1,0.2-0.2,0.3-0.4,0.5
		c-0.1,0.1-0.2,0.3-0.3,0.4l0,0.1c-0.1,0.1-0.1,0.2-0.2,0.3c-0.1,0.1-0.2,0.3-0.3,0.4c-0.1,0.1-0.1,0.2-0.2,0.4
		c-0.1,0.1-0.1,0.3-0.2,0.4c-0.1,0.1-0.1,0.2-0.2,0.4c-0.1,0.2-0.1,0.3-0.2,0.5c0,0.1-0.1,0.2-0.1,0.3c0,0,0,0.1,0,0.1
		c1.5-0.2,2.8-0.5,4-1c-0.1,0-0.1-0.1-0.2-0.2c0-0.1,0.1-0.2,0.2-0.3c0.1,0.1,0.2,0.2,0.2,0.3c0,0,0,0,0,0.1
		c0.2-0.1,0.3-0.1,0.5-0.2c1.2-0.6,2.2-1.3,3.1-2.1c-0.1-0.1-0.2-0.3-0.3-0.4c0,0,0,0,0,0c0,0-0.1,0-0.1,0c-0.1,0-0.1-0.1-0.2-0.1
		c0.1,0,0.1-0.1,0.2-0.1c0,0,0-0.1,0-0.1c-0.2-0.3-0.4-0.6-0.6-0.9c0,0,0-0.1-0.1-0.1c-0.1-0.2-0.2-0.5-0.4-0.7c0,0,0,0-0.1,0
		c0,0,0,0,0,0c0,0,0,0,0,0c0-0.1-0.1-0.2-0.1-0.3c-0.1-0.1-0.1-0.3-0.2-0.4C67.6,109.1,67.4,109.2,67.1,109.4z M65.2,113.9
		c0-0.1-0.1-0.2-0.1-0.2c0,0,0.1-0.1,0.1-0.1c0,0.1,0.1,0.1,0.1,0.2C65.3,113.8,65.3,113.9,65.2,113.9z M65.9,111.9
		c0,0-0.2-0.1-0.2-0.2c0-0.1,0.1-0.1,0.2-0.2c0.1,0.1,0.1,0.2,0.2,0.2C66.1,111.8,66,111.9,65.9,111.9z M66.6,112.4
		c0-0.1,0.1-0.1,0.2-0.3c0.1,0.1,0.2,0.2,0.2,0.3c0,0.1-0.1,0.2-0.2,0.2C66.7,112.6,66.6,112.5,66.6,112.4z M66.8,113.9
		c0,0-0.1-0.1-0.1-0.1c0-0.1,0.1-0.1,0.1-0.1c0,0,0.1,0.1,0.1,0.1C66.9,113.8,66.9,113.9,66.8,113.9z M66.9,111.2
		c-0.1,0-0.1-0.1-0.1-0.1c0,0,0.1-0.1,0.1-0.1c0.1,0,0.1,0.1,0.3,0.2C67,111.1,66.9,111.2,66.9,111.2z M67.6,111.2
		c0.1,0.4,0.2,0.5,0.2,0.5c0,0.1-0.1,0.1-0.2,0.1c0,0-0.1-0.1-0.1-0.1C67.5,111.6,67.5,111.6,67.6,111.2z M67.7,113.2
		c-0.1,0-0.1,0-0.2-0.1c0,0,0.1-0.1,0.1-0.1c0,0,0.1,0,0.2,0.1C67.8,113.1,67.7,113.1,67.7,113.2z M67.6,110.5c0,0-0.1,0-0.1-0.1
		c0,0,0.1-0.1,0.1-0.1c0,0,0.1,0,0.2,0.1C67.8,110.4,67.7,110.4,67.6,110.5z M68.6,112.6c-0.1,0-0.2-0.1-0.2-0.2
		c0,0,0.1-0.2,0.2-0.1c0.1,0,0.2,0.1,0.3,0.2C68.7,112.6,68.6,112.6,68.6,112.6z M68.5,110.9c0.1,0,0.1,0.1,0.2,0.1
		c-0.1,0.1-0.2,0.2-0.2,0.2c-0.1,0-0.1-0.1-0.2-0.2C68.3,111,68.4,110.9,68.5,110.9z"/>
	<path class="st1" d="M68.2,102.9L68.2,102.9c-0.1,0.6-0.1,1.1-0.1,1.7c0,0.7,0.1,1.4,0.2,2.1l0,0.1c0.1,0.5,0.2,0.9,0.3,1.4
		c0,0,0,0,0,0c0.1,0.3,0.2,0.6,0.3,0.9c0,0.1,0.1,0.2,0.1,0.3c0.1,0.2,0.2,0.4,0.3,0.6c0.1,0.1,0.1,0.2,0.2,0.3
		c0.1,0.2,0.2,0.4,0.3,0.5c0.1,0.1,0.2,0.2,0.2,0.3c0.1,0.1,0.1,0.2,0.2,0.2c1-1.2,1.7-2.7,2-4.3c0.1-0.7,0.2-1.5,0.2-2.3
		c0-0.8-0.1-1.6-0.2-2.4c0,0-0.1,0-0.1,0c-0.3,0-0.6,0-0.9-0.1c-0.1,0-0.1,0-0.2,0c-0.3,0-0.5-0.1-0.8-0.1c0,0-0.1,0-0.1,0
		c-0.3-0.1-0.6-0.1-0.8-0.2c-0.1,0-0.1,0-0.2-0.1c-0.3-0.1-0.6-0.2-0.8-0.3c0,0,0,0,0,0C68.4,102.1,68.3,102.5,68.2,102.9z"/>
	<path class="st1" d="M65.7,96c-0.3,0.2-0.6,0.3-0.9,0.5c0,0,0,0,0,0c-0.4,0.2-0.7,0.3-1.1,0.5c0.3,0.4,0.7,0.8,1.1,1.2
		c0.1,0.1,0.3,0.3,0.4,0.4c0.4,0.3,0.8,0.6,1.2,0.9c0.6,0.5,1.3,0.8,2,1.1c0.3,0.1,0.6,0.2,0.8,0.3c0,0,0.1,0,0.1,0
		c0.3,0.1,0.5,0.2,0.8,0.2c0.1,0,0.1,0,0.2,0c0.3,0.1,0.6,0.1,0.8,0.2c0,0,0.1,0,0.1,0c0.3,0,0.6,0.1,0.8,0.1c0,0,0,0,0.1,0
		c-0.5-1.5-1.2-2.9-2.3-4c-0.9-0.9-1.9-1.7-3.1-2.2c0,0-0.1,0-0.1,0.1c-0.3,0.2-0.5,0.4-0.8,0.5C65.8,96,65.7,96,65.7,96z"/>
	<path class="st1" d="M54,111.8c0-0.1,0.1-0.1,0.2-0.1v-1.1c0,0,0,0,0,0c-0.1,0-0.1-0.1-0.2-0.2c0.1-0.1,0.1-0.2,0.2-0.2
		c0,0,0,0,0,0v-13l0.5,0c1.2-0.1,2.4,0,3.4,0l0.5,0c1.6-0.2,3.8-0.6,5.8-1.4c0,0,0,0,0,0c0.2-0.1,0.4-0.2,0.6-0.3
		c0.1,0,0.1-0.1,0.2-0.1c0.2-0.1,0.3-0.2,0.4-0.3c0,0,0.1,0,0.1-0.1c-1.3-0.5-2.8-0.8-4.4-1c-0.7-0.1-1.4-0.1-2.1-0.1h-8.9v19.8
		c0.1-0.1,0.1-0.1,0.2-0.2c0,0,0.1-0.1,0.1-0.1c-0.1-0.1-0.1-0.1-0.1-0.2c0,0,0.1-0.2,0.2-0.1c0.1,0,0.1,0.1,0.2,0.2
		c0.1-0.1,0.2-0.1,0.3-0.2c0,0,0.1,0,0.1-0.1c0.2-0.1,0.4-0.2,0.6-0.3c0.1,0,0.1,0,0.2-0.1c0.2-0.1,0.4-0.2,0.7-0.3c0,0,0.1,0,0.1,0
		c0.2-0.1,0.4-0.1,0.6-0.2c0.1,0,0.1,0,0.2,0c0.2,0,0.3-0.1,0.5-0.1C54,111.8,54,111.8,54,111.8z M53.3,109.4
		c0.1,0.1,0.2,0.2,0.2,0.3c0,0.1-0.1,0.1-0.2,0.2c-0.1-0.1-0.2-0.1-0.2-0.2C53.1,109.6,53.2,109.5,53.3,109.4z M51.7,109.5
		c0.1,0,0.2,0.1,0.2,0.2c0,0.1-0.1,0.1-0.2,0.3c-0.1-0.1-0.1-0.2-0.2-0.3C51.5,109.6,51.6,109.5,51.7,109.5z M50.5,110.3
		c0.1-0.1,0.2-0.1,0.3-0.2c0,0,0.2,0.1,0.1,0.2c0,0.1-0.1,0.1-0.2,0.2C50.6,110.4,50.6,110.4,50.5,110.3z M50.7,111.8
		c0,0-0.1-0.1-0.1-0.1c0,0,0.1-0.1,0.1-0.1c0,0,0.1,0,0.2,0.1C50.8,111.7,50.8,111.8,50.7,111.8z M51.6,111.2
		c-0.1,0-0.1-0.1-0.2-0.2c0.1-0.1,0.1-0.2,0.2-0.2c0.1,0,0.2,0.1,0.3,0.2C51.8,111.1,51.7,111.2,51.6,111.2z M52.4,110.2
		c0,0,0.2,0.1,0.2,0.1c0,0.1-0.1,0.1-0.3,0.4c-0.1-0.2-0.1-0.3-0.1-0.3C52.2,110.3,52.3,110.2,52.4,110.2z M52.4,112
		c-0.1,0-0.1-0.1-0.2-0.2c0.1-0.1,0.1-0.2,0.2-0.2c0.1,0,0.2,0.1,0.3,0.2C52.5,111.9,52.5,112,52.4,112z M53.3,111.2
		c-0.1,0-0.1-0.1-0.2-0.2c0.1-0.1,0.2-0.2,0.2-0.2c0.1,0,0.1,0.1,0.3,0.2C53.4,111.1,53.3,111.2,53.3,111.2z"/>
	<path class="st1" d="M120.2,91.2c-0.9,0-1.9,0.1-2.5,0.2l2.9,7.7c0.4,0,1.1,0.2,1.7,0.2c0.7,0,1.6-0.1,2-0.2l-1.9-7.7
		C121.9,91.3,121.1,91.2,120.2,91.2z M119.1,92.1c-0.1,0-0.1-0.1-0.2-0.1c0.1-0.1,0.1-0.1,0.2-0.2c0.1,0.1,0.1,0.1,0.2,0.2
		C119.2,92,119.2,92.1,119.1,92.1z"/>
</g>
</svg>
