<?xml version="1.0" encoding="utf-8"?>
<!-- Generator: Adobe Illustrator 26.3.1, SVG Export Plug-In . SVG Version: 6.00 Build 0)  -->
<svg version="1.1" id="Layer_1" xmlns="http://www.w3.org/2000/svg" xmlns:xlink="http://www.w3.org/1999/xlink" x="0px" y="0px"
	 viewBox="0 0 62 30" style="enable-background:new 0 0 62 30;" xml:space="preserve">
<path d="M7.8,9.8L7.7,24.1l12-7.1c-1.4-0.9-2.6-2.1-3.9-3.7c-0.3-0.4-0.5-0.5-0.7-0.6c-0.2-0.1-2.2-0.4-3.3-0.8
	C10.3,11.5,9,10.8,7.8,9.8z M7.8,6.2c1.4,1.8,3,2.9,4.6,3.3c0.9,0.3,3.1,0.7,3.6,0.9c0.6,0.3,1.1,0.6,1.7,1.3c1.5,1.8,2.9,3,4.5,3.9
	l1.9-1.1c-1.9-2.6-4.4-4.8-7.2-6.4C14.1,6.4,11,5.4,7.8,5.1L7.8,6.2L7.8,6.2z M6.6,2.5c4,0.2,8,1.3,11.5,3.3
	c3.6,2.1,6.6,4.9,8.8,8.3c0.4,0.6,0.2,1.3-0.4,1.7c0,0,0,0,0,0L7.1,27.3c-0.6,0.3-1.3,0.1-1.7-0.4c-0.1-0.2-0.2-0.4-0.2-0.6L5.4,3.8
	C5.4,3.1,5.9,2.5,6.6,2.5C6.6,2.5,6.6,2.5,6.6,2.5L6.6,2.5z M9.9,15.4c-0.6-0.3-0.8-1.1-0.5-1.7c0.3-0.6,1.1-0.8,1.7-0.5
	c0.6,0.3,0.8,1.1,0.5,1.7C11.2,15.5,10.5,15.7,9.9,15.4z M11.3,20.4c-0.6-0.3-0.8-1.1-0.5-1.7s1.1-0.8,1.7-0.5
	c0.6,0.3,0.8,1.1,0.5,1.7C12.6,20.6,11.9,20.8,11.3,20.4z"/>
</svg>
