<?xml version="1.0" encoding="UTF-8"?><svg id="Layer_1" xmlns="http://www.w3.org/2000/svg" viewBox="0 0 345.2 138.7"><defs><style>.cls-1{fill-rule:evenodd;}.cls-1,.cls-2{fill:#ec671d;}</style></defs><g id="Livello_7"><g id="Logo"><g><path class="cls-1" d="M173,47.7c2.6,0,4.6,2.3,4.6,4.9v10.1c0,.1-.1,.2-.2,.2h-9c-.1,0-.2-.1-.2-.2v-10.3c0-2.6,2.1-4.8,4.8-4.7"/><path class="cls-1" d="M160.4,46.7c3,.1,5.4,2.7,5.4,5.7v11.8c0,.1-.1,.3-.3,.3h-10.5c-.2,0-.3-.1-.3-.3v-12c0-3,2.6-5.5,5.7-5.5"/><path class="cls-1" d="M145,45.1c-3.7,.1-6.6,3.3-6.6,7v14.4c0,.2,.1,.3,.3,.3h12.9c.2,0,.3-.1,.3-.3v-14.6c0-3.8-3.1-6.9-6.9-6.8"/><path class="cls-1" d="M185.1,48.1c2.3,0,4.1,2,4.1,4.3v8.9c0,.1-.1,.2-.2,.2h-8c-.1,0-.2-.1-.2-.2v-9c0-2.4,1.9-4.3,4.3-4.2"/><path class="cls-1" d="M203.4,0h-6c-.1,0-.2,.1-.3,.2l-3.1,60.3c0,.1,.1,.3,.3,.3h12.3c.1,0,.3-.1,.3-.3L203.7,.3c-.1-.2-.2-.3-.3-.3"/><path class="cls-1" d="M138.3,81c1.2-.1,2.6,.9,2.6,2.6,0,1.4-1.2,2.6-2.5,2.6-1.7-.1-2.6-1.2-2.6-2.6-.1-1.5,1.1-2.7,2.5-2.6"/><path class="cls-1" d="M47.7,108.3c-2.3,2.5-5.2,3.8-8.7,3.8s-6.4-1.3-8.8-3.9c-.2,.3-.5,.5-.7,.8-1.8,2-4,3.1-6.7,3.1H2.5c-1.6,0-2.5-.9-2.5-2.5v-24.5c0-1.1,.8-2.2,1.9-2.4,1.1-.2,2.4,.8,2.5,1.9v23.1H22.3c.9,0,1.8-.1,2.6-.6,1.4-.8,2.2-2.1,2.3-3.7v-3c0-5.5,3.8-10.4,9.5-11.6,3.1-.6,5.9,0,8.6,1.6,.2,.1,.3,.2,.5,.3,.2,.1,.3,.2,.5,.4,0-.2,.1-.4,.1-.5,.2-1.2,1.2-2.1,2.3-2,1.2,.1,2.1,1,2.1,2.2v12.5c0,1.9,.9,3.3,2.6,4.1,.6,.3,1.3,.3,1.9,.4,1.4,.2,2.3,1.4,1.9,2.7-.2,1-1.1,1.7-2.2,1.7-2,0-3.8-.6-5.3-1.8-.6-.6-1.3-1.3-2-2.1m-16.1-8c0,4,3.1,7.4,7.3,7.4,4,.1,7.4-3.1,7.4-7.3s-3.1-7.4-7.3-7.4-7.3,3.4-7.4,7.3"/><path class="cls-2" d="M343.2,107.8c-.6-.1-1.3-.1-1.9-.4-1.8-.8-2.7-2.2-2.7-4.1v-12.6c-.1-1.2-1.1-2-2.1-2.1-.9,0-2,.5-2.2,1.9,0,.2-.1,.3-.1,.5h-.2c-.2-.1-.3-.2-.5-.3-2.7-1.8-5.7-2.6-8.9-1.9-5.7,1.2-9.5,6-9.5,11.5v3.1c0,2-1.5,4.2-4.2,4.4-1.4,.1-2.7,.1-4.1,0-2.5-.1-4-2.1-4.2-3.8,0-.5-.1-1-.1-1.5v-9.5h4.5c.9,0,1.5-.5,1.9-1.4s.2-1.6-.4-2.3c-.5-.5-1.1-.7-1.8-.7h-3.5c-.2,0-.5,0-.8-.1v-3.7c0-1.1-.9-2-2-2.1-1-.1-2,.5-2.3,1.6-.1,.4-.1,.7-.1,1.1v3.1h-4.2c-1.2,0-2.1,.8-2.3,1.9-.1,1.4,.8,2.4,2.2,2.5h3.6c.2,0,.5,0,.7,.1v10.4c0,2.3-2,4.2-4.2,4.2-2.6,.1-5.1,.1-7.7,0-1.8,0-3.1-.9-3.9-2.5-.4-.8-.5-1.6-.5-2.4v-9.8h4.5c.9,0,1.5-.6,1.9-1.4,.4-.9,.2-1.6-.5-2.3-.5-.5-1.1-.7-1.8-.7h-3.4c-.2,0-.5,0-.8-.1v-3.7c0-1.1-.9-2-2-2.1-1-.1-2,.5-2.3,1.5-.1,.4-.2,.8-.2,1.2v3.1h-4.4c-1.3,0-2.2,1-2.2,2.2s.9,2.1,2.2,2.2h4.3v10.3c0,2.6-2.1,4.4-4.4,4.4h-14.8c-1.1,0-2.2-.3-3.2-.8,.3-.3,.5-.5,.7-.8,3.5-3.5,6.9-7,10.4-10.4,.2-.2,.4-.5,.7-.7,.7-.8,.6-2.2-.2-2.9-3.1-2.9-6.7-4-10.8-3.1-2.4,.5-4.5,1.7-6.2,3.6-2.7,3-3.6,6.5-2.8,10.5,.3,1.3,.8,2.6,1.6,3.8-.2,.1-.3,.2-.4,.3-1,.5-2,.7-3.1,.7h-7.1v-17c-.1-1.3-1.2-2.1-2.2-2.1-1.1,0-2,.9-2.2,2,0,.2,0,.3-.1,.5-.4-.2-.7-.4-1-.6-2.6-1.6-5.4-2.3-8.5-1.7-5.7,1.1-9.4,5.9-9.6,11.3v3.2c0,1.8-1.2,4.1-3.9,4.4-1.6,.2-3.2,0-4.9,0v-17c-.1-1.3-1.2-2.1-2.2-2.1-.9,0-2,.6-2.2,2,0,.2,0,.3-.1,.5-.4-.2-.7-.4-1-.6-2.7-1.7-5.5-2.3-8.6-1.7-5.7,1.2-9.5,6.1-9.5,11.6v3.2c-.2,3.2-3.7,5.1-6.4,3.7-1.6-.9-2.4-2.2-2.4-4v-12.6c-.1-1.2-1.1-2-2.1-2.1-.9,0-2,.6-2.2,1.9,0,.2-.1,.3-.1,.6-.2-.2-.4-.3-.5-.4-.2-.1-.3-.2-.5-.3-2.7-1.6-5.5-2.3-8.6-1.6-5.7,1.2-9.5,6.1-9.5,11.7v2.9c-.1,2-1.4,3.7-3.4,4.1-1.9,.5-3.9-.4-4.9-2.1-.4-.8-.6-1.7-.6-2.6v-12.2c-.1-.9-.6-1.6-1.6-2-.8-.3-1.7,0-2.3,.7-.4,.5-.5,1.1-.5,1.8v11.7c0,.5,0,1-.1,1.4-.5,2.1-2.2,3.4-4.4,3.4h-5.6c-.2,0-.3,0-.5-.1,4.4-6.2,2.2-12.5-1-15.7-3.3-3.2-9.5-5.2-15.6-1,0-.1-.1-.2-.1-.3v-.4c-.2-1-1.1-1.8-2.1-1.8-.7,0-1.9,.4-2.2,1.5-.1,.4-.1,.7-.2,1.1v11.7c0,.5,0,1-.1,1.4-.6,2.1-2.2,3.3-4.3,3.4h-4.9c1.6-2,2.6-4.6,2.6-7.4,0-6.9-4.3-11.8-10.5-11.8-5.6,0-8.2,5.5-10.6,10.3-2.6,5.3-4.6,8.8-8,8.8-1.2,0-2.2,1-2.2,2.2s1,2.2,2.2,2.2c6.5,0,9.4-6,12-11.3,2.3-4.7,4-7.9,6.6-7.9,4.5,0,6.1,4,6.1,7.4,0,4.1-3.3,7.3-7.4,7.3-1.2,0-2.2,1-2.2,2.2s.9,2.1,2.1,2.2h14.4c1.2,0,2.4-.3,3.5-.8,.2-.1,.4-.2,.7-.3v16.9c.1,1.2,1.1,2,2.3,2,1.1,0,2-.9,2.1-2.1v-26.9c0-.6,.1-1.3,.2-1.9,.7-3.9,4.6-6.5,8.4-5.9,4.3,.7,7.1,5.2,5.8,9.4-1,3.1-3.8,5.1-6.9,5.2h-2.4c-.9,0-1.8,.7-2,1.5-.3,.9,0,1.8,.8,2.4,.5,.4,1,.5,1.6,.5h17.4c2.1,0,3.9-.7,5.5-2,.3-.3,.7-.6,1.1-.9,1.9,2.1,4.4,3.1,7.2,2.9s5-1.6,6.7-3.9c4.5,4.9,12.4,5.5,17.6,0,1.8,2.5,4.3,3.9,7.4,3.9s5.5-1.4,7.3-3.8c.8,.7,1.6,1.4,2.4,1.9,.8,.5,1.7,.9,2.6,1.3,.9,.3,1.9,.5,2.8,.7-.7,.7-1.4,1.3-2,2-4,4.3-6,9.3-5.6,15.2,.2,2.8,1.5,5.1,3.6,6.9,2,1.7,4.4,2.5,7.1,2.4,3.2-.1,5.8-1.5,7.8-4,1.5-1.9,2.1-4,2.1-6.4v-16h4.4c2.7,0,4.9-1.1,6.7-3.1,.2-.3,.4-.5,.7-.8,2.1,2.2,4.6,3.6,7.8,3.9-.8,.8-1.5,1.4-2.1,2-4,4.3-6,9.3-5.6,15.2,.2,2.8,1.5,5.1,3.6,6.8,2,1.7,4.4,2.5,7.1,2.4,3.2-.1,5.8-1.5,7.8-4,1.5-1.9,2.1-4,2.1-6.4v-16h7.2c.9,0,1.7-.2,2.6-.3,1.5-.3,2.8-.9,4.1-1.8,.2,.1,.3,.2,.4,.2,2,1.3,4.2,1.9,6.5,1.9h14.4c2.4,0,4.5-.8,6.3-2.5l.4-.4h.1c.1,.1,.3,.2,.4,.4,1.7,1.7,3.8,2.4,6.2,2.5h7.4c2.1,0,4-.7,5.6-2.1,.3-.3,.7-.6,1-.9l.3,.3c1.8,1.8,4,2.6,6.5,2.6h3.4c2.8,0,5.1-1.1,6.9-3.2,.2-.2,.4-.5,.6-.7,2.4,2.6,5.3,3.9,8.8,3.9s6.4-1.4,8.7-3.8c.7,.7,1.4,1.4,2.1,2,1.5,1.2,3.3,1.8,5.3,1.8,1.1,0,2-.7,2.2-1.7,.6-.8-.2-2-1.6-2.2m-182.2,0c-4.1-.1-7.3-3.4-7.3-7.4s3.1-7.3,7.4-7.3,7.3,3.3,7.3,7.4-3.4,7.3-7.4,7.3m25.1-7.5c0-3.8,3-7.2,7.3-7.3,4.1,0,7.3,3.2,7.4,7.3,0,4.2-3.3,7.3-7.3,7.4-4.2,0-7.4-3.3-7.4-7.4m14.7,13.2v14.7c0,1.5-.4,2.9-1.5,4-1.6,1.8-3.9,2.5-6.2,1.7-2.3-.7-3.7-2.4-4-4.8-.3-2.5,.2-4.9,1.2-7.2,1.9-4.4,5.8-7.9,10.5-9.2v.8Zm17.7-13.1c.1-3.9,3.1-7.3,7.4-7.3s7.3,3.3,7.3,7.4-3.4,7.3-7.4,7.3c-4.1-.1-7.3-3.4-7.3-7.4m14.7,13v14.7c0,1.5-.4,2.9-1.4,4-1.6,1.8-3.8,2.5-6.2,1.8-2.3-.7-3.7-2.3-4-4.8-.3-2.2,.1-4.4,1-6.5,1.9-4.9,5.4-8.2,10.5-9.8h.2v.6h-.1Zm18.5-9.7c-1.6-2.8-.9-6.3,1.4-8.6,2.3-2.2,5.7-2.8,8.3-1.3-3.2,3.4-6.4,6.7-9.7,9.9m75.1,4.1c-4.1,0-7.3-3.3-7.3-7.4,.1-3.9,3.1-7.3,7.4-7.3s7.3,3.3,7.3,7.4c0,4.1-3.4,7.3-7.4,7.3"/></g></g></g></svg>