<?xml version="1.0" encoding="utf-8"?>
<!-- Generator: Adobe Illustrator 26.1.0, SVG Export Plug-In . SVG Version: 6.00 Build 0)  -->
<svg version="1.1" xmlns="http://www.w3.org/2000/svg" xmlns:xlink="http://www.w3.org/1999/xlink" x="0px" y="0px"
	 viewBox="0 0 345.2 138.7" style="enable-background:new 0 0 345.2 138.7;" xml:space="preserve">
<style type="text/css">
	.st0{clip-path:url(#SVGID_00000092432994161518163720000003219689607415354030_);}
	.st1{clip-path:url(#SVGID_00000060751579969310920100000014463532257520417177_);}
	.st2{clip-path:url(#SVGID_00000039842716010023927040000017369795372050216617_);fill:#FFFFFF;}
	.st3{opacity:0.43;fill:#14192E;}
	.st4{fill:#F7EC66;}
	.st5{fill-rule:evenodd;clip-rule:evenodd;fill:#F7F5E7;}
	.st6{fill:#F7F5E7;}
	.st7{clip-path:url(#SVGID_00000165951280215334635950000003753555705359525021_);}
	.st8{clip-path:url(#SVGID_00000018933854851767051400000005151931181290697371_);}
	.st9{clip-path:url(#SVGID_00000030455174474553508530000017446696521165420168_);fill:#FFFFFF;}
	.st10{opacity:0.37;fill:url(#SVGID_00000084497365776240546060000011113776276605187728_);}
	.st11{opacity:0.21;fill:#ED6D1A;}
	.st12{clip-path:url(#SVGID_00000121280518420434380540000004182763904811898302_);}
	.st13{clip-path:url(#SVGID_00000022540906884407597830000015047847145298421645_);}
	.st14{clip-path:url(#SVGID_00000072260152169997064890000015086794293387430569_);fill:#FFFFFF;}
	.st15{opacity:0.37;fill:url(#SVGID_00000141423837961188369820000005512284037980455316_);}
	.st16{clip-path:url(#SVGID_00000066491258077919986850000013708857404903458724_);}
	.st17{clip-path:url(#SVGID_00000114075718692921092350000013739835963370528912_);}
	.st18{clip-path:url(#SVGID_00000053504712929925994220000012501667432023482011_);fill:#FFFFFF;}
	.st19{opacity:0.37;fill:url(#SVGID_00000011726924055034887580000004926009901293837987_);}
	.st20{clip-path:url(#SVGID_00000127748045078517664730000008945039736655114884_);}
	.st21{clip-path:url(#SVGID_00000136388392743194958080000017271569389498325436_);}
	.st22{clip-path:url(#SVGID_00000155832628213998698390000003265569547094677152_);fill:#FFFFFF;}
	.st23{opacity:0.92;fill:url(#SVGID_00000093898741090293352960000009562542847284158348_);}
	.st24{opacity:0.52;fill:#ED6D1A;}
	.st25{clip-path:url(#SVGID_00000057857661370848266010000017612031978450435212_);}
	.st26{clip-path:url(#SVGID_00000160872463363680529990000003996201336637022853_);}
	.st27{clip-path:url(#SVGID_00000002350658205706375490000007997514314191804086_);fill:#FFFFFF;}
	.st28{opacity:0.92;fill:url(#SVGID_00000053531121951994527510000002843591685652757656_);}
	.st29{fill:#E95033;}
	.st30{clip-path:url(#SVGID_00000078739961475104392430000013693686544589764250_);}
	.st31{clip-path:url(#SVGID_00000038373287899865627370000001324702483727484863_);fill:#FFFFFF;}
	.st32{opacity:0.52;fill:url(#SVGID_00000023249452830657488860000011815571122491757196_);}
	.st33{opacity:0.43;fill:#E73737;}
	.st34{clip-path:url(#SVGID_00000132770999377252470900000003663362483715606953_);}
	.st35{clip-path:url(#SVGID_00000036941384338469990370000015776406349513388165_);fill:#FFFFFF;}
	.st36{opacity:0.52;fill:url(#SVGID_00000078749589001134828030000005638378171701223359_);}
	.st37{fill:#FDEADE;}
</style>
<g id="Livello_1">
</g>
<g id="Livello_2">
</g>
<g id="Livello_3">
</g>
<g id="Livello_4">
</g>
<g id="Livello_5">
</g>
<g id="Livello_6">
</g>
<g id="Livello_7">
	<g id="Sfondo_00000162353968010844072780000017206889875806947721_">
		<g>
			<defs>
				<rect id="SVGID_00000005946039759593057750000014955702346224201142_" x="-538.4" y="411" width="1002.9" height="1002.9"/>
			</defs>
			<clipPath id="SVGID_00000135649748540457200830000015223730773933613223_">
				<use xlink:href="#SVGID_00000005946039759593057750000014955702346224201142_"  style="overflow:visible;"/>
			</clipPath>
		</g>
	</g>
	<g id="Logo_00000126296664447020805210000003834837938710147512_">
		<g>
			<path class="st5" d="M173,47.7c2.6,0,4.6,2.3,4.6,4.9v10.1c0,0.1-0.1,0.2-0.2,0.2h-9c-0.1,0-0.2-0.1-0.2-0.2V52.4
				C168.2,49.8,170.3,47.6,173,47.7"/>
			<path class="st5" d="M160.4,46.7c3,0.1,5.4,2.7,5.4,5.7v11.8c0,0.1-0.1,0.3-0.3,0.3H155c-0.2,0-0.3-0.1-0.3-0.3V52.2
				C154.7,49.2,157.3,46.7,160.4,46.7"/>
			<path class="st5" d="M145,45.1c-3.7,0.1-6.6,3.3-6.6,7v14.4c0,0.2,0.1,0.3,0.3,0.3h12.9c0.2,0,0.3-0.1,0.3-0.3V51.9
				C151.9,48.1,148.8,45,145,45.1"/>
			<path class="st5" d="M185.1,48.1c2.3,0,4.1,2,4.1,4.3v8.9c0,0.1-0.1,0.2-0.2,0.2H181c-0.1,0-0.2-0.1-0.2-0.2v-9
				C180.8,49.9,182.7,48,185.1,48.1"/>
			<path class="st5" d="M203.4,0h-6c-0.1,0-0.2,0.1-0.3,0.2L194,60.5c0,0.1,0.1,0.3,0.3,0.3h12.3c0.1,0,0.3-0.1,0.3-0.3l-3.2-60.2
				C203.6,0.1,203.5,0,203.4,0"/>
			<path class="st5" d="M138.3,81c1.2-0.1,2.6,0.9,2.6,2.6c0,1.4-1.2,2.6-2.5,2.6c-1.7-0.1-2.6-1.2-2.6-2.6
				C135.7,82.1,136.9,80.9,138.3,81"/>
			<path class="st5" d="M47.7,108.3c-2.3,2.5-5.2,3.8-8.7,3.8c-3.5,0-6.4-1.3-8.8-3.9c-0.2,0.3-0.5,0.5-0.7,0.8
				c-1.8,2-4,3.1-6.7,3.1c-6.8,0-13.5,0-20.3,0c-1.6,0-2.5-0.9-2.5-2.5c0-8.2,0-16.3,0-24.5c0-1.1,0.8-2.2,1.9-2.4
				c1.1-0.2,2.4,0.8,2.5,1.9c0,0.3,0,0.6,0,1c0,7,0,14,0,21v1.1h0.8c5.7,0,11.4,0,17.1,0c0.9,0,1.8-0.1,2.6-0.6
				c1.4-0.8,2.2-2.1,2.3-3.7c0-1,0-2,0-3c0-5.5,3.8-10.4,9.5-11.6c3.1-0.6,5.9,0,8.6,1.6c0.2,0.1,0.3,0.2,0.5,0.3
				c0.2,0.1,0.3,0.2,0.5,0.4c0-0.2,0.1-0.4,0.1-0.5c0.2-1.2,1.2-2.1,2.3-2c1.2,0.1,2.1,1,2.1,2.2c0,0.3,0,0.5,0,0.8
				c0,3.9,0,7.8,0,11.7c0,1.9,0.9,3.3,2.6,4.1c0.6,0.3,1.3,0.3,1.9,0.4c1.4,0.2,2.3,1.4,1.9,2.7c-0.2,1-1.1,1.7-2.2,1.7
				c-2,0-3.8-0.6-5.3-1.8C49.1,109.8,48.4,109.1,47.7,108.3 M31.6,100.3c0,4,3.1,7.4,7.3,7.4c4,0.1,7.4-3.1,7.4-7.3
				c0-4.1-3.1-7.4-7.3-7.4C34.8,93,31.7,96.4,31.6,100.3"/>
			<path class="st6" d="M343.2,107.8c-0.6-0.1-1.3-0.1-1.9-0.4c-1.8-0.8-2.7-2.2-2.7-4.1c0-3.9,0-7.9,0-11.8c0-0.3,0-0.5,0-0.8
				c-0.1-1.2-1.1-2-2.1-2.1c-0.9,0-2,0.5-2.2,1.9c0,0.2-0.1,0.3-0.1,0.5c-0.1,0-0.1,0-0.2,0c-0.2-0.1-0.3-0.2-0.5-0.3
				c-2.7-1.8-5.7-2.6-8.9-1.9c-5.7,1.2-9.5,6-9.5,11.5c0,1,0,2,0,3.1c0,2-1.5,4.2-4.2,4.4c-1.4,0.1-2.7,0.1-4.1,0
				c-2.5-0.1-4-2.1-4.2-3.8c0-0.5-0.1-1-0.1-1.5c0-2.8,0-5.7,0-8.5V93h1c1.2,0,2.4,0,3.5,0c0.9,0,1.5-0.5,1.9-1.4
				c0.4-0.9,0.2-1.6-0.4-2.3c-0.5-0.5-1.1-0.7-1.8-0.7c-1.1,0-2.3,0-3.5,0c-0.2,0-0.5,0-0.8-0.1c0-0.4,0-0.7,0-1c0-0.9,0-1.8,0-2.7
				c0-1.1-0.9-2-2-2.1c-1-0.1-2,0.5-2.3,1.6c-0.1,0.4-0.1,0.7-0.1,1.1c0,1,0,2,0,3.1h-0.8c-1.1,0-2.3,0-3.4,0
				c-1.2,0-2.1,0.8-2.3,1.9c-0.1,1.4,0.8,2.4,2.2,2.5c1.2,0,2.4,0,3.6,0c0.2,0,0.5,0,0.7,0.1c0,3.5,0,7,0,10.4c0,2.3-2,4.2-4.2,4.2
				c-2.6,0.1-5.1,0.1-7.7,0c-1.8,0-3.1-0.9-3.9-2.5c-0.4-0.8-0.5-1.6-0.5-2.4c0-3.1,0-6.1,0-9.2c0-0.2,0-0.4,0-0.6h1
				c1.2,0,2.4,0,3.5,0c0.9,0,1.5-0.6,1.9-1.4c0.4-0.9,0.2-1.6-0.5-2.3c-0.5-0.5-1.1-0.7-1.8-0.7c-1.1,0-2.3,0-3.4,0
				c-0.2,0-0.5,0-0.8-0.1v-1c0-0.9,0-1.8,0-2.7c0-1.1-0.9-2-2-2.1c-1-0.1-2,0.5-2.3,1.5c-0.1,0.4-0.2,0.8-0.2,1.2c0,1,0,2,0,3.1h-1
				c-1.1,0-2.2,0-3.4,0c-1.3,0-2.2,1-2.2,2.2c0,1.2,0.9,2.1,2.2,2.2c0.5,0,1.1,0,1.6,0h2.7c0,0.2,0,0.4,0,0.5c0,3.3,0,6.5,0,9.8
				c0,2.6-2.1,4.4-4.4,4.4c-4.9,0-9.8,0-14.8,0c-1.1,0-2.2-0.3-3.2-0.8c0.3-0.3,0.5-0.5,0.7-0.8c3.5-3.5,6.9-7,10.4-10.4
				c0.2-0.2,0.4-0.5,0.7-0.7c0.7-0.8,0.6-2.2-0.2-2.9c-3.1-2.9-6.7-4-10.8-3.1c-2.4,0.5-4.5,1.7-6.2,3.6c-2.7,3-3.6,6.5-2.8,10.5
				c0.3,1.3,0.8,2.6,1.6,3.8c-0.2,0.1-0.3,0.2-0.4,0.3c-1,0.5-2,0.7-3.1,0.7c-2.1,0-4.2,0-6.3,0h-0.8v-0.8c0-5.1,0-10.3,0-15.4
				c0-0.3,0-0.5,0-0.8c-0.1-1.3-1.2-2.1-2.2-2.1c-1.1,0-2,0.9-2.2,2c0,0.2,0,0.3-0.1,0.5c-0.4-0.2-0.7-0.4-1-0.6
				c-2.6-1.6-5.4-2.3-8.5-1.7c-5.7,1.1-9.4,5.9-9.6,11.3c0,1.1,0,2.1,0,3.2c0,1.8-1.2,4.1-3.9,4.4c-1.6,0.2-3.2,0-4.9,0V107V91.5
				c0-0.3,0-0.5,0-0.8c-0.1-1.3-1.2-2.1-2.2-2.1c-0.9,0-2,0.6-2.2,2c0,0.2,0,0.3-0.1,0.5c-0.4-0.2-0.7-0.4-1-0.6
				c-2.7-1.7-5.5-2.3-8.6-1.7c-5.7,1.2-9.5,6.1-9.5,11.6c0,1.1,0,2.1,0,3.2c-0.2,3.2-3.7,5.1-6.4,3.7c-1.6-0.9-2.4-2.2-2.4-4
				c0-3.9,0-7.9,0-11.8c0-0.3,0-0.5,0-0.8c-0.1-1.2-1.1-2-2.1-2.1c-0.9,0-2,0.6-2.2,1.9c0,0.2-0.1,0.3-0.1,0.6
				c-0.2-0.2-0.4-0.3-0.5-0.4c-0.2-0.1-0.3-0.2-0.5-0.3c-2.7-1.6-5.5-2.3-8.6-1.6c-5.7,1.2-9.5,6.1-9.5,11.7c0,1,0,1.9,0,2.9
				c-0.1,2-1.4,3.7-3.4,4.1c-1.9,0.5-3.9-0.4-4.9-2.1c-0.4-0.8-0.6-1.7-0.6-2.6c0-3.8,0-7.6,0-11.4c0-0.3,0-0.5,0-0.8
				c-0.1-0.9-0.6-1.6-1.6-2c-0.8-0.3-1.7,0-2.3,0.7c-0.4,0.5-0.5,1.1-0.5,1.8c0,3.9,0,7.8,0,11.7c0,0.5,0,1-0.1,1.4
				c-0.5,2.1-2.2,3.4-4.4,3.4c-1.9,0-3.7,0-5.6,0c-0.2,0-0.3,0-0.5-0.1c4.4-6.2,2.2-12.5-1-15.7c-3.3-3.2-9.5-5.2-15.6-1
				c0-0.1-0.1-0.2-0.1-0.3c0-0.1,0-0.3,0-0.4c-0.2-1-1.1-1.8-2.1-1.8c-0.7,0-1.9,0.4-2.2,1.5c-0.1,0.4-0.1,0.7-0.2,1.1
				c0,3.9,0,7.8,0,11.7c0,0.5,0,1-0.1,1.4c-0.6,2.1-2.2,3.3-4.3,3.4c-0.6,0-1.3,0-4.9,0c1.6-2,2.6-4.6,2.6-7.4
				c0-6.9-4.3-11.8-10.5-11.8c-5.6,0-8.2,5.5-10.6,10.3c-2.6,5.3-4.6,8.8-8,8.8c-1.2,0-2.2,1-2.2,2.2c0,1.2,1,2.2,2.2,2.2
				c6.5,0,9.4-6,12-11.3c2.3-4.7,4-7.9,6.6-7.9c4.5,0,6.1,4,6.1,7.4c0,4.1-3.3,7.3-7.4,7.3c-1.2,0-2.2,1-2.2,2.2
				c0,1.2,0.9,2.1,2.1,2.2v0c12.3,0,13.4,0,14.4,0c1.2,0,2.4-0.3,3.5-0.8c0.2-0.1,0.4-0.2,0.7-0.3v1.1c0,4.9,0,9.9,0,14.9
				c0,0.3,0,0.6,0,0.9c0.1,1.2,1.1,2,2.3,2c1.1,0,2-0.9,2.1-2.1c0-0.3,0-0.6,0-0.9c0-8.7,0-17.3,0-26c0-0.6,0.1-1.3,0.2-1.9
				c0.7-3.9,4.6-6.5,8.4-5.9c4.3,0.7,7.1,5.2,5.8,9.4c-1,3.1-3.8,5.1-6.9,5.2c-0.8,0-1.6,0-2.4,0c-0.9,0-1.8,0.7-2,1.5
				c-0.3,0.9,0,1.8,0.8,2.4c0.5,0.4,1,0.5,1.6,0.5c5.8,0,11.6,0,17.4,0c2.1,0,3.9-0.7,5.5-2c0.3-0.3,0.7-0.6,1.1-0.9
				c1.9,2.1,4.4,3.1,7.2,2.9c2.8-0.2,5-1.6,6.7-3.9c4.5,4.9,12.4,5.5,17.6,0c1.8,2.5,4.3,3.9,7.4,3.9c3.1,0,5.5-1.4,7.3-3.8
				c0.8,0.7,1.6,1.4,2.4,1.9c0.8,0.5,1.7,0.9,2.6,1.3c0.9,0.3,1.9,0.5,2.8,0.7c-0.7,0.7-1.4,1.3-2,2c-4,4.3-6,9.3-5.6,15.2
				c0.2,2.8,1.5,5.1,3.6,6.9c2,1.7,4.4,2.5,7.1,2.4c3.2-0.1,5.8-1.5,7.8-4c1.5-1.9,2.1-4,2.1-6.4c0-5,0-10,0-14.9c0-0.3,0-0.7,0-1.1
				c1.5,0,2.9,0,4.4,0c2.7,0,4.9-1.1,6.7-3.1c0.2-0.3,0.4-0.5,0.7-0.8c2.1,2.2,4.6,3.6,7.8,3.9c-0.8,0.8-1.5,1.4-2.1,2
				c-4,4.3-6,9.3-5.6,15.2c0.2,2.8,1.5,5.1,3.6,6.8c2,1.7,4.4,2.5,7.1,2.4c3.2-0.1,5.8-1.5,7.8-4c1.5-1.9,2.1-4,2.1-6.4
				c0-5,0-10,0-14.9c0-0.3,0-0.7,0-1.1h1.1c2,0,4.1,0,6.1,0c0.9,0,1.7-0.2,2.6-0.3c1.5-0.3,2.8-0.9,4.1-1.8c0.2,0.1,0.3,0.2,0.4,0.2
				c2,1.3,4.2,1.9,6.5,1.9c4.8,0,9.6,0,14.4,0c2.4,0,4.5-0.8,6.3-2.5c0.1-0.1,0.3-0.3,0.4-0.4c0.1,0,0.1,0,0.1,0
				c0.1,0.1,0.3,0.2,0.4,0.4c1.7,1.7,3.8,2.4,6.2,2.5c2.5,0,4.9,0,7.4,0c2.1,0,4-0.7,5.6-2.1c0.3-0.3,0.7-0.6,1-0.9
				c0.1,0.1,0.2,0.2,0.3,0.3c1.8,1.8,4,2.6,6.5,2.6c1.1,0,2.3,0,3.4,0c2.8,0,5.1-1.1,6.9-3.2c0.2-0.2,0.4-0.5,0.6-0.7
				c2.4,2.6,5.3,3.9,8.8,3.9c3.5,0,6.4-1.4,8.7-3.8c0.7,0.7,1.4,1.4,2.1,2c1.5,1.2,3.3,1.8,5.3,1.8c1.1,0,2-0.7,2.2-1.7
				C345.4,109.2,344.6,108,343.2,107.8 M161,107.8c-4.1-0.1-7.3-3.4-7.3-7.4c0-3.9,3.1-7.3,7.4-7.3c4.2,0,7.3,3.3,7.3,7.4
				C168.4,104.7,165,107.8,161,107.8 M186.1,100.3c0-3.8,3-7.2,7.3-7.3c4.1,0,7.3,3.2,7.4,7.3c0,4.2-3.3,7.3-7.3,7.4
				C189.3,107.7,186.1,104.4,186.1,100.3 M200.8,113.5c0,4.9,0,9.8,0,14.7c0,1.5-0.4,2.9-1.5,4c-1.6,1.8-3.9,2.5-6.2,1.7
				c-2.3-0.7-3.7-2.4-4-4.8c-0.3-2.5,0.2-4.9,1.2-7.2c1.9-4.4,5.8-7.9,10.5-9.2V113.5z M218.5,100.4c0.1-3.9,3.1-7.3,7.4-7.3
				c4.2,0,7.3,3.3,7.3,7.4c0,4.2-3.4,7.3-7.4,7.3C221.7,107.7,218.5,104.4,218.5,100.4 M233.2,113.4c0,4.9,0,9.8,0,14.7
				c0,1.5-0.4,2.9-1.4,4c-1.6,1.8-3.8,2.5-6.2,1.8c-2.3-0.7-3.7-2.3-4-4.8c-0.3-2.2,0.1-4.4,1-6.5c1.9-4.9,5.4-8.2,10.5-9.8
				c0,0,0.1,0,0.2,0V113.4z M251.7,103.7c-1.6-2.8-0.9-6.3,1.4-8.6c2.3-2.2,5.7-2.8,8.3-1.3C258.2,97.2,255,100.5,251.7,103.7
				 M326.8,107.8c-4.1,0-7.3-3.3-7.3-7.4c0.1-3.9,3.1-7.3,7.4-7.3c4.2,0,7.3,3.3,7.3,7.4C334.2,104.6,330.8,107.8,326.8,107.8"/>
		</g>
	</g>
</g>
</svg>
